G04 DipTrace 3.2.0.1*
G04 ddssl.GTS*
%MOIN*%
G04 #@! TF.FileFunction,Soldermask,Top*
G04 #@! TF.Part,Single*
%ADD23R,0.062992X0.070866*%
%ADD32C,0.570866*%
%ADD33C,0.216535*%
%ADD39O,0.074803X0.102362*%
%ADD41R,0.074803X0.102362*%
%ADD44R,0.066929X0.059055*%
%ADD46R,0.070866X0.07874*%
%ADD47R,0.070866X0.114173*%
%ADD49R,0.110236X0.047244*%
%ADD51R,0.033465X0.049213*%
%ADD53R,0.127953X0.067717*%
%ADD55R,0.066929X0.066929*%
%ADD57C,0.066929*%
%FSLAX26Y26*%
G04*
G70*
G90*
G75*
G01*
G04 TopMask*
%LPD*%
D57*
X-450000Y800000D3*
Y700000D3*
Y600000D3*
Y500000D3*
Y400000D3*
Y300000D3*
Y200000D3*
Y100000D3*
Y0D3*
Y-100000D3*
Y-200000D3*
Y-300000D3*
Y-400000D3*
Y-500000D3*
Y-600000D3*
Y-700000D3*
X450000Y-1100000D3*
Y-1000000D3*
Y-900000D3*
Y-800000D3*
Y-700000D3*
Y-600000D3*
Y-500000D3*
Y-400000D3*
Y-300000D3*
Y-200000D3*
Y-100000D3*
Y0D3*
Y100000D3*
Y200000D3*
Y300000D3*
Y400000D3*
Y500000D3*
Y600000D3*
Y700000D3*
D55*
Y800000D3*
D53*
X-1150000Y-450000D3*
Y-359843D3*
D51*
X-750000Y100000D3*
X-675197D3*
X-712598Y190551D3*
X-950000Y100000D3*
X-875197D3*
X-912598Y190551D3*
X-1150000Y100000D3*
X-1075197D3*
X-1112598Y190551D3*
D49*
X-950000Y-350000D3*
Y-250000D3*
Y-450000D3*
X-694094D3*
Y-250000D3*
D32*
X0Y0D3*
D33*
X-786457Y786457D3*
X786457Y-786457D3*
Y786457D3*
X-786457Y-786457D3*
D47*
X-1250000Y-200000D3*
X-1139764D3*
D46*
X-1144882Y-69882D3*
X-1255118D3*
D44*
X-325000Y300000D3*
Y225197D3*
X-225000Y-475000D3*
Y-400197D3*
X-325000Y-475000D3*
Y-400197D3*
D23*
X925000Y-150000D3*
Y-464961D3*
X747835Y-150000D3*
Y-464961D3*
D44*
X650000Y-475000D3*
Y-400197D3*
D41*
X-1000000Y400000D3*
D39*
X-900000D3*
X-800000D3*
X-700000D3*
M02*
