G04 DipTrace 3.2.0.1*
G04 ddssl.GTS*
%MOIN*%
G04 #@! TF.FileFunction,Soldermask,Top*
G04 #@! TF.Part,Single*
%ADD32C,0.570866*%
%ADD33C,0.216535*%
%ADD39R,0.062992X0.070866*%
%ADD41R,0.066929X0.059055*%
%ADD43R,0.07874X0.070866*%
%ADD45R,0.033465X0.049213*%
%ADD47R,0.127953X0.067717*%
%ADD49O,0.074803X0.102362*%
%ADD51R,0.074803X0.102362*%
%ADD53R,0.070866X0.114173*%
%ADD55R,0.110236X0.047244*%
%ADD57R,0.066929X0.066929*%
%ADD59C,0.066929*%
%FSLAX26Y26*%
G04*
G70*
G90*
G75*
G01*
G04 TopMask*
%LPD*%
D59*
X-450000Y800000D3*
Y700000D3*
Y600000D3*
Y500000D3*
Y400000D3*
Y300000D3*
Y200000D3*
Y100000D3*
Y0D3*
Y-100000D3*
Y-200000D3*
Y-300000D3*
Y-400000D3*
Y-500000D3*
Y-600000D3*
Y-700000D3*
X450000Y-1100000D3*
Y-1000000D3*
Y-900000D3*
Y-800000D3*
Y-700000D3*
Y-600000D3*
Y-500000D3*
Y-400000D3*
Y-300000D3*
Y-200000D3*
Y-100000D3*
Y0D3*
Y100000D3*
Y200000D3*
Y300000D3*
Y400000D3*
Y500000D3*
Y600000D3*
Y700000D3*
D57*
Y800000D3*
D32*
X0Y0D3*
D33*
X-786457Y786457D3*
X786457Y-786457D3*
Y786457D3*
X-786457Y-786457D3*
D55*
X-900000Y-350000D3*
Y-250000D3*
Y-450000D3*
X-644094D3*
Y-250000D3*
D53*
X-1175000Y-100000D3*
X-1064764D3*
D51*
X-950000Y400000D3*
D49*
X-850000D3*
X-750000D3*
X-650000D3*
D47*
X-1125000Y-400000D3*
Y-309843D3*
D45*
X-700000Y100000D3*
X-625197D3*
X-662598Y190551D3*
X-900000Y100000D3*
X-825197D3*
X-862598Y190551D3*
X-1100000Y100000D3*
X-1025197D3*
X-1062598Y190551D3*
D43*
X-1075000Y387500D3*
Y497736D3*
D41*
X-350000Y275000D3*
Y200197D3*
X-250000Y-450000D3*
Y-375197D3*
X-350000Y-450000D3*
Y-375197D3*
X575000Y-625000D3*
Y-550197D3*
D39*
X875000Y-150000D3*
Y-464961D3*
X697835Y-150000D3*
Y-464961D3*
M02*
