G04 DipTrace 3.2.0.1*
G04 ddssl.GBL*
%MOIN*%
G04 #@! TF.FileFunction,Copper,L2,Bot*
G04 #@! TF.Part,Single*
G04 #@! TA.AperFunction,CopperBalancing*
%ADD14C,0.012992*%
%ADD15C,0.02*%
G04 #@! TA.AperFunction,ComponentPad*
%ADD16C,0.059055*%
%ADD17R,0.059055X0.059055*%
%ADD28R,0.066929X0.094488*%
%ADD29O,0.066929X0.094488*%
G04 #@! TA.AperFunction,ViaPad*
%ADD30C,0.04*%
%FSLAX26Y26*%
G04*
G70*
G90*
G75*
G01*
G04 Bottom*
%LPD*%
D30*
X-850000Y-350000D3*
X-800000Y-250000D3*
X-700000Y-312500D3*
X-1050000Y-200000D3*
X925000Y-525000D3*
X-1025000Y100000D3*
X-1037500Y50000D3*
X-875000D3*
X-675000D3*
X-825000Y100000D3*
X-625000D3*
X-1150000Y600000D3*
X0D3*
X1150000D3*
X-1050000Y-350000D3*
X0Y-1300000D3*
X-1300000Y50000D3*
X-1200000D3*
X1300000Y0D3*
X-600000Y-50000D3*
X-1183404Y624781D2*
D15*
X-917698D1*
X-655224D2*
X-495808D1*
X-404178D2*
X404203D1*
X495797D2*
X655213D1*
X917686D2*
X1182136D1*
X-1193308Y604912D2*
X-887879D1*
X-685045D2*
X-502088D1*
X-397899D2*
X397924D1*
X502076D2*
X685033D1*
X887867D2*
X1192041D1*
X-1203213Y585043D2*
X-836134D1*
X-736753D2*
X-500042D1*
X-399945D2*
X399933D1*
X500067D2*
X736778D1*
X836157D2*
X1201908D1*
X-1213080Y565175D2*
X-488344D1*
X-411678D2*
X411667D1*
X488332D2*
X1211812D1*
X-1222984Y545306D2*
X-473919D1*
X-426068D2*
X426093D1*
X473907D2*
X1221717D1*
X-1231417Y525437D2*
X-495413D1*
X-404573D2*
X404562D1*
X495438D2*
X1230114D1*
X-1239096Y505568D2*
X-502016D1*
X-397971D2*
X397995D1*
X502004D2*
X1237829D1*
X-1246811Y485699D2*
X-500257D1*
X-399730D2*
X399753D1*
X500247D2*
X1245508D1*
X-1254491Y465831D2*
X-1056247D1*
X-943734D2*
X-917340D1*
X-882659D2*
X-817331D1*
X-782650D2*
X-717357D1*
X-682676D2*
X-488954D1*
X-411033D2*
X411058D1*
X488942D2*
X1253223D1*
X-1262206Y445962D2*
X-1056247D1*
X-654291D2*
X-472520D1*
X-427504D2*
X427492D1*
X472508D2*
X1260903D1*
X-1269885Y426093D2*
X-1056247D1*
X-645142D2*
X-495018D1*
X-404969D2*
X404957D1*
X495043D2*
X1268617D1*
X-1275841Y406224D2*
X-1056247D1*
X-643741D2*
X-501944D1*
X-398042D2*
X398067D1*
X501933D2*
X1274538D1*
X-1281475Y386356D2*
X-1056247D1*
X-643741D2*
X-500437D1*
X-399550D2*
X399575D1*
X500425D2*
X1280209D1*
X-1287146Y366487D2*
X-1056247D1*
X-647438D2*
X-489564D1*
X-410458D2*
X410448D1*
X489552D2*
X1285878D1*
X-1292780Y346618D2*
X-1056247D1*
X-860913D2*
X-839112D1*
X-760903D2*
X-739102D1*
X-660894D2*
X-470976D1*
X-429046D2*
X-114646D1*
X114635D2*
X429035D1*
X470965D2*
X1291512D1*
X-1298449Y326749D2*
X-494623D1*
X-405364D2*
X-163449D1*
X163437D2*
X405387D1*
X494613D2*
X1297181D1*
X-1304083Y306881D2*
X-501873D1*
X-398151D2*
X-198615D1*
X198604D2*
X398139D1*
X501861D2*
X1302815D1*
X-1308101Y287012D2*
X-500617D1*
X-399370D2*
X-226640D1*
X226630D2*
X399395D1*
X500605D2*
X1306798D1*
X-1311798Y267143D2*
X-490138D1*
X-409885D2*
X-249929D1*
X249919D2*
X409873D1*
X490127D2*
X1310530D1*
X-1315529Y247274D2*
X-469253D1*
X-430734D2*
X-269738D1*
X269762D2*
X430722D1*
X469278D2*
X1314226D1*
X-1319226Y227406D2*
X-494230D1*
X-405794D2*
X-286819D1*
X286807D2*
X405782D1*
X494218D2*
X1317958D1*
X-1322958Y207537D2*
X-501765D1*
X-398222D2*
X-301602D1*
X301592D2*
X398247D1*
X501753D2*
X1321655D1*
X-1326654Y187668D2*
X-500795D1*
X-399190D2*
X-314413D1*
X314438D2*
X399215D1*
X500785D2*
X1325386D1*
X-1329022Y167799D2*
X-490677D1*
X-409310D2*
X-325538D1*
X325526D2*
X409335D1*
X490665D2*
X1327755D1*
X-1330852Y147930D2*
X-467352D1*
X-432635D2*
X-335083D1*
X335108D2*
X432659D1*
X467340D2*
X1329585D1*
X-1332718Y128062D2*
X-493762D1*
X-406224D2*
X-343228D1*
X343217D2*
X406213D1*
X493787D2*
X1331415D1*
X-1334549Y108193D2*
X-501657D1*
X-398329D2*
X-350046D1*
X350035D2*
X398354D1*
X501646D2*
X1333245D1*
X-1336378Y88324D2*
X-500940D1*
X-399047D2*
X-355609D1*
X355597D2*
X399035D1*
X500963D2*
X1335110D1*
X-1338209Y68455D2*
X-491215D1*
X-408772D2*
X-359987D1*
X359975D2*
X408797D1*
X491203D2*
X1336941D1*
X-1339123Y48587D2*
X-465127D1*
X-434860D2*
X-363217D1*
X363205D2*
X434885D1*
X465115D2*
X1337839D1*
X-1339123Y28718D2*
X-493332D1*
X-406655D2*
X-365333D1*
X365322D2*
X406680D1*
X493320D2*
X1337839D1*
X-1339123Y8849D2*
X-501550D1*
X-398474D2*
X-366337D1*
X366362D2*
X398462D1*
X501538D2*
X1337839D1*
X-1339123Y-11020D2*
X-501119D1*
X-398904D2*
X-366302D1*
X366290D2*
X398892D1*
X501108D2*
X1337839D1*
X-1339123Y-30888D2*
X-491718D1*
X-408269D2*
X-365154D1*
X365142D2*
X408259D1*
X491741D2*
X1337839D1*
X-1339123Y-50757D2*
X-462400D1*
X-437623D2*
X-362892D1*
X362917D2*
X437612D1*
X462388D2*
X1337839D1*
X-1338604Y-70626D2*
X-492866D1*
X-407121D2*
X-359555D1*
X359545D2*
X407146D1*
X492854D2*
X1337336D1*
X-1336773Y-90495D2*
X-501406D1*
X-398581D2*
X-355034D1*
X355059D2*
X398570D1*
X501430D2*
X1335505D1*
X-1334942Y-110364D2*
X-501262D1*
X-398760D2*
X-349365D1*
X349353D2*
X398749D1*
X501251D2*
X1333639D1*
X-1333113Y-130232D2*
X-492219D1*
X-407768D2*
X-342403D1*
X342391D2*
X407756D1*
X492244D2*
X1331810D1*
X-1331247Y-150101D2*
X-458560D1*
X-441467D2*
X-334114D1*
X334102D2*
X441451D1*
X458567D2*
X1329979D1*
X-1329417Y-169970D2*
X-492399D1*
X-407623D2*
X-324390D1*
X324413D2*
X407613D1*
X492387D2*
X1328150D1*
X-1327444Y-189839D2*
X-501298D1*
X-398724D2*
X-313122D1*
X313110D2*
X398713D1*
X501287D2*
X1326176D1*
X-1323747Y-209707D2*
X-501370D1*
X-398617D2*
X-300096D1*
X300084D2*
X398605D1*
X501395D2*
X1322444D1*
X-1320014Y-229576D2*
X-492722D1*
X-407265D2*
X-285060D1*
X285084D2*
X407289D1*
X492710D2*
X1318748D1*
X-1316319Y-249445D2*
X-461395D1*
X-438627D2*
X-267728D1*
X267717D2*
X438617D1*
X461383D2*
X1315016D1*
X-1312587Y-269314D2*
X-491896D1*
X-408126D2*
X-247562D1*
X247550D2*
X408114D1*
X491886D2*
X1311320D1*
X-1308891Y-289182D2*
X-501155D1*
X-398832D2*
X-223841D1*
X223831D2*
X398857D1*
X501143D2*
X1307588D1*
X-1305159Y-309051D2*
X-501513D1*
X-398509D2*
X-195171D1*
X195194D2*
X398497D1*
X501503D2*
X1303891D1*
X-1299669Y-328920D2*
X-493189D1*
X-406798D2*
X-158999D1*
X158988D2*
X406823D1*
X493177D2*
X1298365D1*
X-1293999Y-348789D2*
X-464337D1*
X-435650D2*
X-107720D1*
X107745D2*
X435638D1*
X464362D2*
X1292731D1*
X-1288329Y-368657D2*
X-491394D1*
X-408629D2*
X408617D1*
X491383D2*
X1287062D1*
X-1282696Y-388526D2*
X-501012D1*
X-399012D2*
X399000D1*
X501000D2*
X1281392D1*
X-1277026Y-408395D2*
X-501621D1*
X-398366D2*
X398390D1*
X501610D2*
X1275759D1*
X-1271392Y-428264D2*
X-493655D1*
X-406367D2*
X406357D1*
X493643D2*
X1270089D1*
X-1263820Y-448133D2*
X-466706D1*
X-433316D2*
X433306D1*
X466694D2*
X1262552D1*
X-1256142Y-468001D2*
X-490856D1*
X-409167D2*
X409155D1*
X490845D2*
X1254837D1*
X-1248427Y-487870D2*
X-500832D1*
X-399155D2*
X399143D1*
X500856D2*
X1247159D1*
X-1240747Y-507739D2*
X-501728D1*
X-398259D2*
X398282D1*
X501718D2*
X1239444D1*
X-1233031Y-527608D2*
X-494085D1*
X-405937D2*
X405925D1*
X494073D2*
X1231764D1*
X-1225101Y-547476D2*
X-468715D1*
X-431307D2*
X431295D1*
X468703D2*
X1223798D1*
X-1215197Y-567345D2*
X-490282D1*
X-409705D2*
X409693D1*
X490306D2*
X1213930D1*
X-1205293Y-587214D2*
X-844530D1*
X-728392D2*
X-500688D1*
X-399335D2*
X399323D1*
X500677D2*
X728381D1*
X844520D2*
X1204026D1*
X-1195425Y-607083D2*
X-891718D1*
X-681169D2*
X-501836D1*
X-398186D2*
X398175D1*
X501825D2*
X681193D1*
X891743D2*
X1194122D1*
X-1185521Y-626951D2*
X-920354D1*
X-652533D2*
X-494516D1*
X-405507D2*
X405495D1*
X494505D2*
X652558D1*
X920378D2*
X1184253D1*
X-1175617Y-646820D2*
X-941239D1*
X-631685D2*
X-470474D1*
X-429549D2*
X429538D1*
X470462D2*
X631673D1*
X941227D2*
X1174349D1*
X-1164457Y-666689D2*
X-957278D1*
X-615644D2*
X-489744D1*
X-410280D2*
X410268D1*
X489732D2*
X615633D1*
X957268D2*
X1163190D1*
X-1152148Y-686558D2*
X-969731D1*
X-603193D2*
X-500509D1*
X-399514D2*
X399503D1*
X500497D2*
X603181D1*
X969719D2*
X1150882D1*
X-1139840Y-706427D2*
X-979348D1*
X-593576D2*
X-501908D1*
X-398079D2*
X398067D1*
X501933D2*
X593564D1*
X979336D2*
X1138573D1*
X-1127568Y-726295D2*
X-986488D1*
X-586399D2*
X-494911D1*
X-405076D2*
X405100D1*
X494899D2*
X586423D1*
X986513D2*
X1126265D1*
X-1115260Y-746164D2*
X-991476D1*
X-581446D2*
X-472052D1*
X-427970D2*
X427958D1*
X472041D2*
X581436D1*
X991465D2*
X1113957D1*
X-1102341Y-766033D2*
X-994419D1*
X-578469D2*
X410878D1*
X489122D2*
X578492D1*
X994444D2*
X1101075D1*
X-1087343Y-785902D2*
X-995424D1*
X-577463D2*
X399682D1*
X500318D2*
X577488D1*
X995448D2*
X1086075D1*
X-1072343Y-805770D2*
X-994526D1*
X-578361D2*
X397995D1*
X502004D2*
X578385D1*
X994551D2*
X1071039D1*
X-1057343Y-825639D2*
X-991692D1*
X-581231D2*
X404706D1*
X495294D2*
X581220D1*
X991680D2*
X1056039D1*
X-1042344Y-845508D2*
X-986848D1*
X-586076D2*
X426524D1*
X473476D2*
X586064D1*
X986836D2*
X1041039D1*
X-1026554Y-865377D2*
X-979814D1*
X-593109D2*
X411488D1*
X488512D2*
X593097D1*
X979802D2*
X1025287D1*
X-1008433Y-885245D2*
X-970340D1*
X-602583D2*
X399898D1*
X500102D2*
X602571D1*
X970329D2*
X1007165D1*
X-990346Y-905114D2*
X-958033D1*
X-614854D2*
X397924D1*
X502076D2*
X614879D1*
X958056D2*
X989043D1*
X-972226Y-924983D2*
X-942243D1*
X-630680D2*
X404311D1*
X495689D2*
X630668D1*
X942232D2*
X970923D1*
X-954104Y-944852D2*
X-921681D1*
X-651206D2*
X425160D1*
X474840D2*
X651230D1*
X921706D2*
X952836D1*
X-933650Y-964720D2*
X-893656D1*
X-679266D2*
X412098D1*
X487902D2*
X679291D1*
X893644D2*
X932383D1*
X-911869Y-984589D2*
X-848335D1*
X-724589D2*
X400076D1*
X499924D2*
X724577D1*
X848323D2*
X910566D1*
X-890051Y-1004458D2*
X397887D1*
X502112D2*
X888783D1*
X-868269Y-1024327D2*
X403951D1*
X496047D2*
X867001D1*
X-844513Y-1044196D2*
X423940D1*
X476060D2*
X843247D1*
X-818210Y-1064064D2*
X412780D1*
X487220D2*
X816907D1*
X-791907Y-1083933D2*
X400291D1*
X499707D2*
X790604D1*
X-765568Y-1103802D2*
X397816D1*
X502184D2*
X764301D1*
X-735390Y-1123671D2*
X403593D1*
X496407D2*
X734087D1*
X-703273Y-1143539D2*
X422756D1*
X477244D2*
X702007D1*
X-671193Y-1163408D2*
X669925D1*
X-636063Y-1183277D2*
X634795D1*
X-596159Y-1203146D2*
X594892D1*
X-556256Y-1223014D2*
X554988D1*
X-509427Y-1242883D2*
X508123D1*
X-458113Y-1262752D2*
X456845D1*
X-400231Y-1282621D2*
X398965D1*
X-330402Y-1302490D2*
X329134D1*
X-236923Y-1322358D2*
X235655D1*
X-76341Y-1342227D2*
X75038D1*
X-399828Y596051D2*
X-401063Y588251D1*
X-403504Y580740D1*
X-407089Y573703D1*
X-411731Y567315D1*
X-417315Y561731D1*
X-423703Y557089D1*
X-430740Y553504D1*
X-438251Y551063D1*
X-444442Y550018D1*
X-438251Y548937D1*
X-430740Y546496D1*
X-423703Y542911D1*
X-417315Y538269D1*
X-411731Y532685D1*
X-407089Y526297D1*
X-403504Y519260D1*
X-401063Y511749D1*
X-399828Y503949D1*
Y496051D1*
X-401063Y488251D1*
X-403504Y480740D1*
X-407089Y473703D1*
X-411731Y467315D1*
X-417315Y461731D1*
X-423703Y457089D1*
X-430740Y453504D1*
X-438251Y451063D1*
X-444442Y450018D1*
X-438251Y448937D1*
X-430740Y446496D1*
X-423703Y442911D1*
X-417315Y438269D1*
X-411731Y432685D1*
X-407089Y426297D1*
X-403504Y419260D1*
X-401063Y411749D1*
X-399828Y403949D1*
Y396051D1*
X-401063Y388251D1*
X-403504Y380740D1*
X-407089Y373703D1*
X-411731Y367315D1*
X-417315Y361731D1*
X-423703Y357089D1*
X-430740Y353504D1*
X-438251Y351063D1*
X-444442Y350018D1*
X-438251Y348937D1*
X-430740Y346496D1*
X-423703Y342911D1*
X-417315Y338269D1*
X-411731Y332685D1*
X-407089Y326297D1*
X-403504Y319260D1*
X-401063Y311749D1*
X-399828Y303949D1*
Y296051D1*
X-401063Y288251D1*
X-403504Y280740D1*
X-407089Y273703D1*
X-411731Y267315D1*
X-417315Y261731D1*
X-423703Y257089D1*
X-430740Y253504D1*
X-438251Y251063D1*
X-444442Y250018D1*
X-438251Y248937D1*
X-430740Y246496D1*
X-423703Y242911D1*
X-417315Y238269D1*
X-411731Y232685D1*
X-407089Y226297D1*
X-403504Y219260D1*
X-401063Y211749D1*
X-399828Y203949D1*
Y196051D1*
X-401063Y188251D1*
X-403504Y180740D1*
X-407089Y173703D1*
X-411731Y167315D1*
X-417315Y161731D1*
X-423703Y157089D1*
X-430740Y153504D1*
X-438251Y151063D1*
X-444442Y150018D1*
X-438251Y148937D1*
X-430740Y146496D1*
X-423703Y142911D1*
X-417315Y138269D1*
X-411731Y132685D1*
X-407089Y126297D1*
X-403504Y119260D1*
X-401063Y111749D1*
X-399828Y103949D1*
Y96051D1*
X-401063Y88251D1*
X-403504Y80740D1*
X-407089Y73703D1*
X-411731Y67315D1*
X-417315Y61731D1*
X-423703Y57089D1*
X-430740Y53504D1*
X-438251Y51063D1*
X-444442Y50018D1*
X-438251Y48937D1*
X-430740Y46496D1*
X-423703Y42911D1*
X-417315Y38269D1*
X-411731Y32685D1*
X-407089Y26297D1*
X-403504Y19260D1*
X-401063Y11749D1*
X-399828Y3949D1*
Y-3949D1*
X-401063Y-11749D1*
X-403504Y-19260D1*
X-407089Y-26297D1*
X-411731Y-32685D1*
X-417315Y-38269D1*
X-423703Y-42911D1*
X-430740Y-46496D1*
X-438251Y-48937D1*
X-444442Y-49982D1*
X-438251Y-51063D1*
X-430740Y-53504D1*
X-423703Y-57089D1*
X-417315Y-61731D1*
X-411731Y-67315D1*
X-407089Y-73703D1*
X-403504Y-80740D1*
X-401063Y-88251D1*
X-399828Y-96051D1*
Y-103949D1*
X-401063Y-111749D1*
X-403504Y-119260D1*
X-407089Y-126297D1*
X-411731Y-132685D1*
X-417315Y-138269D1*
X-423703Y-142911D1*
X-430740Y-146496D1*
X-438251Y-148937D1*
X-444442Y-149982D1*
X-438251Y-151063D1*
X-430740Y-153504D1*
X-423703Y-157089D1*
X-417315Y-161731D1*
X-411731Y-167315D1*
X-407089Y-173703D1*
X-403504Y-180740D1*
X-401063Y-188251D1*
X-399828Y-196051D1*
Y-203949D1*
X-401063Y-211749D1*
X-403504Y-219260D1*
X-407089Y-226297D1*
X-411731Y-232685D1*
X-417315Y-238269D1*
X-423703Y-242911D1*
X-430740Y-246496D1*
X-438251Y-248937D1*
X-444442Y-249982D1*
X-438251Y-251063D1*
X-430740Y-253504D1*
X-423703Y-257089D1*
X-417315Y-261731D1*
X-411731Y-267315D1*
X-407089Y-273703D1*
X-403504Y-280740D1*
X-401063Y-288251D1*
X-399828Y-296051D1*
Y-303949D1*
X-401063Y-311749D1*
X-403504Y-319260D1*
X-407089Y-326297D1*
X-411731Y-332685D1*
X-417315Y-338269D1*
X-423703Y-342911D1*
X-430740Y-346496D1*
X-438251Y-348937D1*
X-444442Y-349982D1*
X-438251Y-351063D1*
X-430740Y-353504D1*
X-423703Y-357089D1*
X-417315Y-361731D1*
X-411731Y-367315D1*
X-407089Y-373703D1*
X-403504Y-380740D1*
X-401063Y-388251D1*
X-399828Y-396051D1*
Y-403949D1*
X-401063Y-411749D1*
X-403504Y-419260D1*
X-407089Y-426297D1*
X-411731Y-432685D1*
X-417315Y-438269D1*
X-423703Y-442911D1*
X-430740Y-446496D1*
X-438251Y-448937D1*
X-444442Y-449982D1*
X-438251Y-451063D1*
X-430740Y-453504D1*
X-423703Y-457089D1*
X-417315Y-461731D1*
X-411731Y-467315D1*
X-407089Y-473703D1*
X-403504Y-480740D1*
X-401063Y-488251D1*
X-399828Y-496051D1*
Y-503949D1*
X-401063Y-511749D1*
X-403504Y-519260D1*
X-407089Y-526297D1*
X-411731Y-532685D1*
X-417315Y-538269D1*
X-423703Y-542911D1*
X-430740Y-546496D1*
X-438251Y-548937D1*
X-444442Y-549982D1*
X-438251Y-551063D1*
X-430740Y-553504D1*
X-423703Y-557089D1*
X-417315Y-561731D1*
X-411731Y-567315D1*
X-407089Y-573703D1*
X-403504Y-580740D1*
X-401063Y-588251D1*
X-399828Y-596051D1*
Y-603949D1*
X-401063Y-611749D1*
X-403504Y-619260D1*
X-407089Y-626297D1*
X-411731Y-632685D1*
X-417315Y-638269D1*
X-423703Y-642911D1*
X-430740Y-646496D1*
X-438251Y-648937D1*
X-444442Y-649982D1*
X-437429Y-651268D1*
X-430471Y-653615D1*
X-423930Y-656950D1*
X-417944Y-661202D1*
X-412639Y-666280D1*
X-408131Y-672075D1*
X-404513Y-678465D1*
X-401864Y-685312D1*
X-400239Y-692472D1*
X-399672Y-700000D1*
X-400209Y-707323D1*
X-401803Y-714490D1*
X-404425Y-721349D1*
X-408016Y-727753D1*
X-412501Y-733567D1*
X-417785Y-738665D1*
X-423753Y-742942D1*
X-430281Y-746303D1*
X-437228Y-748680D1*
X-444448Y-750021D1*
X-451785Y-750295D1*
X-459084Y-749501D1*
X-466190Y-747652D1*
X-472951Y-744789D1*
X-479224Y-740972D1*
X-484875Y-736285D1*
X-489783Y-730824D1*
X-493845Y-724706D1*
X-496974Y-718064D1*
X-499102Y-711037D1*
X-500186Y-703774D1*
X-500201Y-696432D1*
X-499147Y-689165D1*
X-497047Y-682130D1*
X-493948Y-675474D1*
X-489911Y-669340D1*
X-485025Y-663860D1*
X-479392Y-659148D1*
X-473136Y-655306D1*
X-466386Y-652415D1*
X-459287Y-650537D1*
X-455734Y-650001D1*
X-461749Y-648937D1*
X-469260Y-646496D1*
X-476297Y-642911D1*
X-482685Y-638269D1*
X-488269Y-632685D1*
X-492911Y-626297D1*
X-496496Y-619260D1*
X-498937Y-611749D1*
X-500172Y-603949D1*
Y-596051D1*
X-498937Y-588251D1*
X-496496Y-580740D1*
X-492911Y-573703D1*
X-488269Y-567315D1*
X-482685Y-561731D1*
X-476297Y-557089D1*
X-469260Y-553504D1*
X-461749Y-551063D1*
X-455558Y-550018D1*
X-461749Y-548937D1*
X-469260Y-546496D1*
X-476297Y-542911D1*
X-482685Y-538269D1*
X-488269Y-532685D1*
X-492911Y-526297D1*
X-496496Y-519260D1*
X-498937Y-511749D1*
X-500172Y-503949D1*
Y-496051D1*
X-498937Y-488251D1*
X-496496Y-480740D1*
X-492911Y-473703D1*
X-488269Y-467315D1*
X-482685Y-461731D1*
X-476297Y-457089D1*
X-469260Y-453504D1*
X-461749Y-451063D1*
X-455558Y-450018D1*
X-461749Y-448937D1*
X-469260Y-446496D1*
X-476297Y-442911D1*
X-482685Y-438269D1*
X-488269Y-432685D1*
X-492911Y-426297D1*
X-496496Y-419260D1*
X-498937Y-411749D1*
X-500172Y-403949D1*
Y-396051D1*
X-498937Y-388251D1*
X-496496Y-380740D1*
X-492911Y-373703D1*
X-488269Y-367315D1*
X-482685Y-361731D1*
X-476297Y-357089D1*
X-469260Y-353504D1*
X-461749Y-351063D1*
X-455558Y-350018D1*
X-461749Y-348937D1*
X-469260Y-346496D1*
X-476297Y-342911D1*
X-482685Y-338269D1*
X-488269Y-332685D1*
X-492911Y-326297D1*
X-496496Y-319260D1*
X-498937Y-311749D1*
X-500172Y-303949D1*
Y-296051D1*
X-498937Y-288251D1*
X-496496Y-280740D1*
X-492911Y-273703D1*
X-488269Y-267315D1*
X-482685Y-261731D1*
X-476297Y-257089D1*
X-469260Y-253504D1*
X-461749Y-251063D1*
X-455558Y-250018D1*
X-461749Y-248937D1*
X-469260Y-246496D1*
X-476297Y-242911D1*
X-482685Y-238269D1*
X-488269Y-232685D1*
X-492911Y-226297D1*
X-496496Y-219260D1*
X-498937Y-211749D1*
X-500172Y-203949D1*
Y-196051D1*
X-498937Y-188251D1*
X-496496Y-180740D1*
X-492911Y-173703D1*
X-488269Y-167315D1*
X-482685Y-161731D1*
X-476297Y-157089D1*
X-469260Y-153504D1*
X-461749Y-151063D1*
X-455558Y-150018D1*
X-461749Y-148937D1*
X-469260Y-146496D1*
X-476297Y-142911D1*
X-482685Y-138269D1*
X-488269Y-132685D1*
X-492911Y-126297D1*
X-496496Y-119260D1*
X-498937Y-111749D1*
X-500172Y-103949D1*
Y-96051D1*
X-498937Y-88251D1*
X-496496Y-80740D1*
X-492911Y-73703D1*
X-488269Y-67315D1*
X-482685Y-61731D1*
X-476297Y-57089D1*
X-469260Y-53504D1*
X-461749Y-51063D1*
X-455558Y-50018D1*
X-461749Y-48937D1*
X-469260Y-46496D1*
X-476297Y-42911D1*
X-482685Y-38269D1*
X-488269Y-32685D1*
X-492911Y-26297D1*
X-496496Y-19260D1*
X-498937Y-11749D1*
X-500172Y-3949D1*
Y3949D1*
X-498937Y11749D1*
X-496496Y19260D1*
X-492911Y26297D1*
X-488269Y32685D1*
X-482685Y38269D1*
X-476297Y42911D1*
X-469260Y46496D1*
X-461749Y48937D1*
X-455558Y49982D1*
X-461749Y51063D1*
X-469260Y53504D1*
X-476297Y57089D1*
X-482685Y61731D1*
X-488269Y67315D1*
X-492911Y73703D1*
X-496496Y80740D1*
X-498937Y88251D1*
X-500172Y96051D1*
Y103949D1*
X-498937Y111749D1*
X-496496Y119260D1*
X-492911Y126297D1*
X-488269Y132685D1*
X-482685Y138269D1*
X-476297Y142911D1*
X-469260Y146496D1*
X-461749Y148937D1*
X-455558Y149982D1*
X-461749Y151063D1*
X-469260Y153504D1*
X-476297Y157089D1*
X-482685Y161731D1*
X-488269Y167315D1*
X-492911Y173703D1*
X-496496Y180740D1*
X-498937Y188251D1*
X-500172Y196051D1*
Y203949D1*
X-498937Y211749D1*
X-496496Y219260D1*
X-492911Y226297D1*
X-488269Y232685D1*
X-482685Y238269D1*
X-476297Y242911D1*
X-469260Y246496D1*
X-461749Y248937D1*
X-455558Y249982D1*
X-461749Y251063D1*
X-469260Y253504D1*
X-476297Y257089D1*
X-482685Y261731D1*
X-488269Y267315D1*
X-492911Y273703D1*
X-496496Y280740D1*
X-498937Y288251D1*
X-500172Y296051D1*
Y303949D1*
X-498937Y311749D1*
X-496496Y319260D1*
X-492911Y326297D1*
X-488269Y332685D1*
X-482685Y338269D1*
X-476297Y342911D1*
X-469260Y346496D1*
X-461749Y348937D1*
X-455558Y349982D1*
X-461749Y351063D1*
X-469260Y353504D1*
X-476297Y357089D1*
X-482685Y361731D1*
X-488269Y367315D1*
X-492911Y373703D1*
X-496496Y380740D1*
X-498937Y388251D1*
X-500172Y396051D1*
Y403949D1*
X-498937Y411749D1*
X-496496Y419260D1*
X-492911Y426297D1*
X-488269Y432685D1*
X-482685Y438269D1*
X-476297Y442911D1*
X-469260Y446496D1*
X-461749Y448937D1*
X-455558Y449982D1*
X-461749Y451063D1*
X-469260Y453504D1*
X-476297Y457089D1*
X-482685Y461731D1*
X-488269Y467315D1*
X-492911Y473703D1*
X-496496Y480740D1*
X-498937Y488251D1*
X-500172Y496051D1*
Y503949D1*
X-498937Y511749D1*
X-496496Y519260D1*
X-492911Y526297D1*
X-488269Y532685D1*
X-482685Y538269D1*
X-476297Y542911D1*
X-469260Y546496D1*
X-461749Y548937D1*
X-455558Y549982D1*
X-461749Y551063D1*
X-469260Y553504D1*
X-476297Y557089D1*
X-482685Y561731D1*
X-488269Y567315D1*
X-492911Y573703D1*
X-496496Y580740D1*
X-498937Y588251D1*
X-500172Y596051D1*
Y603949D1*
X-498937Y611749D1*
X-496496Y619260D1*
X-492911Y626297D1*
X-488269Y632685D1*
X-482685Y638269D1*
X-476297Y642911D1*
X-473185Y644654D1*
X-635703Y644650D1*
X-648808Y631879D1*
X-663054Y620285D1*
X-678270Y610000D1*
X-694339Y601104D1*
X-711133Y593668D1*
X-728520Y587749D1*
X-746362Y583395D1*
X-764521Y580640D1*
X-782853Y579507D1*
X-801213Y580001D1*
X-819457Y582123D1*
X-837441Y585853D1*
X-855024Y591161D1*
X-872066Y598009D1*
X-888434Y606340D1*
X-904000Y616089D1*
X-918640Y627180D1*
X-932239Y639525D1*
X-937196Y644665D1*
X-1175545Y644650D1*
X-1228223Y538810D1*
X-1272996Y423231D1*
X-1306916Y304013D1*
X-1329690Y182176D1*
X-1341125Y58756D1*
X-1341123Y-65193D1*
X-1329685Y-188613D1*
X-1306908Y-310450D1*
X-1272987Y-429667D1*
X-1228210Y-545245D1*
X-1172959Y-656198D1*
X-1107709Y-761581D1*
X-1033010Y-860493D1*
X-949507Y-952091D1*
X-857907Y-1035592D1*
X-758993Y-1110287D1*
X-653609Y-1175537D1*
X-542654Y-1230783D1*
X-427075Y-1275556D1*
X-307857Y-1309476D1*
X-186020Y-1332251D1*
X-62600Y-1343685D1*
X61349Y-1343684D1*
X184769Y-1332247D1*
X306606Y-1309469D1*
X425823Y-1275547D1*
X541402Y-1230772D1*
X652354Y-1175522D1*
X757738Y-1110270D1*
X856650Y-1035572D1*
X948248Y-952068D1*
X1031749Y-860469D1*
X1106445Y-761555D1*
X1171694Y-656171D1*
X1226941Y-545215D1*
X1271714Y-429636D1*
X1305634Y-310420D1*
X1328408Y-188581D1*
X1339844Y-65161D1*
X1339843Y58786D1*
X1328404Y182207D1*
X1305627Y304045D1*
X1271706Y423261D1*
X1226930Y538840D1*
X1174245Y644639D1*
X937244Y644650D1*
X924105Y631879D1*
X909860Y620285D1*
X894643Y610000D1*
X878575Y601104D1*
X861781Y593668D1*
X844394Y587749D1*
X826551Y583395D1*
X808392Y580640D1*
X790060Y579507D1*
X771701Y580001D1*
X753457Y582123D1*
X735472Y585853D1*
X717890Y591161D1*
X700848Y598009D1*
X684479Y606340D1*
X668913Y616089D1*
X654273Y627180D1*
X640675Y639525D1*
X635718Y644665D1*
X473190Y644650D1*
X479581Y640715D1*
X485587Y635587D1*
X490715Y629581D1*
X494843Y622848D1*
X497865Y615552D1*
X499707Y607873D1*
X500328Y600000D1*
X499707Y592127D1*
X497865Y584448D1*
X494843Y577152D1*
X490715Y570419D1*
X485587Y564413D1*
X479581Y559285D1*
X472848Y555157D1*
X465552Y552135D1*
X457873Y550293D1*
X455558Y550018D1*
X461749Y548937D1*
X469260Y546496D1*
X476297Y542911D1*
X482685Y538269D1*
X488269Y532685D1*
X492911Y526297D1*
X496496Y519260D1*
X498937Y511749D1*
X500172Y503949D1*
Y496051D1*
X498937Y488251D1*
X496496Y480740D1*
X492911Y473703D1*
X488269Y467315D1*
X482685Y461731D1*
X476297Y457089D1*
X469260Y453504D1*
X461749Y451063D1*
X455558Y450018D1*
X461749Y448937D1*
X469260Y446496D1*
X476297Y442911D1*
X482685Y438269D1*
X488269Y432685D1*
X492911Y426297D1*
X496496Y419260D1*
X498937Y411749D1*
X500172Y403949D1*
Y396051D1*
X498937Y388251D1*
X496496Y380740D1*
X492911Y373703D1*
X488269Y367315D1*
X482685Y361731D1*
X476297Y357089D1*
X469260Y353504D1*
X461749Y351063D1*
X455558Y350018D1*
X461749Y348937D1*
X469260Y346496D1*
X476297Y342911D1*
X482685Y338269D1*
X488269Y332685D1*
X492911Y326297D1*
X496496Y319260D1*
X498937Y311749D1*
X500172Y303949D1*
Y296051D1*
X498937Y288251D1*
X496496Y280740D1*
X492911Y273703D1*
X488269Y267315D1*
X482685Y261731D1*
X476297Y257089D1*
X469260Y253504D1*
X461749Y251063D1*
X455558Y250018D1*
X462571Y248732D1*
X469529Y246385D1*
X476070Y243050D1*
X482056Y238798D1*
X487361Y233720D1*
X491869Y227925D1*
X495487Y221535D1*
X498136Y214688D1*
X499761Y207528D1*
X500328Y200000D1*
X499791Y192677D1*
X498197Y185510D1*
X495575Y178651D1*
X491984Y172247D1*
X487499Y166433D1*
X482215Y161335D1*
X476247Y157058D1*
X469719Y153697D1*
X462772Y151320D1*
X455717Y150001D1*
X462571Y148732D1*
X469529Y146385D1*
X476070Y143050D1*
X482056Y138798D1*
X487361Y133720D1*
X491869Y127925D1*
X495487Y121535D1*
X498136Y114688D1*
X499761Y107528D1*
X500328Y100000D1*
X499791Y92677D1*
X498197Y85510D1*
X495575Y78651D1*
X491984Y72247D1*
X487499Y66433D1*
X482215Y61335D1*
X476247Y57058D1*
X469719Y53697D1*
X462772Y51320D1*
X455717Y50001D1*
X461749Y48937D1*
X469260Y46496D1*
X476297Y42911D1*
X482685Y38269D1*
X488269Y32685D1*
X492911Y26297D1*
X496496Y19260D1*
X498937Y11749D1*
X500172Y3949D1*
Y-3949D1*
X498937Y-11749D1*
X496496Y-19260D1*
X492911Y-26297D1*
X488269Y-32685D1*
X482685Y-38269D1*
X476297Y-42911D1*
X469260Y-46496D1*
X461749Y-48937D1*
X455558Y-49982D1*
X461749Y-51063D1*
X469260Y-53504D1*
X476297Y-57089D1*
X482685Y-61731D1*
X488269Y-67315D1*
X492911Y-73703D1*
X496496Y-80740D1*
X498937Y-88251D1*
X500172Y-96051D1*
Y-103949D1*
X498937Y-111749D1*
X496496Y-119260D1*
X492911Y-126297D1*
X488269Y-132685D1*
X482685Y-138269D1*
X476297Y-142911D1*
X469260Y-146496D1*
X461749Y-148937D1*
X455558Y-149982D1*
X461749Y-151063D1*
X469260Y-153504D1*
X476297Y-157089D1*
X482685Y-161731D1*
X488269Y-167315D1*
X492911Y-173703D1*
X496496Y-180740D1*
X498937Y-188251D1*
X500172Y-196051D1*
Y-203949D1*
X498937Y-211749D1*
X496496Y-219260D1*
X492911Y-226297D1*
X488269Y-232685D1*
X482685Y-238269D1*
X476297Y-242911D1*
X469260Y-246496D1*
X461749Y-248937D1*
X455558Y-249982D1*
X461749Y-251063D1*
X469260Y-253504D1*
X476297Y-257089D1*
X482685Y-261731D1*
X488269Y-267315D1*
X492911Y-273703D1*
X496496Y-280740D1*
X498937Y-288251D1*
X500172Y-296051D1*
Y-303949D1*
X498937Y-311749D1*
X496496Y-319260D1*
X492911Y-326297D1*
X488269Y-332685D1*
X482685Y-338269D1*
X476297Y-342911D1*
X469260Y-346496D1*
X461749Y-348937D1*
X455558Y-349982D1*
X461749Y-351063D1*
X469260Y-353504D1*
X476297Y-357089D1*
X482685Y-361731D1*
X488269Y-367315D1*
X492911Y-373703D1*
X496496Y-380740D1*
X498937Y-388251D1*
X500172Y-396051D1*
Y-403949D1*
X498937Y-411749D1*
X496496Y-419260D1*
X492911Y-426297D1*
X488269Y-432685D1*
X482685Y-438269D1*
X476297Y-442911D1*
X469260Y-446496D1*
X461749Y-448937D1*
X455558Y-449982D1*
X461749Y-451063D1*
X469260Y-453504D1*
X476297Y-457089D1*
X482685Y-461731D1*
X488269Y-467315D1*
X492911Y-473703D1*
X496496Y-480740D1*
X498937Y-488251D1*
X500172Y-496051D1*
Y-503949D1*
X498937Y-511749D1*
X496496Y-519260D1*
X492911Y-526297D1*
X488269Y-532685D1*
X482685Y-538269D1*
X476297Y-542911D1*
X469260Y-546496D1*
X461749Y-548937D1*
X455558Y-549982D1*
X461749Y-551063D1*
X469260Y-553504D1*
X476297Y-557089D1*
X482685Y-561731D1*
X488269Y-567315D1*
X492911Y-573703D1*
X496496Y-580740D1*
X498937Y-588251D1*
X500172Y-596051D1*
Y-603949D1*
X498937Y-611749D1*
X496496Y-619260D1*
X492911Y-626297D1*
X488269Y-632685D1*
X482685Y-638269D1*
X476297Y-642911D1*
X469260Y-646496D1*
X461749Y-648937D1*
X455558Y-649982D1*
X461749Y-651063D1*
X469260Y-653504D1*
X476297Y-657089D1*
X482685Y-661731D1*
X488269Y-667315D1*
X492911Y-673703D1*
X496496Y-680740D1*
X498937Y-688251D1*
X500172Y-696051D1*
Y-703949D1*
X498937Y-711749D1*
X496496Y-719260D1*
X492911Y-726297D1*
X488269Y-732685D1*
X482685Y-738269D1*
X476297Y-742911D1*
X469260Y-746496D1*
X461749Y-748937D1*
X455558Y-749982D1*
X461749Y-751063D1*
X469260Y-753504D1*
X476297Y-757089D1*
X482685Y-761731D1*
X488269Y-767315D1*
X492911Y-773703D1*
X496496Y-780740D1*
X498937Y-788251D1*
X500172Y-796051D1*
Y-803949D1*
X498937Y-811749D1*
X496496Y-819260D1*
X492911Y-826297D1*
X488269Y-832685D1*
X482685Y-838269D1*
X476297Y-842911D1*
X469260Y-846496D1*
X461749Y-848937D1*
X455558Y-849982D1*
X462571Y-851268D1*
X469529Y-853615D1*
X476070Y-856950D1*
X482056Y-861202D1*
X487361Y-866280D1*
X491869Y-872075D1*
X495487Y-878465D1*
X498136Y-885312D1*
X499761Y-892472D1*
X500328Y-900000D1*
X499791Y-907323D1*
X498197Y-914490D1*
X495575Y-921349D1*
X491984Y-927753D1*
X487499Y-933567D1*
X482215Y-938665D1*
X476247Y-942942D1*
X469719Y-946303D1*
X462772Y-948680D1*
X455717Y-949999D1*
X461749Y-951063D1*
X469260Y-953504D1*
X476297Y-957089D1*
X482685Y-961731D1*
X488269Y-967315D1*
X492911Y-973703D1*
X496496Y-980740D1*
X498937Y-988251D1*
X500172Y-996051D1*
Y-1003949D1*
X498937Y-1011749D1*
X496496Y-1019260D1*
X492911Y-1026297D1*
X488269Y-1032685D1*
X482685Y-1038269D1*
X476297Y-1042911D1*
X469260Y-1046496D1*
X461749Y-1048937D1*
X455558Y-1049982D1*
X461749Y-1051063D1*
X469260Y-1053504D1*
X476297Y-1057089D1*
X482685Y-1061731D1*
X488269Y-1067315D1*
X492911Y-1073703D1*
X496496Y-1080740D1*
X498937Y-1088251D1*
X500172Y-1096051D1*
Y-1103949D1*
X498937Y-1111749D1*
X496496Y-1119260D1*
X492911Y-1126297D1*
X488269Y-1132685D1*
X482685Y-1138269D1*
X476297Y-1142911D1*
X469260Y-1146496D1*
X461749Y-1148937D1*
X453949Y-1150172D1*
X446051D1*
X438251Y-1148937D1*
X430740Y-1146496D1*
X423703Y-1142911D1*
X417315Y-1138269D1*
X411731Y-1132685D1*
X407089Y-1126297D1*
X403504Y-1119260D1*
X401063Y-1111749D1*
X399828Y-1103949D1*
Y-1096051D1*
X401063Y-1088251D1*
X403504Y-1080740D1*
X407089Y-1073703D1*
X411731Y-1067315D1*
X417315Y-1061731D1*
X423703Y-1057089D1*
X430740Y-1053504D1*
X438251Y-1051063D1*
X444442Y-1050018D1*
X438251Y-1048937D1*
X430740Y-1046496D1*
X423703Y-1042911D1*
X417315Y-1038269D1*
X411731Y-1032685D1*
X407089Y-1026297D1*
X403504Y-1019260D1*
X401063Y-1011749D1*
X399828Y-1003949D1*
Y-996051D1*
X401063Y-988251D1*
X403504Y-980740D1*
X407089Y-973703D1*
X411731Y-967315D1*
X417315Y-961731D1*
X423703Y-957089D1*
X430740Y-953504D1*
X438251Y-951063D1*
X444442Y-950018D1*
X437328Y-948706D1*
X430377Y-946344D1*
X423843Y-942996D1*
X417865Y-938732D1*
X412571Y-933643D1*
X408073Y-927840D1*
X404469Y-921442D1*
X401833Y-914589D1*
X400223Y-907425D1*
X399672Y-900104D1*
X400193Y-892780D1*
X401774Y-885609D1*
X404381Y-878745D1*
X407959Y-872333D1*
X412433Y-866510D1*
X417705Y-861400D1*
X423665Y-857113D1*
X430186Y-853738D1*
X437129Y-851346D1*
X444266Y-850001D1*
X438251Y-848937D1*
X430740Y-846496D1*
X423703Y-842911D1*
X417315Y-838269D1*
X411731Y-832685D1*
X407089Y-826297D1*
X403504Y-819260D1*
X401063Y-811749D1*
X399828Y-803949D1*
Y-796051D1*
X401063Y-788251D1*
X403504Y-780740D1*
X407089Y-773703D1*
X411731Y-767315D1*
X417315Y-761731D1*
X423703Y-757089D1*
X430740Y-753504D1*
X438251Y-751063D1*
X444442Y-750018D1*
X438251Y-748937D1*
X430740Y-746496D1*
X423703Y-742911D1*
X417315Y-738269D1*
X411731Y-732685D1*
X407089Y-726297D1*
X403504Y-719260D1*
X401063Y-711749D1*
X399828Y-703949D1*
Y-696051D1*
X401063Y-688251D1*
X403504Y-680740D1*
X407089Y-673703D1*
X411731Y-667315D1*
X417315Y-661731D1*
X423703Y-657089D1*
X430740Y-653504D1*
X438251Y-651063D1*
X444442Y-650018D1*
X438251Y-648937D1*
X430740Y-646496D1*
X423703Y-642911D1*
X417315Y-638269D1*
X411731Y-632685D1*
X407089Y-626297D1*
X403504Y-619260D1*
X401063Y-611749D1*
X399828Y-603949D1*
Y-596051D1*
X401063Y-588251D1*
X403504Y-580740D1*
X407089Y-573703D1*
X411731Y-567315D1*
X417315Y-561731D1*
X423703Y-557089D1*
X430740Y-553504D1*
X438251Y-551063D1*
X444442Y-550018D1*
X438251Y-548937D1*
X430740Y-546496D1*
X423703Y-542911D1*
X417315Y-538269D1*
X411731Y-532685D1*
X407089Y-526297D1*
X403504Y-519260D1*
X401063Y-511749D1*
X399828Y-503949D1*
Y-496051D1*
X401063Y-488251D1*
X403504Y-480740D1*
X407089Y-473703D1*
X411731Y-467315D1*
X417315Y-461731D1*
X423703Y-457089D1*
X430740Y-453504D1*
X438251Y-451063D1*
X444442Y-450018D1*
X438251Y-448937D1*
X430740Y-446496D1*
X423703Y-442911D1*
X417315Y-438269D1*
X411731Y-432685D1*
X407089Y-426297D1*
X403504Y-419260D1*
X401063Y-411749D1*
X399828Y-403949D1*
Y-396051D1*
X401063Y-388251D1*
X403504Y-380740D1*
X407089Y-373703D1*
X411731Y-367315D1*
X417315Y-361731D1*
X423703Y-357089D1*
X430740Y-353504D1*
X438251Y-351063D1*
X444442Y-350018D1*
X438251Y-348937D1*
X430740Y-346496D1*
X423703Y-342911D1*
X417315Y-338269D1*
X411731Y-332685D1*
X407089Y-326297D1*
X403504Y-319260D1*
X401063Y-311749D1*
X399828Y-303949D1*
Y-296051D1*
X401063Y-288251D1*
X403504Y-280740D1*
X407089Y-273703D1*
X411731Y-267315D1*
X417315Y-261731D1*
X423703Y-257089D1*
X430740Y-253504D1*
X438251Y-251063D1*
X444442Y-250018D1*
X438251Y-248937D1*
X430740Y-246496D1*
X423703Y-242911D1*
X417315Y-238269D1*
X411731Y-232685D1*
X407089Y-226297D1*
X403504Y-219260D1*
X401063Y-211749D1*
X399828Y-203949D1*
Y-196051D1*
X401063Y-188251D1*
X403504Y-180740D1*
X407089Y-173703D1*
X411731Y-167315D1*
X417315Y-161731D1*
X423703Y-157089D1*
X430740Y-153504D1*
X438251Y-151063D1*
X444442Y-150018D1*
X438251Y-148937D1*
X430740Y-146496D1*
X423703Y-142911D1*
X417315Y-138269D1*
X411731Y-132685D1*
X407089Y-126297D1*
X403504Y-119260D1*
X401063Y-111749D1*
X399828Y-103949D1*
Y-96051D1*
X401063Y-88251D1*
X403504Y-80740D1*
X407089Y-73703D1*
X411731Y-67315D1*
X417315Y-61731D1*
X423703Y-57089D1*
X430740Y-53504D1*
X438251Y-51063D1*
X444442Y-50018D1*
X438251Y-48937D1*
X430740Y-46496D1*
X423703Y-42911D1*
X417315Y-38269D1*
X411731Y-32685D1*
X407089Y-26297D1*
X403504Y-19260D1*
X401063Y-11749D1*
X399828Y-3949D1*
Y3949D1*
X401063Y11749D1*
X403504Y19260D1*
X407089Y26297D1*
X411731Y32685D1*
X417315Y38269D1*
X423703Y42911D1*
X430740Y46496D1*
X438251Y48937D1*
X444442Y49982D1*
X437328Y51294D1*
X430377Y53656D1*
X423843Y57004D1*
X417865Y61268D1*
X412571Y66357D1*
X408073Y72160D1*
X404469Y78558D1*
X401833Y85411D1*
X400223Y92575D1*
X399672Y99896D1*
X400193Y107220D1*
X401774Y114391D1*
X404381Y121255D1*
X407959Y127667D1*
X412433Y133490D1*
X417705Y138600D1*
X423665Y142887D1*
X430186Y146262D1*
X437129Y148654D1*
X444266Y149999D1*
X437328Y151294D1*
X430377Y153656D1*
X423843Y157004D1*
X417865Y161268D1*
X412571Y166357D1*
X408073Y172160D1*
X404469Y178558D1*
X401833Y185411D1*
X400223Y192575D1*
X399672Y199896D1*
X400193Y207220D1*
X401774Y214391D1*
X404381Y221255D1*
X407959Y227667D1*
X412433Y233490D1*
X417705Y238600D1*
X423665Y242887D1*
X430186Y246262D1*
X437129Y248654D1*
X444266Y249999D1*
X438251Y251063D1*
X430740Y253504D1*
X423703Y257089D1*
X417315Y261731D1*
X411731Y267315D1*
X407089Y273703D1*
X403504Y280740D1*
X401063Y288251D1*
X399828Y296051D1*
Y303949D1*
X401063Y311749D1*
X403504Y319260D1*
X407089Y326297D1*
X411731Y332685D1*
X417315Y338269D1*
X423703Y342911D1*
X430740Y346496D1*
X438251Y348937D1*
X444442Y349982D1*
X438251Y351063D1*
X430740Y353504D1*
X423703Y357089D1*
X417315Y361731D1*
X411731Y367315D1*
X407089Y373703D1*
X403504Y380740D1*
X401063Y388251D1*
X399828Y396051D1*
Y403949D1*
X401063Y411749D1*
X403504Y419260D1*
X407089Y426297D1*
X411731Y432685D1*
X417315Y438269D1*
X423703Y442911D1*
X430740Y446496D1*
X438251Y448937D1*
X444442Y449982D1*
X438251Y451063D1*
X430740Y453504D1*
X423703Y457089D1*
X417315Y461731D1*
X411731Y467315D1*
X407089Y473703D1*
X403504Y480740D1*
X401063Y488251D1*
X399828Y496051D1*
Y503949D1*
X401063Y511749D1*
X403504Y519260D1*
X407089Y526297D1*
X411731Y532685D1*
X417315Y538269D1*
X423703Y542911D1*
X430740Y546496D1*
X438251Y548937D1*
X444442Y549982D1*
X438251Y551063D1*
X430740Y553504D1*
X423703Y557089D1*
X417315Y561731D1*
X411731Y567315D1*
X407089Y573703D1*
X403504Y580740D1*
X401063Y588251D1*
X399828Y596051D1*
Y603949D1*
X401063Y611749D1*
X403504Y619260D1*
X407089Y626297D1*
X411731Y632685D1*
X417315Y638269D1*
X423703Y642911D1*
X426815Y644654D1*
X-426785Y644650D1*
X-420419Y640715D1*
X-414413Y635587D1*
X-409285Y629581D1*
X-405157Y622848D1*
X-402135Y615552D1*
X-400293Y607873D1*
X-399672Y600000D1*
X-399828Y596051D1*
X364346Y-9185D2*
X363420Y-27533D1*
X361571Y-45810D1*
X358804Y-63971D1*
X355125Y-81970D1*
X350543Y-99760D1*
X345071Y-117297D1*
X338722Y-134535D1*
X331513Y-151433D1*
X323461Y-167945D1*
X314588Y-184030D1*
X304915Y-199648D1*
X294467Y-214760D1*
X283272Y-229324D1*
X271356Y-243307D1*
X258752Y-256672D1*
X245490Y-269383D1*
X231604Y-281411D1*
X217129Y-292724D1*
X202104Y-303293D1*
X186564Y-313092D1*
X170550Y-322094D1*
X154104Y-330280D1*
X137265Y-337625D1*
X120079Y-344113D1*
X102587Y-349727D1*
X84833Y-354451D1*
X66865Y-358276D1*
X48727Y-361190D1*
X30465Y-363186D1*
X12126Y-364260D1*
X-6244Y-364408D1*
X-24598Y-363631D1*
X-42891Y-361929D1*
X-61073Y-359308D1*
X-79101Y-355774D1*
X-96928Y-351337D1*
X-114508Y-346007D1*
X-131798Y-339797D1*
X-148752Y-332724D1*
X-165329Y-324806D1*
X-181486Y-316063D1*
X-197181Y-306516D1*
X-212375Y-296190D1*
X-227030Y-285113D1*
X-241109Y-273311D1*
X-254575Y-260815D1*
X-267394Y-247656D1*
X-279533Y-233867D1*
X-290962Y-219484D1*
X-301652Y-204545D1*
X-311576Y-189085D1*
X-320707Y-173144D1*
X-329025Y-156764D1*
X-336507Y-139986D1*
X-343133Y-122852D1*
X-348887Y-105406D1*
X-353755Y-87692D1*
X-357724Y-69755D1*
X-360785Y-51640D1*
X-362929Y-33395D1*
X-364151Y-15066D1*
X-364448Y3303D1*
X-363818Y21663D1*
X-362264Y39969D1*
X-359790Y58171D1*
X-356402Y76227D1*
X-352108Y94089D1*
X-346920Y111711D1*
X-340849Y129051D1*
X-333913Y146062D1*
X-326130Y162702D1*
X-317517Y178929D1*
X-308097Y194701D1*
X-297895Y209978D1*
X-286936Y224722D1*
X-275248Y238895D1*
X-262861Y252461D1*
X-249806Y265386D1*
X-236115Y277636D1*
X-221825Y289181D1*
X-206972Y299991D1*
X-191593Y310039D1*
X-175727Y319301D1*
X-159415Y327749D1*
X-142697Y335365D1*
X-125617Y342130D1*
X-108218Y348025D1*
X-90543Y353035D1*
X-72640Y357150D1*
X-54551Y360357D1*
X-36324Y362647D1*
X-18004Y364017D1*
X361Y364462D1*
X18726Y363980D1*
X37043Y362575D1*
X55265Y360248D1*
X73348Y357005D1*
X91244Y352856D1*
X108908Y347810D1*
X126295Y341881D1*
X143362Y335081D1*
X160064Y327432D1*
X176360Y318951D1*
X192207Y309659D1*
X207567Y299580D1*
X222399Y288740D1*
X236665Y277168D1*
X250332Y264890D1*
X263361Y251940D1*
X275722Y238349D1*
X287382Y224152D1*
X298311Y209387D1*
X308483Y194089D1*
X317871Y178299D1*
X326451Y162055D1*
X334203Y145399D1*
X341105Y128374D1*
X347140Y111024D1*
X352294Y93391D1*
X356552Y75520D1*
X359904Y57458D1*
X362343Y39249D1*
X363860Y20941D1*
X364462Y0D1*
X364346Y-9185D1*
X993235Y-795640D2*
X991606Y-813934D1*
X988362Y-832012D1*
X983529Y-849732D1*
X977144Y-866953D1*
X969257Y-883539D1*
X959932Y-899362D1*
X949240Y-914297D1*
X937266Y-928223D1*
X924105Y-941034D1*
X909860Y-952629D1*
X894643Y-962913D1*
X878575Y-971810D1*
X861781Y-979245D1*
X844394Y-985164D1*
X826551Y-989518D1*
X808392Y-992273D1*
X790060Y-993407D1*
X771701Y-992912D1*
X753457Y-990790D1*
X735472Y-987060D1*
X717890Y-981752D1*
X700848Y-974904D1*
X684479Y-966573D1*
X668913Y-956824D1*
X654273Y-945734D1*
X640675Y-933388D1*
X628223Y-919886D1*
X617017Y-905333D1*
X607146Y-889845D1*
X598688Y-873542D1*
X591706Y-856554D1*
X586259Y-839014D1*
X582388Y-821060D1*
X580123Y-802833D1*
X579484Y-784478D1*
X580475Y-766138D1*
X583087Y-747958D1*
X587301Y-730081D1*
X593083Y-712648D1*
X600387Y-695797D1*
X609156Y-679659D1*
X619322Y-664361D1*
X630803Y-650026D1*
X643510Y-636765D1*
X657343Y-624682D1*
X672193Y-613873D1*
X687941Y-604424D1*
X704466Y-596407D1*
X721636Y-589887D1*
X739318Y-584915D1*
X757370Y-581529D1*
X775651Y-579757D1*
X794017Y-579613D1*
X812323Y-581097D1*
X830427Y-584199D1*
X848182Y-588894D1*
X865454Y-595143D1*
X882102Y-602899D1*
X897997Y-612101D1*
X913014Y-622675D1*
X927035Y-634539D1*
X939949Y-647600D1*
X951655Y-661753D1*
X962059Y-676888D1*
X971080Y-692887D1*
X978648Y-709622D1*
X984703Y-726962D1*
X989197Y-744770D1*
X992094Y-762907D1*
X993373Y-781228D1*
X993235Y-795640D1*
X-579678D2*
X-581307Y-813934D1*
X-584551Y-832012D1*
X-589385Y-849732D1*
X-595769Y-866953D1*
X-603656Y-883539D1*
X-612982Y-899362D1*
X-623673Y-914297D1*
X-635647Y-928223D1*
X-648808Y-941034D1*
X-663054Y-952629D1*
X-678270Y-962913D1*
X-694339Y-971810D1*
X-711133Y-979245D1*
X-728520Y-985164D1*
X-746362Y-989518D1*
X-764521Y-992273D1*
X-782853Y-993407D1*
X-801213Y-992912D1*
X-819457Y-990790D1*
X-837441Y-987060D1*
X-855024Y-981752D1*
X-872066Y-974904D1*
X-888434Y-966573D1*
X-904000Y-956824D1*
X-918640Y-945734D1*
X-932239Y-933388D1*
X-944690Y-919886D1*
X-955896Y-905333D1*
X-965768Y-889845D1*
X-974226Y-873542D1*
X-981207Y-856554D1*
X-986655Y-839014D1*
X-990525Y-821060D1*
X-992790Y-802833D1*
X-993429Y-784478D1*
X-992438Y-766138D1*
X-989827Y-747958D1*
X-985613Y-730081D1*
X-979831Y-712648D1*
X-972526Y-695797D1*
X-963757Y-679659D1*
X-953592Y-664361D1*
X-942110Y-650026D1*
X-929403Y-636765D1*
X-915571Y-624682D1*
X-900720Y-613873D1*
X-884972Y-604424D1*
X-868448Y-596407D1*
X-851277Y-589887D1*
X-833596Y-584915D1*
X-815543Y-581529D1*
X-797262Y-579757D1*
X-778896Y-579613D1*
X-760591Y-581097D1*
X-742487Y-584199D1*
X-724731Y-588894D1*
X-707459Y-595143D1*
X-690811Y-602899D1*
X-674916Y-612101D1*
X-659899Y-622675D1*
X-645878Y-634539D1*
X-632965Y-647600D1*
X-621259Y-661753D1*
X-610854Y-676888D1*
X-601833Y-692887D1*
X-594265Y-709622D1*
X-588210Y-726962D1*
X-583717Y-744770D1*
X-580819Y-762907D1*
X-579541Y-781228D1*
X-579678Y-795640D1*
X-1045079Y468045D2*
X-945735D1*
Y442961D1*
X-941262Y449021D1*
X-935241Y455042D1*
X-928353Y460047D1*
X-920766Y463913D1*
X-912668Y466545D1*
X-904257Y467877D1*
X-895743D1*
X-887332Y466545D1*
X-879234Y463913D1*
X-871647Y460047D1*
X-864759Y455042D1*
X-858738Y449021D1*
X-853732Y442133D1*
X-850012Y434864D1*
X-846268Y442133D1*
X-841262Y449021D1*
X-835241Y455042D1*
X-828353Y460047D1*
X-820766Y463913D1*
X-812668Y466545D1*
X-804257Y467877D1*
X-795743D1*
X-787332Y466545D1*
X-779234Y463913D1*
X-771647Y460047D1*
X-764759Y455042D1*
X-758738Y449021D1*
X-753732Y442133D1*
X-750012Y434864D1*
X-746268Y442133D1*
X-741262Y449021D1*
X-735241Y455042D1*
X-728353Y460047D1*
X-720766Y463913D1*
X-712668Y466545D1*
X-704257Y467877D1*
X-695743D1*
X-687332Y466545D1*
X-679234Y463913D1*
X-671647Y460047D1*
X-664759Y455042D1*
X-658738Y449021D1*
X-653732Y442133D1*
X-649866Y434546D1*
X-647235Y426448D1*
X-645903Y418037D1*
X-645735Y395407D1*
X-645903Y381963D1*
X-647235Y373552D1*
X-649866Y365454D1*
X-653732Y357867D1*
X-658738Y350979D1*
X-664759Y344958D1*
X-671647Y339953D1*
X-679234Y336087D1*
X-687332Y333455D1*
X-695743Y332123D1*
X-704257D1*
X-712668Y333455D1*
X-720766Y336087D1*
X-728353Y339953D1*
X-735241Y344958D1*
X-741262Y350979D1*
X-746268Y357867D1*
X-749988Y365136D1*
X-753732Y357867D1*
X-758738Y350979D1*
X-764759Y344958D1*
X-771647Y339953D1*
X-779234Y336087D1*
X-787332Y333455D1*
X-795743Y332123D1*
X-804257D1*
X-812668Y333455D1*
X-820766Y336087D1*
X-828353Y339953D1*
X-835241Y344958D1*
X-841262Y350979D1*
X-846268Y357867D1*
X-849988Y365136D1*
X-853732Y357867D1*
X-858738Y350979D1*
X-864759Y344958D1*
X-871647Y339953D1*
X-879234Y336087D1*
X-887332Y333455D1*
X-895743Y332123D1*
X-904257D1*
X-912668Y333455D1*
X-920766Y336087D1*
X-928353Y339953D1*
X-935241Y344958D1*
X-941262Y350979D1*
X-945741Y357079D1*
X-945735Y331955D1*
X-1054265D1*
Y468045D1*
X-1045079D1*
X-485562Y-664438D2*
D14*
X-414438Y-735562D1*
Y-664438D2*
X-485562Y-735562D1*
X414438Y-864438D2*
X485562Y-935562D1*
Y-864438D2*
X414438Y-935562D1*
Y135562D2*
X485562Y64438D1*
Y135562D2*
X414438Y64438D1*
Y235562D2*
X485562Y164438D1*
Y235562D2*
X414438Y164438D1*
D16*
X-450000Y800000D3*
Y700000D3*
Y600000D3*
Y500000D3*
Y400000D3*
Y300000D3*
Y200000D3*
Y100000D3*
Y0D3*
Y-100000D3*
Y-200000D3*
Y-300000D3*
Y-400000D3*
Y-500000D3*
Y-600000D3*
Y-700000D3*
X450000Y-1100000D3*
Y-1000000D3*
Y-900000D3*
Y-800000D3*
Y-700000D3*
Y-600000D3*
Y-500000D3*
Y-400000D3*
Y-300000D3*
Y-200000D3*
Y-100000D3*
Y0D3*
Y100000D3*
Y200000D3*
Y300000D3*
Y400000D3*
Y500000D3*
Y600000D3*
Y700000D3*
D17*
Y800000D3*
D28*
X-1000000Y400000D3*
D29*
X-900000D3*
X-800000D3*
X-700000D3*
M02*
