G04 DipTrace 3.2.0.1*
G04 ddssl.GBL*
%MOIN*%
G04 #@! TF.FileFunction,Copper,L2,Bot*
G04 #@! TF.Part,Single*
G04 #@! TA.AperFunction,CopperBalancing*
%ADD14C,0.012992*%
%ADD15C,0.02*%
G04 #@! TA.AperFunction,ComponentPad*
%ADD16C,0.059055*%
%ADD17R,0.059055X0.059055*%
%ADD20R,0.066929X0.094488*%
%ADD21O,0.066929X0.094488*%
G04 #@! TA.AperFunction,ViaPad*
%ADD30C,0.04*%
%FSLAX26Y26*%
G04*
G70*
G90*
G75*
G01*
G04 Bottom*
%LPD*%
D30*
X-800000Y-350000D3*
X-750000Y-250000D3*
X-550000D3*
X-1000000Y-100000D3*
X850000Y-300000D3*
X-1125000Y300000D3*
X-975000Y100000D3*
Y50000D3*
X-825000D3*
X-625000D3*
X-775000Y100000D3*
X-575000D3*
X-600000Y500000D3*
X-1225000Y300000D3*
X0Y500000D3*
X1150000D3*
X-1000000Y-350000D3*
X0Y-1250000D3*
X-1250000Y0D3*
X-1050000Y-200000D3*
X1250000Y0D3*
X-400000Y-50000D3*
X-1168824Y520131D2*
D15*
X-498129D1*
X-401871D2*
X401882D1*
X498140D2*
X1167974D1*
X-1177436Y500262D2*
X-502328D1*
X-397672D2*
X397684D1*
X502339D2*
X1175940D1*
X-1186049Y480394D2*
X-498344D1*
X-401656D2*
X401631D1*
X498356D2*
X1183907D1*
X-1194696Y460525D2*
X-1006249D1*
X-893735D2*
X-879542D1*
X-820424D2*
X-779568D1*
X-720450D2*
X-679559D1*
X-620441D2*
X-483201D1*
X-416799D2*
X416774D1*
X483213D2*
X1191873D1*
X-1202448Y440656D2*
X-1006249D1*
X-600849D2*
X-481659D1*
X-418341D2*
X418353D1*
X481669D2*
X1199839D1*
X-1208799Y420787D2*
X-1006249D1*
X-594175D2*
X-497843D1*
X-402157D2*
X402169D1*
X497818D2*
X1207841D1*
X-1215150Y400919D2*
X-1006249D1*
X-593744D2*
X-502328D1*
X-397672D2*
X397684D1*
X502303D2*
X1215807D1*
X-1221501Y381050D2*
X-1006249D1*
X-593995D2*
X-498631D1*
X-401369D2*
X401379D1*
X498606D2*
X1222517D1*
X-1227853Y361181D2*
X-1006249D1*
X-599844D2*
X-484026D1*
X-415974D2*
X-50797D1*
X50808D2*
X415984D1*
X484038D2*
X1227828D1*
X-1234205Y341312D2*
X-1006249D1*
X-893735D2*
X-882457D1*
X-817554D2*
X-782475D1*
X-717545D2*
X-682466D1*
X-617535D2*
X-480726D1*
X-419274D2*
X-129814D1*
X129825D2*
X419251D1*
X480736D2*
X1233176D1*
X-1239444Y321444D2*
X-497520D1*
X-402480D2*
X-173772D1*
X173783D2*
X402457D1*
X497530D2*
X1238486D1*
X-1243786Y301575D2*
X-502291D1*
X-397709D2*
X-206642D1*
X206654D2*
X397684D1*
X502303D2*
X1243797D1*
X-1248092Y281706D2*
X-498883D1*
X-401117D2*
X-233232D1*
X233243D2*
X401129D1*
X498894D2*
X1249143D1*
X-1252434Y261837D2*
X-484816D1*
X-415184D2*
X-255516D1*
X255528D2*
X415196D1*
X484827D2*
X1253378D1*
X-1256740Y241969D2*
X-479793D1*
X-420207D2*
X-274534D1*
X274546D2*
X420219D1*
X479768D2*
X1256715D1*
X-1261081Y222100D2*
X-497232D1*
X-402768D2*
X-290970D1*
X290982D2*
X402780D1*
X497207D2*
X1260052D1*
X-1264348Y202231D2*
X-502291D1*
X-397709D2*
X-305215D1*
X305192D2*
X397719D1*
X502268D2*
X1263390D1*
X-1266752Y182362D2*
X-499134D1*
X-400866D2*
X-317560D1*
X317571D2*
X400878D1*
X499146D2*
X1266727D1*
X-1269119Y162493D2*
X-485570D1*
X-414430D2*
X-328218D1*
X328228D2*
X414442D1*
X485545D2*
X1270064D1*
X-1271488Y142625D2*
X-478752D1*
X-421248D2*
X-337404D1*
X337379D2*
X421260D1*
X478762D2*
X1272504D1*
X-1273857Y122756D2*
X-496873D1*
X-403127D2*
X-345155D1*
X345167D2*
X403102D1*
X496885D2*
X1273904D1*
X-1276224Y102887D2*
X-502256D1*
X-397744D2*
X-351650D1*
X351625D2*
X397756D1*
X502231D2*
X1275339D1*
X-1277804Y83018D2*
X-499385D1*
X-400615D2*
X-356888D1*
X356865D2*
X400626D1*
X499361D2*
X1276739D1*
X-1278270Y63150D2*
X-486287D1*
X-413713D2*
X-360944D1*
X360955D2*
X413724D1*
X486262D2*
X1278175D1*
X-1278736Y43281D2*
X-477675D1*
X-422325D2*
X-363886D1*
X363898D2*
X422301D1*
X477686D2*
X1279609D1*
X-1279203Y23412D2*
X-496550D1*
X-403450D2*
X-365717D1*
X365692D2*
X403461D1*
X496562D2*
X1280327D1*
X-1279706Y3543D2*
X-502220D1*
X-397780D2*
X-366434D1*
X366445D2*
X397791D1*
X502196D2*
X1279861D1*
X-1280172Y-16325D2*
X-499600D1*
X-400400D2*
X-366112D1*
X366087D2*
X400411D1*
X499612D2*
X1279394D1*
X-1280101Y-36194D2*
X-486969D1*
X-413031D2*
X-364676D1*
X364651D2*
X413042D1*
X486980D2*
X1278928D1*
X-1278665Y-56063D2*
X-476526D1*
X-423474D2*
X-362129D1*
X362139D2*
X423449D1*
X476538D2*
X1278461D1*
X-1277265Y-75932D2*
X-496192D1*
X-403808D2*
X-358469D1*
X358479D2*
X403783D1*
X496202D2*
X1277959D1*
X-1275831Y-95801D2*
X-502148D1*
X-397852D2*
X-353659D1*
X353635D2*
X397864D1*
X502159D2*
X1277097D1*
X-1274430Y-115669D2*
X-499816D1*
X-400184D2*
X-347631D1*
X347606D2*
X400160D1*
X499827D2*
X1274730D1*
X-1272995Y-135538D2*
X-487651D1*
X-412349D2*
X-340311D1*
X340322D2*
X412361D1*
X487626D2*
X1272325D1*
X-1271273Y-155407D2*
X-475343D1*
X-424657D2*
X-331663D1*
X331673D2*
X424668D1*
X475318D2*
X1269957D1*
X-1267936Y-175276D2*
X-495832D1*
X-404168D2*
X-321543D1*
X321554D2*
X404178D1*
X495844D2*
X1267588D1*
X-1264598Y-195144D2*
X-502076D1*
X-397924D2*
X-309808D1*
X309820D2*
X397899D1*
X502088D2*
X1265219D1*
X-1261261Y-215013D2*
X-500031D1*
X-399969D2*
X-296281D1*
X296291D2*
X399980D1*
X500042D2*
X1262600D1*
X-1257924Y-234882D2*
X-488261D1*
X-411739D2*
X-280671D1*
X280682D2*
X411714D1*
X488272D2*
X1258294D1*
X-1254551Y-254751D2*
X-474014D1*
X-425986D2*
X-262657D1*
X262633D2*
X425961D1*
X474026D2*
X1253953D1*
X-1251034Y-274619D2*
X-495474D1*
X-404526D2*
X-241629D1*
X241605D2*
X404538D1*
X495449D2*
X1249646D1*
X-1245723Y-294488D2*
X-502041D1*
X-397959D2*
X-216726D1*
X216736D2*
X397971D1*
X502016D2*
X1245340D1*
X-1240377Y-314357D2*
X-500247D1*
X-399753D2*
X-186440D1*
X186415D2*
X399765D1*
X500222D2*
X1240997D1*
X-1235066Y-334226D2*
X-488907D1*
X-411093D2*
X-147361D1*
X147336D2*
X411105D1*
X488882D2*
X1236441D1*
X-1229755Y-354094D2*
X-472615D1*
X-427385D2*
X-88295D1*
X88307D2*
X427360D1*
X472627D2*
X1230089D1*
X-1224408Y-373963D2*
X-495079D1*
X-404921D2*
X404932D1*
X495054D2*
X1223738D1*
X-1218739Y-393832D2*
X-501933D1*
X-398067D2*
X398042D1*
X501944D2*
X1217386D1*
X-1211346Y-413701D2*
X-500425D1*
X-399575D2*
X399585D1*
X500437D2*
X1211034D1*
X-1203919Y-433570D2*
X-489482D1*
X-410518D2*
X410495D1*
X489492D2*
X1204684D1*
X-1196526Y-453438D2*
X-471109D1*
X-428891D2*
X428903D1*
X471084D2*
X1197794D1*
X-1189098Y-473307D2*
X-494648D1*
X-405352D2*
X405327D1*
X494660D2*
X1189289D1*
X-1181706Y-493176D2*
X-501861D1*
X-398139D2*
X398150D1*
X501873D2*
X1180785D1*
X-1173381Y-513045D2*
X-500605D1*
X-399395D2*
X399406D1*
X500617D2*
X1172280D1*
X-1163728Y-532913D2*
X-490091D1*
X-409909D2*
X409920D1*
X490067D2*
X1163739D1*
X-1154075Y-552782D2*
X-469421D1*
X-430579D2*
X430589D1*
X469433D2*
X1155235D1*
X-1144423Y-572651D2*
X-494253D1*
X-405747D2*
X405757D1*
X494265D2*
X1145331D1*
X-1134769Y-592520D2*
X-860774D1*
X-712126D2*
X-501753D1*
X-398247D2*
X398222D1*
X501765D2*
X712136D1*
X860786D2*
X1134458D1*
X-1125117Y-612388D2*
X-900463D1*
X-672474D2*
X-500785D1*
X-399215D2*
X399227D1*
X500795D2*
X672484D1*
X900438D2*
X1123621D1*
X-1113311Y-632257D2*
X-926514D1*
X-646386D2*
X-490630D1*
X-409370D2*
X409382D1*
X490640D2*
X646398D1*
X926526D2*
X1112783D1*
X-1101218Y-652126D2*
X-945928D1*
X-626972D2*
X-467520D1*
X-432480D2*
X432491D1*
X467531D2*
X626984D1*
X945940D2*
X1101911D1*
X-1089089Y-671995D2*
X-960891D1*
X-612009D2*
X-493823D1*
X-406177D2*
X406188D1*
X493798D2*
X612020D1*
X960903D2*
X1090500D1*
X-1076996Y-691864D2*
X-972554D1*
X-600346D2*
X-501681D1*
X-398319D2*
X398329D1*
X501657D2*
X600357D1*
X972566D2*
X1077043D1*
X-1064867Y-711732D2*
X-981490D1*
X-591448D2*
X-500928D1*
X-399072D2*
X399047D1*
X500940D2*
X591423D1*
X981465D2*
X1063622D1*
X-1051016Y-731601D2*
X-988020D1*
X-584881D2*
X-491168D1*
X-408832D2*
X408844D1*
X491178D2*
X584891D1*
X988031D2*
X1050165D1*
X-1036160Y-751470D2*
X-992470D1*
X-580466D2*
X434680D1*
X465343D2*
X580442D1*
X992445D2*
X1036709D1*
X-1021268Y-771339D2*
X-994874D1*
X-578026D2*
X406619D1*
X493367D2*
X578038D1*
X994886D2*
X1022894D1*
X-1006412Y-791207D2*
X-995377D1*
X-577524D2*
X398437D1*
X501550D2*
X577535D1*
X995387D2*
X1006495D1*
X-578959Y-811076D2*
X398904D1*
X501083D2*
X578934D1*
X-582297Y-830945D2*
X408306D1*
X491681D2*
X582308D1*
X-587751Y-850814D2*
X437336D1*
X462651D2*
X587726D1*
X-595394Y-870682D2*
X407085D1*
X492902D2*
X595370D1*
X-605550Y-890551D2*
X398581D1*
X501442D2*
X605560D1*
X-618719Y-910420D2*
X398760D1*
X501227D2*
X618694D1*
X-635621Y-930289D2*
X407803D1*
X492184D2*
X635631D1*
X-657797Y-950157D2*
X441031D1*
X458955D2*
X657808D1*
X-688837Y-970026D2*
X407588D1*
X492434D2*
X688848D1*
X-746323Y-989895D2*
X398689D1*
X501298D2*
X746335D1*
X-787375Y-1009764D2*
X398617D1*
X501370D2*
X787673D1*
X-760820Y-1029633D2*
X407336D1*
X492686D2*
X762877D1*
X-734302Y-1049501D2*
X438915D1*
X461072D2*
X733524D1*
X-705630Y-1069370D2*
X408054D1*
X491933D2*
X704171D1*
X-673047Y-1089239D2*
X398832D1*
X501155D2*
X674818D1*
X-640429Y-1109108D2*
X398509D1*
X501513D2*
X640619D1*
X-606591Y-1128976D2*
X406835D1*
X493152D2*
X604234D1*
X-565682Y-1148845D2*
X435865D1*
X464122D2*
X567846D1*
X-524774Y-1168714D2*
X523996D1*
X-478089Y-1188583D2*
X477598D1*
X-424801Y-1208451D2*
X426068D1*
X-364839Y-1228320D2*
X363917D1*
X-290702Y-1248189D2*
X288488D1*
X-184412Y-1268058D2*
X186039D1*
X-399828Y496051D2*
X-401063Y488251D1*
X-403504Y480740D1*
X-407089Y473703D1*
X-411731Y467315D1*
X-417315Y461731D1*
X-423703Y457089D1*
X-430740Y453504D1*
X-438251Y451063D1*
X-444442Y450018D1*
X-438251Y448937D1*
X-430740Y446496D1*
X-423703Y442911D1*
X-417315Y438269D1*
X-411731Y432685D1*
X-407089Y426297D1*
X-403504Y419260D1*
X-401063Y411749D1*
X-399828Y403949D1*
Y396051D1*
X-401063Y388251D1*
X-403504Y380740D1*
X-407089Y373703D1*
X-411731Y367315D1*
X-417315Y361731D1*
X-423703Y357089D1*
X-430740Y353504D1*
X-438251Y351063D1*
X-444442Y350018D1*
X-438251Y348937D1*
X-430740Y346496D1*
X-423703Y342911D1*
X-417315Y338269D1*
X-411731Y332685D1*
X-407089Y326297D1*
X-403504Y319260D1*
X-401063Y311749D1*
X-399828Y303949D1*
Y296051D1*
X-401063Y288251D1*
X-403504Y280740D1*
X-407089Y273703D1*
X-411731Y267315D1*
X-417315Y261731D1*
X-423703Y257089D1*
X-430740Y253504D1*
X-438251Y251063D1*
X-444442Y250018D1*
X-438251Y248937D1*
X-430740Y246496D1*
X-423703Y242911D1*
X-417315Y238269D1*
X-411731Y232685D1*
X-407089Y226297D1*
X-403504Y219260D1*
X-401063Y211749D1*
X-399828Y203949D1*
Y196051D1*
X-401063Y188251D1*
X-403504Y180740D1*
X-407089Y173703D1*
X-411731Y167315D1*
X-417315Y161731D1*
X-423703Y157089D1*
X-430740Y153504D1*
X-438251Y151063D1*
X-444442Y150018D1*
X-438251Y148937D1*
X-430740Y146496D1*
X-423703Y142911D1*
X-417315Y138269D1*
X-411731Y132685D1*
X-407089Y126297D1*
X-403504Y119260D1*
X-401063Y111749D1*
X-399828Y103949D1*
Y96051D1*
X-401063Y88251D1*
X-403504Y80740D1*
X-407089Y73703D1*
X-411731Y67315D1*
X-417315Y61731D1*
X-423703Y57089D1*
X-430740Y53504D1*
X-438251Y51063D1*
X-444442Y50018D1*
X-438251Y48937D1*
X-430740Y46496D1*
X-423703Y42911D1*
X-417315Y38269D1*
X-411731Y32685D1*
X-407089Y26297D1*
X-403504Y19260D1*
X-401063Y11749D1*
X-399828Y3949D1*
Y-3949D1*
X-401063Y-11749D1*
X-403504Y-19260D1*
X-407089Y-26297D1*
X-411731Y-32685D1*
X-417315Y-38269D1*
X-423703Y-42911D1*
X-430740Y-46496D1*
X-438251Y-48937D1*
X-444442Y-49982D1*
X-438251Y-51063D1*
X-430740Y-53504D1*
X-423703Y-57089D1*
X-417315Y-61731D1*
X-411731Y-67315D1*
X-407089Y-73703D1*
X-403504Y-80740D1*
X-401063Y-88251D1*
X-399828Y-96051D1*
Y-103949D1*
X-401063Y-111749D1*
X-403504Y-119260D1*
X-407089Y-126297D1*
X-411731Y-132685D1*
X-417315Y-138269D1*
X-423703Y-142911D1*
X-430740Y-146496D1*
X-438251Y-148937D1*
X-444442Y-149982D1*
X-438251Y-151063D1*
X-430740Y-153504D1*
X-423703Y-157089D1*
X-417315Y-161731D1*
X-411731Y-167315D1*
X-407089Y-173703D1*
X-403504Y-180740D1*
X-401063Y-188251D1*
X-399828Y-196051D1*
Y-203949D1*
X-401063Y-211749D1*
X-403504Y-219260D1*
X-407089Y-226297D1*
X-411731Y-232685D1*
X-417315Y-238269D1*
X-423703Y-242911D1*
X-430740Y-246496D1*
X-438251Y-248937D1*
X-444442Y-249982D1*
X-438251Y-251063D1*
X-430740Y-253504D1*
X-423703Y-257089D1*
X-417315Y-261731D1*
X-411731Y-267315D1*
X-407089Y-273703D1*
X-403504Y-280740D1*
X-401063Y-288251D1*
X-399828Y-296051D1*
Y-303949D1*
X-401063Y-311749D1*
X-403504Y-319260D1*
X-407089Y-326297D1*
X-411731Y-332685D1*
X-417315Y-338269D1*
X-423703Y-342911D1*
X-430740Y-346496D1*
X-438251Y-348937D1*
X-444442Y-349982D1*
X-438251Y-351063D1*
X-430740Y-353504D1*
X-423703Y-357089D1*
X-417315Y-361731D1*
X-411731Y-367315D1*
X-407089Y-373703D1*
X-403504Y-380740D1*
X-401063Y-388251D1*
X-399828Y-396051D1*
Y-403949D1*
X-401063Y-411749D1*
X-403504Y-419260D1*
X-407089Y-426297D1*
X-411731Y-432685D1*
X-417315Y-438269D1*
X-423703Y-442911D1*
X-430740Y-446496D1*
X-438251Y-448937D1*
X-444442Y-449982D1*
X-438251Y-451063D1*
X-430740Y-453504D1*
X-423703Y-457089D1*
X-417315Y-461731D1*
X-411731Y-467315D1*
X-407089Y-473703D1*
X-403504Y-480740D1*
X-401063Y-488251D1*
X-399828Y-496051D1*
Y-503949D1*
X-401063Y-511749D1*
X-403504Y-519260D1*
X-407089Y-526297D1*
X-411731Y-532685D1*
X-417315Y-538269D1*
X-423703Y-542911D1*
X-430740Y-546496D1*
X-438251Y-548937D1*
X-444442Y-549982D1*
X-438251Y-551063D1*
X-430740Y-553504D1*
X-423703Y-557089D1*
X-417315Y-561731D1*
X-411731Y-567315D1*
X-407089Y-573703D1*
X-403504Y-580740D1*
X-401063Y-588251D1*
X-399828Y-596051D1*
Y-603949D1*
X-401063Y-611749D1*
X-403504Y-619260D1*
X-407089Y-626297D1*
X-411731Y-632685D1*
X-417315Y-638269D1*
X-423703Y-642911D1*
X-430740Y-646496D1*
X-438251Y-648937D1*
X-444442Y-649982D1*
X-437429Y-651268D1*
X-430471Y-653615D1*
X-423930Y-656950D1*
X-417944Y-661202D1*
X-412639Y-666280D1*
X-408131Y-672075D1*
X-404513Y-678465D1*
X-401864Y-685312D1*
X-400239Y-692472D1*
X-399672Y-700000D1*
X-400209Y-707323D1*
X-401803Y-714490D1*
X-404425Y-721349D1*
X-408016Y-727753D1*
X-412501Y-733567D1*
X-417785Y-738665D1*
X-423753Y-742942D1*
X-430281Y-746303D1*
X-437228Y-748680D1*
X-444448Y-750021D1*
X-451785Y-750295D1*
X-459084Y-749501D1*
X-466190Y-747652D1*
X-472951Y-744789D1*
X-479224Y-740972D1*
X-484875Y-736285D1*
X-489783Y-730824D1*
X-493845Y-724706D1*
X-496974Y-718064D1*
X-499102Y-711037D1*
X-500186Y-703774D1*
X-500201Y-696432D1*
X-499147Y-689165D1*
X-497047Y-682130D1*
X-493948Y-675474D1*
X-489911Y-669340D1*
X-485025Y-663860D1*
X-479392Y-659148D1*
X-473136Y-655306D1*
X-466386Y-652415D1*
X-459287Y-650537D1*
X-455734Y-650001D1*
X-461749Y-648937D1*
X-469260Y-646496D1*
X-476297Y-642911D1*
X-482685Y-638269D1*
X-488269Y-632685D1*
X-492911Y-626297D1*
X-496496Y-619260D1*
X-498937Y-611749D1*
X-500172Y-603949D1*
Y-596051D1*
X-498937Y-588251D1*
X-496496Y-580740D1*
X-492911Y-573703D1*
X-488269Y-567315D1*
X-482685Y-561731D1*
X-476297Y-557089D1*
X-469260Y-553504D1*
X-461749Y-551063D1*
X-455558Y-550018D1*
X-461749Y-548937D1*
X-469260Y-546496D1*
X-476297Y-542911D1*
X-482685Y-538269D1*
X-488269Y-532685D1*
X-492911Y-526297D1*
X-496496Y-519260D1*
X-498937Y-511749D1*
X-500172Y-503949D1*
Y-496051D1*
X-498937Y-488251D1*
X-496496Y-480740D1*
X-492911Y-473703D1*
X-488269Y-467315D1*
X-482685Y-461731D1*
X-476297Y-457089D1*
X-469260Y-453504D1*
X-461749Y-451063D1*
X-455558Y-450018D1*
X-461749Y-448937D1*
X-469260Y-446496D1*
X-476297Y-442911D1*
X-482685Y-438269D1*
X-488269Y-432685D1*
X-492911Y-426297D1*
X-496496Y-419260D1*
X-498937Y-411749D1*
X-500172Y-403949D1*
Y-396051D1*
X-498937Y-388251D1*
X-496496Y-380740D1*
X-492911Y-373703D1*
X-488269Y-367315D1*
X-482685Y-361731D1*
X-476297Y-357089D1*
X-469260Y-353504D1*
X-461749Y-351063D1*
X-455558Y-350018D1*
X-461749Y-348937D1*
X-469260Y-346496D1*
X-476297Y-342911D1*
X-482685Y-338269D1*
X-488269Y-332685D1*
X-492911Y-326297D1*
X-496496Y-319260D1*
X-498937Y-311749D1*
X-500172Y-303949D1*
Y-296051D1*
X-498937Y-288251D1*
X-496496Y-280740D1*
X-492911Y-273703D1*
X-488269Y-267315D1*
X-482685Y-261731D1*
X-476297Y-257089D1*
X-469260Y-253504D1*
X-461749Y-251063D1*
X-455558Y-250018D1*
X-461749Y-248937D1*
X-469260Y-246496D1*
X-476297Y-242911D1*
X-482685Y-238269D1*
X-488269Y-232685D1*
X-492911Y-226297D1*
X-496496Y-219260D1*
X-498937Y-211749D1*
X-500172Y-203949D1*
Y-196051D1*
X-498937Y-188251D1*
X-496496Y-180740D1*
X-492911Y-173703D1*
X-488269Y-167315D1*
X-482685Y-161731D1*
X-476297Y-157089D1*
X-469260Y-153504D1*
X-461749Y-151063D1*
X-455558Y-150018D1*
X-461749Y-148937D1*
X-469260Y-146496D1*
X-476297Y-142911D1*
X-482685Y-138269D1*
X-488269Y-132685D1*
X-492911Y-126297D1*
X-496496Y-119260D1*
X-498937Y-111749D1*
X-500172Y-103949D1*
Y-96051D1*
X-498937Y-88251D1*
X-496496Y-80740D1*
X-492911Y-73703D1*
X-488269Y-67315D1*
X-482685Y-61731D1*
X-476297Y-57089D1*
X-469260Y-53504D1*
X-461749Y-51063D1*
X-455558Y-50018D1*
X-461749Y-48937D1*
X-469260Y-46496D1*
X-476297Y-42911D1*
X-482685Y-38269D1*
X-488269Y-32685D1*
X-492911Y-26297D1*
X-496496Y-19260D1*
X-498937Y-11749D1*
X-500172Y-3949D1*
Y3949D1*
X-498937Y11749D1*
X-496496Y19260D1*
X-492911Y26297D1*
X-488269Y32685D1*
X-482685Y38269D1*
X-476297Y42911D1*
X-469260Y46496D1*
X-461749Y48937D1*
X-455558Y49982D1*
X-461749Y51063D1*
X-469260Y53504D1*
X-476297Y57089D1*
X-482685Y61731D1*
X-488269Y67315D1*
X-492911Y73703D1*
X-496496Y80740D1*
X-498937Y88251D1*
X-500172Y96051D1*
Y103949D1*
X-498937Y111749D1*
X-496496Y119260D1*
X-492911Y126297D1*
X-488269Y132685D1*
X-482685Y138269D1*
X-476297Y142911D1*
X-469260Y146496D1*
X-461749Y148937D1*
X-455558Y149982D1*
X-461749Y151063D1*
X-469260Y153504D1*
X-476297Y157089D1*
X-482685Y161731D1*
X-488269Y167315D1*
X-492911Y173703D1*
X-496496Y180740D1*
X-498937Y188251D1*
X-500172Y196051D1*
Y203949D1*
X-498937Y211749D1*
X-496496Y219260D1*
X-492911Y226297D1*
X-488269Y232685D1*
X-482685Y238269D1*
X-476297Y242911D1*
X-469260Y246496D1*
X-461749Y248937D1*
X-455558Y249982D1*
X-461749Y251063D1*
X-469260Y253504D1*
X-476297Y257089D1*
X-482685Y261731D1*
X-488269Y267315D1*
X-492911Y273703D1*
X-496496Y280740D1*
X-498937Y288251D1*
X-500172Y296051D1*
Y303949D1*
X-498937Y311749D1*
X-496496Y319260D1*
X-492911Y326297D1*
X-488269Y332685D1*
X-482685Y338269D1*
X-476297Y342911D1*
X-469260Y346496D1*
X-461749Y348937D1*
X-455558Y349982D1*
X-461749Y351063D1*
X-469260Y353504D1*
X-476297Y357089D1*
X-482685Y361731D1*
X-488269Y367315D1*
X-492911Y373703D1*
X-496496Y380740D1*
X-498937Y388251D1*
X-500172Y396051D1*
Y403949D1*
X-498937Y411749D1*
X-496496Y419260D1*
X-492911Y426297D1*
X-488269Y432685D1*
X-482685Y438269D1*
X-476297Y442911D1*
X-469260Y446496D1*
X-461749Y448937D1*
X-455558Y449982D1*
X-461749Y451063D1*
X-469260Y453504D1*
X-476297Y457089D1*
X-482685Y461731D1*
X-488269Y467315D1*
X-492911Y473703D1*
X-496496Y480740D1*
X-498937Y488251D1*
X-500172Y496051D1*
Y503949D1*
X-498937Y511749D1*
X-496496Y519260D1*
X-492911Y526297D1*
X-488269Y532685D1*
X-482685Y538269D1*
X-480491Y539999D1*
X-1162178Y540000D1*
X-1201995Y448282D1*
X-1239159Y332020D1*
X-1265109Y212727D1*
X-1279601Y91508D1*
X-1282505Y-30541D1*
X-1273795Y-152312D1*
X-1253549Y-272705D1*
X-1221950Y-390627D1*
X-1179285Y-505012D1*
X-1125941Y-614824D1*
X-1062400Y-719068D1*
X-991661Y-813562D1*
X-992790Y-802833D1*
X-993429Y-784478D1*
X-992438Y-766138D1*
X-989827Y-747958D1*
X-985613Y-730081D1*
X-979831Y-712648D1*
X-972526Y-695797D1*
X-963757Y-679659D1*
X-953592Y-664361D1*
X-942110Y-650026D1*
X-929403Y-636765D1*
X-915571Y-624682D1*
X-900720Y-613873D1*
X-884972Y-604424D1*
X-868448Y-596407D1*
X-851277Y-589887D1*
X-833596Y-584915D1*
X-815543Y-581529D1*
X-797262Y-579757D1*
X-778896Y-579613D1*
X-760591Y-581097D1*
X-742487Y-584199D1*
X-724731Y-588894D1*
X-707459Y-595143D1*
X-690811Y-602899D1*
X-674916Y-612101D1*
X-659899Y-622675D1*
X-645878Y-634539D1*
X-632965Y-647600D1*
X-621259Y-661753D1*
X-610854Y-676888D1*
X-601833Y-692887D1*
X-594265Y-709622D1*
X-588210Y-726962D1*
X-583717Y-744770D1*
X-580819Y-762907D1*
X-579541Y-781228D1*
X-579678Y-795640D1*
X-581307Y-813934D1*
X-584551Y-832012D1*
X-589385Y-849732D1*
X-595769Y-866953D1*
X-603656Y-883539D1*
X-612982Y-899362D1*
X-623673Y-914297D1*
X-635647Y-928223D1*
X-648808Y-941034D1*
X-663054Y-952629D1*
X-678270Y-962913D1*
X-694339Y-971810D1*
X-711133Y-979245D1*
X-728520Y-985164D1*
X-746362Y-989518D1*
X-764521Y-992273D1*
X-782853Y-993407D1*
X-801213Y-992912D1*
X-813664Y-991594D1*
X-719050Y-1062412D1*
X-614804Y-1125953D1*
X-504992Y-1179295D1*
X-390606Y-1221957D1*
X-272684Y-1253554D1*
X-152290Y-1273798D1*
X-30518Y-1282505D1*
X91529Y-1279600D1*
X212748Y-1265105D1*
X332041Y-1239154D1*
X448327Y-1201980D1*
X560551Y-1153921D1*
X667701Y-1095412D1*
X768803Y-1026983D1*
X811234Y-991948D1*
X799239Y-993043D1*
X780875Y-993364D1*
X762555Y-992054D1*
X744423Y-989125D1*
X726622Y-984601D1*
X709293Y-978517D1*
X692571Y-970920D1*
X676588Y-961871D1*
X661470Y-951441D1*
X647337Y-939711D1*
X634299Y-926776D1*
X622459Y-912735D1*
X611909Y-897699D1*
X602736Y-881787D1*
X595008Y-865126D1*
X588787Y-847845D1*
X584125Y-830080D1*
X581054Y-811971D1*
X579601Y-793663D1*
X579776Y-775297D1*
X581579Y-757018D1*
X584995Y-738972D1*
X589997Y-721301D1*
X596547Y-704142D1*
X604592Y-687630D1*
X614070Y-671898D1*
X624903Y-657067D1*
X637009Y-643255D1*
X650293Y-630570D1*
X664648Y-619113D1*
X679962Y-608974D1*
X696115Y-600232D1*
X712979Y-592957D1*
X730423Y-587205D1*
X748306Y-583021D1*
X766491Y-580441D1*
X784832Y-579482D1*
X803186Y-580152D1*
X821409Y-582448D1*
X839357Y-586349D1*
X856887Y-591827D1*
X873864Y-598836D1*
X890152Y-607324D1*
X905623Y-617222D1*
X920157Y-628451D1*
X933638Y-640927D1*
X945959Y-654546D1*
X957025Y-669205D1*
X966748Y-684787D1*
X975050Y-701171D1*
X981869Y-718224D1*
X987148Y-735816D1*
X990846Y-753806D1*
X992937Y-772054D1*
X993438Y-786457D1*
X992623Y-804806D1*
X991904Y-811260D1*
X1026995Y-768786D1*
X1095424Y-667684D1*
X1153930Y-560534D1*
X1201988Y-448308D1*
X1239159Y-332022D1*
X1265109Y-212728D1*
X1279601Y-91509D1*
X1282505Y30539D1*
X1273795Y152310D1*
X1253549Y272702D1*
X1221987Y390488D1*
X1161975Y540033D1*
X480528Y540000D1*
X485587Y535587D1*
X490715Y529581D1*
X494843Y522848D1*
X497865Y515552D1*
X499707Y507873D1*
X500328Y500000D1*
X499707Y492127D1*
X497865Y484448D1*
X494843Y477152D1*
X490715Y470419D1*
X485587Y464413D1*
X479581Y459285D1*
X472848Y455157D1*
X465552Y452135D1*
X457873Y450293D1*
X455558Y450018D1*
X461749Y448937D1*
X469260Y446496D1*
X476297Y442911D1*
X482685Y438269D1*
X488269Y432685D1*
X492911Y426297D1*
X496496Y419260D1*
X498937Y411749D1*
X500172Y403949D1*
Y396051D1*
X498937Y388251D1*
X496496Y380740D1*
X492911Y373703D1*
X488269Y367315D1*
X482685Y361731D1*
X476297Y357089D1*
X469260Y353504D1*
X461749Y351063D1*
X455558Y350018D1*
X461749Y348937D1*
X469260Y346496D1*
X476297Y342911D1*
X482685Y338269D1*
X488269Y332685D1*
X492911Y326297D1*
X496496Y319260D1*
X498937Y311749D1*
X500172Y303949D1*
Y296051D1*
X498937Y288251D1*
X496496Y280740D1*
X492911Y273703D1*
X488269Y267315D1*
X482685Y261731D1*
X476297Y257089D1*
X469260Y253504D1*
X461749Y251063D1*
X455558Y250018D1*
X462571Y248732D1*
X469529Y246385D1*
X476070Y243050D1*
X482056Y238798D1*
X487361Y233720D1*
X491869Y227925D1*
X495487Y221535D1*
X498136Y214688D1*
X499761Y207528D1*
X500328Y200000D1*
X499791Y192677D1*
X498197Y185510D1*
X495575Y178651D1*
X491984Y172247D1*
X487499Y166433D1*
X482215Y161335D1*
X476247Y157058D1*
X469719Y153697D1*
X462772Y151320D1*
X455717Y150001D1*
X462571Y148732D1*
X469529Y146385D1*
X476070Y143050D1*
X482056Y138798D1*
X487361Y133720D1*
X491869Y127925D1*
X495487Y121535D1*
X498136Y114688D1*
X499761Y107528D1*
X500328Y100000D1*
X499791Y92677D1*
X498197Y85510D1*
X495575Y78651D1*
X491984Y72247D1*
X487499Y66433D1*
X482215Y61335D1*
X476247Y57058D1*
X469719Y53697D1*
X462772Y51320D1*
X455717Y50001D1*
X461749Y48937D1*
X469260Y46496D1*
X476297Y42911D1*
X482685Y38269D1*
X488269Y32685D1*
X492911Y26297D1*
X496496Y19260D1*
X498937Y11749D1*
X500172Y3949D1*
Y-3949D1*
X498937Y-11749D1*
X496496Y-19260D1*
X492911Y-26297D1*
X488269Y-32685D1*
X482685Y-38269D1*
X476297Y-42911D1*
X469260Y-46496D1*
X461749Y-48937D1*
X455558Y-49982D1*
X461749Y-51063D1*
X469260Y-53504D1*
X476297Y-57089D1*
X482685Y-61731D1*
X488269Y-67315D1*
X492911Y-73703D1*
X496496Y-80740D1*
X498937Y-88251D1*
X500172Y-96051D1*
Y-103949D1*
X498937Y-111749D1*
X496496Y-119260D1*
X492911Y-126297D1*
X488269Y-132685D1*
X482685Y-138269D1*
X476297Y-142911D1*
X469260Y-146496D1*
X461749Y-148937D1*
X455558Y-149982D1*
X461749Y-151063D1*
X469260Y-153504D1*
X476297Y-157089D1*
X482685Y-161731D1*
X488269Y-167315D1*
X492911Y-173703D1*
X496496Y-180740D1*
X498937Y-188251D1*
X500172Y-196051D1*
Y-203949D1*
X498937Y-211749D1*
X496496Y-219260D1*
X492911Y-226297D1*
X488269Y-232685D1*
X482685Y-238269D1*
X476297Y-242911D1*
X469260Y-246496D1*
X461749Y-248937D1*
X455558Y-249982D1*
X461749Y-251063D1*
X469260Y-253504D1*
X476297Y-257089D1*
X482685Y-261731D1*
X488269Y-267315D1*
X492911Y-273703D1*
X496496Y-280740D1*
X498937Y-288251D1*
X500172Y-296051D1*
Y-303949D1*
X498937Y-311749D1*
X496496Y-319260D1*
X492911Y-326297D1*
X488269Y-332685D1*
X482685Y-338269D1*
X476297Y-342911D1*
X469260Y-346496D1*
X461749Y-348937D1*
X455558Y-349982D1*
X461749Y-351063D1*
X469260Y-353504D1*
X476297Y-357089D1*
X482685Y-361731D1*
X488269Y-367315D1*
X492911Y-373703D1*
X496496Y-380740D1*
X498937Y-388251D1*
X500172Y-396051D1*
Y-403949D1*
X498937Y-411749D1*
X496496Y-419260D1*
X492911Y-426297D1*
X488269Y-432685D1*
X482685Y-438269D1*
X476297Y-442911D1*
X469260Y-446496D1*
X461749Y-448937D1*
X455558Y-449982D1*
X461749Y-451063D1*
X469260Y-453504D1*
X476297Y-457089D1*
X482685Y-461731D1*
X488269Y-467315D1*
X492911Y-473703D1*
X496496Y-480740D1*
X498937Y-488251D1*
X500172Y-496051D1*
Y-503949D1*
X498937Y-511749D1*
X496496Y-519260D1*
X492911Y-526297D1*
X488269Y-532685D1*
X482685Y-538269D1*
X476297Y-542911D1*
X469260Y-546496D1*
X461749Y-548937D1*
X455558Y-549982D1*
X461749Y-551063D1*
X469260Y-553504D1*
X476297Y-557089D1*
X482685Y-561731D1*
X488269Y-567315D1*
X492911Y-573703D1*
X496496Y-580740D1*
X498937Y-588251D1*
X500172Y-596051D1*
Y-603949D1*
X498937Y-611749D1*
X496496Y-619260D1*
X492911Y-626297D1*
X488269Y-632685D1*
X482685Y-638269D1*
X476297Y-642911D1*
X469260Y-646496D1*
X461749Y-648937D1*
X455558Y-649982D1*
X461749Y-651063D1*
X469260Y-653504D1*
X476297Y-657089D1*
X482685Y-661731D1*
X488269Y-667315D1*
X492911Y-673703D1*
X496496Y-680740D1*
X498937Y-688251D1*
X500172Y-696051D1*
Y-703949D1*
X498937Y-711749D1*
X496496Y-719260D1*
X492911Y-726297D1*
X488269Y-732685D1*
X482685Y-738269D1*
X476297Y-742911D1*
X469260Y-746496D1*
X461749Y-748937D1*
X455558Y-749982D1*
X461749Y-751063D1*
X469260Y-753504D1*
X476297Y-757089D1*
X482685Y-761731D1*
X488269Y-767315D1*
X492911Y-773703D1*
X496496Y-780740D1*
X498937Y-788251D1*
X500172Y-796051D1*
Y-803949D1*
X498937Y-811749D1*
X496496Y-819260D1*
X492911Y-826297D1*
X488269Y-832685D1*
X482685Y-838269D1*
X476297Y-842911D1*
X469260Y-846496D1*
X461749Y-848937D1*
X455558Y-849982D1*
X462571Y-851268D1*
X469529Y-853615D1*
X476070Y-856950D1*
X482056Y-861202D1*
X487361Y-866280D1*
X491869Y-872075D1*
X495487Y-878465D1*
X498136Y-885312D1*
X499761Y-892472D1*
X500328Y-900000D1*
X499791Y-907323D1*
X498197Y-914490D1*
X495575Y-921349D1*
X491984Y-927753D1*
X487499Y-933567D1*
X482215Y-938665D1*
X476247Y-942942D1*
X469719Y-946303D1*
X462772Y-948680D1*
X455717Y-949999D1*
X461749Y-951063D1*
X469260Y-953504D1*
X476297Y-957089D1*
X482685Y-961731D1*
X488269Y-967315D1*
X492911Y-973703D1*
X496496Y-980740D1*
X498937Y-988251D1*
X500172Y-996051D1*
Y-1003949D1*
X498937Y-1011749D1*
X496496Y-1019260D1*
X492911Y-1026297D1*
X488269Y-1032685D1*
X482685Y-1038269D1*
X476297Y-1042911D1*
X469260Y-1046496D1*
X461749Y-1048937D1*
X455558Y-1049982D1*
X461749Y-1051063D1*
X469260Y-1053504D1*
X476297Y-1057089D1*
X482685Y-1061731D1*
X488269Y-1067315D1*
X492911Y-1073703D1*
X496496Y-1080740D1*
X498937Y-1088251D1*
X500172Y-1096051D1*
Y-1103949D1*
X498937Y-1111749D1*
X496496Y-1119260D1*
X492911Y-1126297D1*
X488269Y-1132685D1*
X482685Y-1138269D1*
X476297Y-1142911D1*
X469260Y-1146496D1*
X461749Y-1148937D1*
X453949Y-1150172D1*
X446051D1*
X438251Y-1148937D1*
X430740Y-1146496D1*
X423703Y-1142911D1*
X417315Y-1138269D1*
X411731Y-1132685D1*
X407089Y-1126297D1*
X403504Y-1119260D1*
X401063Y-1111749D1*
X399828Y-1103949D1*
Y-1096051D1*
X401063Y-1088251D1*
X403504Y-1080740D1*
X407089Y-1073703D1*
X411731Y-1067315D1*
X417315Y-1061731D1*
X423703Y-1057089D1*
X430740Y-1053504D1*
X438251Y-1051063D1*
X444442Y-1050018D1*
X438251Y-1048937D1*
X430740Y-1046496D1*
X423703Y-1042911D1*
X417315Y-1038269D1*
X411731Y-1032685D1*
X407089Y-1026297D1*
X403504Y-1019260D1*
X401063Y-1011749D1*
X399828Y-1003949D1*
Y-996051D1*
X401063Y-988251D1*
X403504Y-980740D1*
X407089Y-973703D1*
X411731Y-967315D1*
X417315Y-961731D1*
X423703Y-957089D1*
X430740Y-953504D1*
X438251Y-951063D1*
X444442Y-950018D1*
X437328Y-948706D1*
X430377Y-946344D1*
X423843Y-942996D1*
X417865Y-938732D1*
X412571Y-933643D1*
X408073Y-927840D1*
X404469Y-921442D1*
X401833Y-914589D1*
X400223Y-907425D1*
X399672Y-900104D1*
X400193Y-892780D1*
X401774Y-885609D1*
X404381Y-878745D1*
X407959Y-872333D1*
X412433Y-866510D1*
X417705Y-861400D1*
X423665Y-857113D1*
X430186Y-853738D1*
X437129Y-851346D1*
X444266Y-850001D1*
X438251Y-848937D1*
X430740Y-846496D1*
X423703Y-842911D1*
X417315Y-838269D1*
X411731Y-832685D1*
X407089Y-826297D1*
X403504Y-819260D1*
X401063Y-811749D1*
X399828Y-803949D1*
Y-796051D1*
X401063Y-788251D1*
X403504Y-780740D1*
X407089Y-773703D1*
X411731Y-767315D1*
X417315Y-761731D1*
X423703Y-757089D1*
X430740Y-753504D1*
X438251Y-751063D1*
X444442Y-750018D1*
X438251Y-748937D1*
X430740Y-746496D1*
X423703Y-742911D1*
X417315Y-738269D1*
X411731Y-732685D1*
X407089Y-726297D1*
X403504Y-719260D1*
X401063Y-711749D1*
X399828Y-703949D1*
Y-696051D1*
X401063Y-688251D1*
X403504Y-680740D1*
X407089Y-673703D1*
X411731Y-667315D1*
X417315Y-661731D1*
X423703Y-657089D1*
X430740Y-653504D1*
X438251Y-651063D1*
X444442Y-650018D1*
X438251Y-648937D1*
X430740Y-646496D1*
X423703Y-642911D1*
X417315Y-638269D1*
X411731Y-632685D1*
X407089Y-626297D1*
X403504Y-619260D1*
X401063Y-611749D1*
X399828Y-603949D1*
Y-596051D1*
X401063Y-588251D1*
X403504Y-580740D1*
X407089Y-573703D1*
X411731Y-567315D1*
X417315Y-561731D1*
X423703Y-557089D1*
X430740Y-553504D1*
X438251Y-551063D1*
X444442Y-550018D1*
X438251Y-548937D1*
X430740Y-546496D1*
X423703Y-542911D1*
X417315Y-538269D1*
X411731Y-532685D1*
X407089Y-526297D1*
X403504Y-519260D1*
X401063Y-511749D1*
X399828Y-503949D1*
Y-496051D1*
X401063Y-488251D1*
X403504Y-480740D1*
X407089Y-473703D1*
X411731Y-467315D1*
X417315Y-461731D1*
X423703Y-457089D1*
X430740Y-453504D1*
X438251Y-451063D1*
X444442Y-450018D1*
X438251Y-448937D1*
X430740Y-446496D1*
X423703Y-442911D1*
X417315Y-438269D1*
X411731Y-432685D1*
X407089Y-426297D1*
X403504Y-419260D1*
X401063Y-411749D1*
X399828Y-403949D1*
Y-396051D1*
X401063Y-388251D1*
X403504Y-380740D1*
X407089Y-373703D1*
X411731Y-367315D1*
X417315Y-361731D1*
X423703Y-357089D1*
X430740Y-353504D1*
X438251Y-351063D1*
X444442Y-350018D1*
X438251Y-348937D1*
X430740Y-346496D1*
X423703Y-342911D1*
X417315Y-338269D1*
X411731Y-332685D1*
X407089Y-326297D1*
X403504Y-319260D1*
X401063Y-311749D1*
X399828Y-303949D1*
Y-296051D1*
X401063Y-288251D1*
X403504Y-280740D1*
X407089Y-273703D1*
X411731Y-267315D1*
X417315Y-261731D1*
X423703Y-257089D1*
X430740Y-253504D1*
X438251Y-251063D1*
X444442Y-250018D1*
X438251Y-248937D1*
X430740Y-246496D1*
X423703Y-242911D1*
X417315Y-238269D1*
X411731Y-232685D1*
X407089Y-226297D1*
X403504Y-219260D1*
X401063Y-211749D1*
X399828Y-203949D1*
Y-196051D1*
X401063Y-188251D1*
X403504Y-180740D1*
X407089Y-173703D1*
X411731Y-167315D1*
X417315Y-161731D1*
X423703Y-157089D1*
X430740Y-153504D1*
X438251Y-151063D1*
X444442Y-150018D1*
X438251Y-148937D1*
X430740Y-146496D1*
X423703Y-142911D1*
X417315Y-138269D1*
X411731Y-132685D1*
X407089Y-126297D1*
X403504Y-119260D1*
X401063Y-111749D1*
X399828Y-103949D1*
Y-96051D1*
X401063Y-88251D1*
X403504Y-80740D1*
X407089Y-73703D1*
X411731Y-67315D1*
X417315Y-61731D1*
X423703Y-57089D1*
X430740Y-53504D1*
X438251Y-51063D1*
X444442Y-50018D1*
X438251Y-48937D1*
X430740Y-46496D1*
X423703Y-42911D1*
X417315Y-38269D1*
X411731Y-32685D1*
X407089Y-26297D1*
X403504Y-19260D1*
X401063Y-11749D1*
X399828Y-3949D1*
Y3949D1*
X401063Y11749D1*
X403504Y19260D1*
X407089Y26297D1*
X411731Y32685D1*
X417315Y38269D1*
X423703Y42911D1*
X430740Y46496D1*
X438251Y48937D1*
X444442Y49982D1*
X437328Y51294D1*
X430377Y53656D1*
X423843Y57004D1*
X417865Y61268D1*
X412571Y66357D1*
X408073Y72160D1*
X404469Y78558D1*
X401833Y85411D1*
X400223Y92575D1*
X399672Y99896D1*
X400193Y107220D1*
X401774Y114391D1*
X404381Y121255D1*
X407959Y127667D1*
X412433Y133490D1*
X417705Y138600D1*
X423665Y142887D1*
X430186Y146262D1*
X437129Y148654D1*
X444266Y149999D1*
X437328Y151294D1*
X430377Y153656D1*
X423843Y157004D1*
X417865Y161268D1*
X412571Y166357D1*
X408073Y172160D1*
X404469Y178558D1*
X401833Y185411D1*
X400223Y192575D1*
X399672Y199896D1*
X400193Y207220D1*
X401774Y214391D1*
X404381Y221255D1*
X407959Y227667D1*
X412433Y233490D1*
X417705Y238600D1*
X423665Y242887D1*
X430186Y246262D1*
X437129Y248654D1*
X444266Y249999D1*
X438251Y251063D1*
X430740Y253504D1*
X423703Y257089D1*
X417315Y261731D1*
X411731Y267315D1*
X407089Y273703D1*
X403504Y280740D1*
X401063Y288251D1*
X399828Y296051D1*
Y303949D1*
X401063Y311749D1*
X403504Y319260D1*
X407089Y326297D1*
X411731Y332685D1*
X417315Y338269D1*
X423703Y342911D1*
X430740Y346496D1*
X438251Y348937D1*
X444442Y349982D1*
X438251Y351063D1*
X430740Y353504D1*
X423703Y357089D1*
X417315Y361731D1*
X411731Y367315D1*
X407089Y373703D1*
X403504Y380740D1*
X401063Y388251D1*
X399828Y396051D1*
Y403949D1*
X401063Y411749D1*
X403504Y419260D1*
X407089Y426297D1*
X411731Y432685D1*
X417315Y438269D1*
X423703Y442911D1*
X430740Y446496D1*
X438251Y448937D1*
X444442Y449982D1*
X438251Y451063D1*
X430740Y453504D1*
X423703Y457089D1*
X417315Y461731D1*
X411731Y467315D1*
X407089Y473703D1*
X403504Y480740D1*
X401063Y488251D1*
X399828Y496051D1*
Y503949D1*
X401063Y511749D1*
X403504Y519260D1*
X407089Y526297D1*
X411731Y532685D1*
X417315Y538269D1*
X419509Y539999D1*
X-419449Y540000D1*
X-414413Y535587D1*
X-409285Y529581D1*
X-405157Y522848D1*
X-402135Y515552D1*
X-400293Y507873D1*
X-399672Y500000D1*
X-399828Y496051D1*
X364346Y-9185D2*
X363420Y-27533D1*
X361571Y-45810D1*
X358804Y-63971D1*
X355125Y-81970D1*
X350543Y-99760D1*
X345071Y-117297D1*
X338722Y-134535D1*
X331513Y-151433D1*
X323461Y-167945D1*
X314588Y-184030D1*
X304915Y-199648D1*
X294467Y-214760D1*
X283272Y-229324D1*
X271356Y-243307D1*
X258752Y-256672D1*
X245490Y-269383D1*
X231604Y-281411D1*
X217129Y-292724D1*
X202104Y-303293D1*
X186564Y-313092D1*
X170550Y-322094D1*
X154104Y-330280D1*
X137265Y-337625D1*
X120079Y-344113D1*
X102587Y-349727D1*
X84833Y-354451D1*
X66865Y-358276D1*
X48727Y-361190D1*
X30465Y-363186D1*
X12126Y-364260D1*
X-6244Y-364408D1*
X-24598Y-363631D1*
X-42891Y-361929D1*
X-61073Y-359308D1*
X-79101Y-355774D1*
X-96928Y-351337D1*
X-114508Y-346007D1*
X-131798Y-339797D1*
X-148752Y-332724D1*
X-165329Y-324806D1*
X-181486Y-316063D1*
X-197181Y-306516D1*
X-212375Y-296190D1*
X-227030Y-285113D1*
X-241109Y-273311D1*
X-254575Y-260815D1*
X-267394Y-247656D1*
X-279533Y-233867D1*
X-290962Y-219484D1*
X-301652Y-204545D1*
X-311576Y-189085D1*
X-320707Y-173144D1*
X-329025Y-156764D1*
X-336507Y-139986D1*
X-343133Y-122852D1*
X-348887Y-105406D1*
X-353755Y-87692D1*
X-357724Y-69755D1*
X-360785Y-51640D1*
X-362929Y-33395D1*
X-364151Y-15066D1*
X-364448Y3303D1*
X-363818Y21663D1*
X-362264Y39969D1*
X-359790Y58171D1*
X-356402Y76227D1*
X-352108Y94089D1*
X-346920Y111711D1*
X-340849Y129051D1*
X-333913Y146062D1*
X-326130Y162702D1*
X-317517Y178929D1*
X-308097Y194701D1*
X-297895Y209978D1*
X-286936Y224722D1*
X-275248Y238895D1*
X-262861Y252461D1*
X-249806Y265386D1*
X-236115Y277636D1*
X-221825Y289181D1*
X-206972Y299991D1*
X-191593Y310039D1*
X-175727Y319301D1*
X-159415Y327749D1*
X-142697Y335365D1*
X-125617Y342130D1*
X-108218Y348025D1*
X-90543Y353035D1*
X-72640Y357150D1*
X-54551Y360357D1*
X-36324Y362647D1*
X-18004Y364017D1*
X361Y364462D1*
X18726Y363980D1*
X37043Y362575D1*
X55265Y360248D1*
X73348Y357005D1*
X91244Y352856D1*
X108908Y347810D1*
X126295Y341881D1*
X143362Y335081D1*
X160064Y327432D1*
X176360Y318951D1*
X192207Y309659D1*
X207567Y299580D1*
X222399Y288740D1*
X236665Y277168D1*
X250332Y264890D1*
X263361Y251940D1*
X275722Y238349D1*
X287382Y224152D1*
X298311Y209387D1*
X308483Y194089D1*
X317871Y178299D1*
X326451Y162055D1*
X334203Y145399D1*
X341105Y128374D1*
X347140Y111024D1*
X352294Y93391D1*
X356552Y75520D1*
X359904Y57458D1*
X362343Y39249D1*
X363860Y20941D1*
X364462Y0D1*
X364346Y-9185D1*
X-995079Y468045D2*
X-895735D1*
Y442961D1*
X-891262Y449021D1*
X-885241Y455042D1*
X-878353Y460047D1*
X-870766Y463913D1*
X-862668Y466545D1*
X-854257Y467877D1*
X-845743D1*
X-837332Y466545D1*
X-829234Y463913D1*
X-821647Y460047D1*
X-814759Y455042D1*
X-808738Y449021D1*
X-803732Y442133D1*
X-800012Y434864D1*
X-796268Y442133D1*
X-791262Y449021D1*
X-785241Y455042D1*
X-778353Y460047D1*
X-770766Y463913D1*
X-762668Y466545D1*
X-754257Y467877D1*
X-745743D1*
X-737332Y466545D1*
X-729234Y463913D1*
X-721647Y460047D1*
X-714759Y455042D1*
X-708738Y449021D1*
X-703732Y442133D1*
X-700012Y434864D1*
X-696268Y442133D1*
X-691262Y449021D1*
X-685241Y455042D1*
X-678353Y460047D1*
X-670766Y463913D1*
X-662668Y466545D1*
X-654257Y467877D1*
X-645743D1*
X-637332Y466545D1*
X-629234Y463913D1*
X-621647Y460047D1*
X-614759Y455042D1*
X-608738Y449021D1*
X-603732Y442133D1*
X-599866Y434546D1*
X-597235Y426448D1*
X-595903Y418037D1*
X-595735Y395407D1*
X-595903Y381963D1*
X-597235Y373552D1*
X-599866Y365454D1*
X-603732Y357867D1*
X-608738Y350979D1*
X-614759Y344958D1*
X-621647Y339953D1*
X-629234Y336087D1*
X-637332Y333455D1*
X-645743Y332123D1*
X-654257D1*
X-662668Y333455D1*
X-670766Y336087D1*
X-678353Y339953D1*
X-685241Y344958D1*
X-691262Y350979D1*
X-696268Y357867D1*
X-699988Y365136D1*
X-703732Y357867D1*
X-708738Y350979D1*
X-714759Y344958D1*
X-721647Y339953D1*
X-729234Y336087D1*
X-737332Y333455D1*
X-745743Y332123D1*
X-754257D1*
X-762668Y333455D1*
X-770766Y336087D1*
X-778353Y339953D1*
X-785241Y344958D1*
X-791262Y350979D1*
X-796268Y357867D1*
X-799988Y365136D1*
X-803732Y357867D1*
X-808738Y350979D1*
X-814759Y344958D1*
X-821647Y339953D1*
X-829234Y336087D1*
X-837332Y333455D1*
X-845743Y332123D1*
X-854257D1*
X-862668Y333455D1*
X-870766Y336087D1*
X-878353Y339953D1*
X-885241Y344958D1*
X-891262Y350979D1*
X-895741Y357079D1*
X-895735Y331955D1*
X-1004265D1*
Y468045D1*
X-995079D1*
X-485562Y-664438D2*
D14*
X-414438Y-735562D1*
Y-664438D2*
X-485562Y-735562D1*
X414438Y-864438D2*
X485562Y-935562D1*
Y-864438D2*
X414438Y-935562D1*
Y135562D2*
X485562Y64438D1*
Y135562D2*
X414438Y64438D1*
Y235562D2*
X485562Y164438D1*
Y235562D2*
X414438Y164438D1*
D16*
X-450000Y800000D3*
Y700000D3*
Y600000D3*
Y500000D3*
Y400000D3*
Y300000D3*
Y200000D3*
Y100000D3*
Y0D3*
Y-100000D3*
Y-200000D3*
Y-300000D3*
Y-400000D3*
Y-500000D3*
Y-600000D3*
Y-700000D3*
X450000Y-1100000D3*
Y-1000000D3*
Y-900000D3*
Y-800000D3*
Y-700000D3*
Y-600000D3*
Y-500000D3*
Y-400000D3*
Y-300000D3*
Y-200000D3*
Y-100000D3*
Y0D3*
Y100000D3*
Y200000D3*
Y300000D3*
Y400000D3*
Y500000D3*
Y600000D3*
Y700000D3*
D17*
Y800000D3*
D20*
X-950000Y400000D3*
D21*
X-850000D3*
X-750000D3*
X-650000D3*
M02*
