G04 DipTrace 3.2.0.1*
G04 ddssl.GTL*
%MOIN*%
G04 #@! TF.FileFunction,Copper,L1,Top*
G04 #@! TF.Part,Single*
G04 #@! TA.AperFunction,Conductor*
%ADD13C,0.026*%
G04 #@! TA.AperFunction,CopperBalancing*
%ADD14C,0.012992*%
%ADD15C,0.02*%
G04 #@! TA.AperFunction,ComponentPad*
%ADD16C,0.059055*%
%ADD17R,0.059055X0.059055*%
%ADD18R,0.102362X0.03937*%
%ADD19R,0.062992X0.106299*%
G04 #@! TA.AperFunction,ComponentPad*
%ADD20R,0.066929X0.094488*%
%ADD21O,0.066929X0.094488*%
%ADD22R,0.120079X0.059843*%
%ADD24R,0.025591X0.041339*%
%ADD25R,0.070866X0.062992*%
%ADD26R,0.059055X0.051181*%
%ADD29R,0.055118X0.062992*%
G04 #@! TA.AperFunction,ViaPad*
%ADD30C,0.04*%
%FSLAX26Y26*%
G04*
G70*
G90*
G75*
G01*
G04 Top*
%LPD*%
X-1175000Y-100000D2*
D13*
Y462500D1*
X-1137500Y500000D1*
X-1075000D1*
Y497736D1*
X-1125000Y-309843D2*
Y-250000D1*
X-1175000Y-200000D1*
Y-100000D1*
X-1075000Y500000D2*
X-675000D1*
X-650000Y475000D1*
Y400000D1*
X-644094Y-450000D2*
X-525000D1*
X-500000Y-475000D1*
Y-550000D1*
X-450000Y-600000D1*
X-900000Y-450000D2*
X-987500D1*
X-1037500Y-400000D1*
X-1125000D1*
X575000Y-550197D2*
D14*
Y-425000D1*
X550000Y-400000D1*
X450000D1*
X697835Y-150000D2*
Y-464961D1*
X575000Y-625000D2*
X650000D1*
X700000Y-575000D1*
Y-464961D1*
X697835D1*
X450000Y-800000D2*
X525000D1*
X575000Y-750000D1*
Y-625000D1*
X-700000Y100000D2*
Y50000D1*
X-650000Y0D1*
X-450000D1*
X-350000Y200197D2*
Y100000D1*
X-450000Y0D1*
X-662598Y190551D2*
D13*
Y187500D1*
X-712500D1*
X-750000Y225000D1*
Y400000D1*
X-900000Y100000D2*
D14*
Y0D1*
X-800000Y-100000D1*
X-450000D1*
X-250000Y-300000D1*
Y-375197D1*
X-862598Y190551D2*
D13*
Y312402D1*
X-850000Y325000D1*
Y400000D1*
X-450000Y-200000D2*
D14*
X-500000Y-150000D1*
X-850000D1*
X-1025000Y25000D1*
X-1075000D1*
X-1100000Y50000D1*
Y100000D1*
X-450000Y-200000D2*
X-350000Y-300000D1*
Y-375197D1*
X-1062598Y190551D2*
D13*
Y187500D1*
X-987500D1*
X-950000Y225000D1*
Y400000D1*
D30*
X-800000Y-350000D3*
X-750000Y-250000D3*
X-550000D3*
X-1000000Y-100000D3*
X850000Y-300000D3*
X-1125000Y300000D3*
X-975000Y100000D3*
Y50000D3*
X-825000D3*
X-625000D3*
X-775000Y100000D3*
X-575000D3*
X-1100000Y600000D3*
X0D3*
X1150000D3*
X-1000000Y-350000D3*
X0Y-1300000D3*
X-1300000Y0D3*
X-1050000Y-200000D3*
X1300000Y0D3*
X-400000Y-50000D3*
X-1183404Y624781D2*
D15*
X-917698D1*
X-655225D2*
X-495808D1*
X-404179D2*
X404203D1*
X495797D2*
X655213D1*
X917687D2*
X1182137D1*
X-1193308Y604912D2*
X-887879D1*
X-685044D2*
X-502088D1*
X-397899D2*
X397924D1*
X502076D2*
X685033D1*
X887867D2*
X1192041D1*
X-1203212Y585043D2*
X-836134D1*
X-736753D2*
X-500042D1*
X-399944D2*
X399933D1*
X500067D2*
X736778D1*
X836158D2*
X1201909D1*
X-1213080Y565175D2*
X-488344D1*
X-411679D2*
X411667D1*
X488333D2*
X1211813D1*
X-1222984Y545306D2*
X-1133219D1*
X-1016758D2*
X-473919D1*
X-426068D2*
X426093D1*
X473907D2*
X1221717D1*
X-1231417Y525437D2*
X-1161747D1*
X-650739D2*
X-495413D1*
X-404574D2*
X404562D1*
X495438D2*
X1230114D1*
X-1239096Y505568D2*
X-1181734D1*
X-630752D2*
X-502016D1*
X-397971D2*
X397995D1*
X502005D2*
X1237829D1*
X-1246811Y485699D2*
X-1201578D1*
X-615931D2*
X-500258D1*
X-399729D2*
X399754D1*
X500246D2*
X1245508D1*
X-1254491Y465831D2*
X-1210621D1*
X-1016758D2*
X-1006275D1*
X-614209D2*
X-488954D1*
X-411033D2*
X411057D1*
X488943D2*
X1253223D1*
X-1262206Y445962D2*
X-1210800D1*
X-1016758D2*
X-1006275D1*
X-604305D2*
X-472519D1*
X-427504D2*
X427492D1*
X472508D2*
X1260902D1*
X-1269885Y426093D2*
X-1210800D1*
X-1016758D2*
X-1006275D1*
X-595154D2*
X-495019D1*
X-404968D2*
X404957D1*
X495043D2*
X1268617D1*
X-1275842Y406224D2*
X-1210800D1*
X-1016758D2*
X-1006275D1*
X-593719D2*
X-501944D1*
X-398043D2*
X398067D1*
X501933D2*
X1274538D1*
X-1281475Y386356D2*
X-1210800D1*
X-1016758D2*
X-1006275D1*
X-593719D2*
X-500437D1*
X-399550D2*
X399574D1*
X500426D2*
X1280208D1*
X-1287145Y366487D2*
X-1210800D1*
X-1016758D2*
X-1006275D1*
X-597451D2*
X-489564D1*
X-410459D2*
X410447D1*
X489553D2*
X1285842D1*
X-1292779Y346618D2*
X-1210800D1*
X-1016758D2*
X-1006275D1*
X-810890D2*
X-789089D1*
X-710917D2*
X-689116D1*
X-610908D2*
X-470976D1*
X-429047D2*
X-114646D1*
X114635D2*
X429035D1*
X470965D2*
X1291512D1*
X-1298449Y326749D2*
X-1210800D1*
X-1139195D2*
X-985807D1*
X-914201D2*
X-895199D1*
X-814192D2*
X-785788D1*
X-714182D2*
X-494624D1*
X-405363D2*
X-163449D1*
X163437D2*
X405387D1*
X494612D2*
X1297181D1*
X-1304082Y306881D2*
X-1210800D1*
X-1139195D2*
X-985807D1*
X-914201D2*
X-898393D1*
X-819467D2*
X-785788D1*
X-714182D2*
X-501872D1*
X-297675D2*
X-198615D1*
X198604D2*
X398139D1*
X501861D2*
X1302815D1*
X-1308101Y287012D2*
X-1210800D1*
X-1139195D2*
X-985807D1*
X-914201D2*
X-898393D1*
X-826787D2*
X-785788D1*
X-714182D2*
X-500616D1*
X-297675D2*
X-226641D1*
X226629D2*
X399395D1*
X500605D2*
X1306798D1*
X-1311798Y267143D2*
X-1210800D1*
X-1139195D2*
X-985807D1*
X-914201D2*
X-898393D1*
X-826787D2*
X-785788D1*
X-714182D2*
X-490138D1*
X-297675D2*
X-249930D1*
X249918D2*
X409873D1*
X490127D2*
X1310530D1*
X-1315530Y247274D2*
X-1210800D1*
X-1139195D2*
X-985807D1*
X-914201D2*
X-898393D1*
X-826787D2*
X-785788D1*
X-714182D2*
X-469254D1*
X-430733D2*
X-402330D1*
X-297675D2*
X-269738D1*
X269762D2*
X430722D1*
X469278D2*
X1314226D1*
X-1319226Y227406D2*
X-1210800D1*
X-1139195D2*
X-1098196D1*
X-1027021D2*
X-997397D1*
X-914201D2*
X-898393D1*
X-826787D2*
X-785788D1*
X-627020D2*
X-494229D1*
X-297675D2*
X-286839D1*
X286807D2*
X405782D1*
X494218D2*
X1317958D1*
X-1322958Y207537D2*
X-1210800D1*
X-1139195D2*
X-1098196D1*
X-919045D2*
X-898393D1*
X-826787D2*
X-780944D1*
X-627020D2*
X-501765D1*
X301591D2*
X398246D1*
X501753D2*
X1321654D1*
X-1326654Y187668D2*
X-1210800D1*
X-1139195D2*
X-1098411D1*
X-937525D2*
X-898285D1*
X-826930D2*
X-762463D1*
X-626804D2*
X-500796D1*
X314438D2*
X399215D1*
X500784D2*
X1325386D1*
X-1329022Y167799D2*
X-1210800D1*
X-1139195D2*
X-1098196D1*
X-957405D2*
X-898177D1*
X-827002D2*
X-742584D1*
X-627020D2*
X-490677D1*
X325526D2*
X409335D1*
X490665D2*
X1327755D1*
X-1330852Y147930D2*
X-1210800D1*
X-1139195D2*
X-467352D1*
X-432635D2*
X-379292D1*
X335107D2*
X432659D1*
X467340D2*
X1329585D1*
X-1332718Y128062D2*
X-1210800D1*
X-989593D2*
X-935605D1*
X-789611D2*
X-735586D1*
X-589592D2*
X-493763D1*
X-406224D2*
X-379292D1*
X343217D2*
X406213D1*
X493787D2*
X1331415D1*
X-1334548Y108193D2*
X-1210800D1*
X-989593D2*
X-935605D1*
X-789611D2*
X-735586D1*
X-589592D2*
X-501657D1*
X-398330D2*
X-382414D1*
X350035D2*
X398354D1*
X501646D2*
X1333245D1*
X-1336378Y88324D2*
X-1210800D1*
X-989593D2*
X-935605D1*
X-789611D2*
X-735586D1*
X-589592D2*
X-500939D1*
X355597D2*
X399036D1*
X500964D2*
X1335111D1*
X-1338208Y68455D2*
X-1210800D1*
X-989593D2*
X-935605D1*
X-789611D2*
X-735586D1*
X-589592D2*
X-491215D1*
X359975D2*
X408796D1*
X491203D2*
X1336941D1*
X-1339105Y48587D2*
X-1210800D1*
X-1009258D2*
X-929289D1*
X-870709D2*
X-729271D1*
X-657988D2*
X-465127D1*
X363204D2*
X434884D1*
X465116D2*
X1337838D1*
X-1339105Y28718D2*
X-1210800D1*
X-1139195D2*
X-1119332D1*
X-988122D2*
X-929289D1*
X-870709D2*
X-719331D1*
X-638108D2*
X-493332D1*
X-380675D2*
X-365333D1*
X365322D2*
X406679D1*
X493321D2*
X1337838D1*
X-1339105Y8849D2*
X-1210800D1*
X-1139195D2*
X-1099452D1*
X-968242D2*
X-929289D1*
X-868233D2*
X-699451D1*
X-398473D2*
X-366338D1*
X366362D2*
X398462D1*
X501538D2*
X1337838D1*
X-1339105Y-11020D2*
X-1210800D1*
X-1139195D2*
X-1029585D1*
X-948363D2*
X-926957D1*
X-848389D2*
X-679571D1*
X-398904D2*
X-366302D1*
X366291D2*
X398892D1*
X501107D2*
X1337838D1*
X-1339105Y-30888D2*
X-1229281D1*
X-928519D2*
X-909696D1*
X-828509D2*
X-491717D1*
X-408270D2*
X-365154D1*
X365142D2*
X408258D1*
X491742D2*
X1337838D1*
X-1339105Y-50757D2*
X-1229281D1*
X-1010478D2*
X-989861D1*
X-908639D2*
X-889852D1*
X-808629D2*
X-462400D1*
X-437623D2*
X-362893D1*
X362917D2*
X437611D1*
X462388D2*
X1337838D1*
X-1338603Y-70626D2*
X-1229281D1*
X-1010478D2*
X-969982D1*
X-888759D2*
X-869972D1*
X-788786D2*
X-492866D1*
X-407121D2*
X-359556D1*
X359544D2*
X407146D1*
X492854D2*
X1337336D1*
X-1336773Y-90495D2*
X-1229281D1*
X-1010478D2*
X-950102D1*
X-868915D2*
X-850093D1*
X-398581D2*
X-355034D1*
X355059D2*
X398569D1*
X501430D2*
X1335506D1*
X-1334943Y-110364D2*
X-1229281D1*
X-1010478D2*
X-930222D1*
X-849035D2*
X-830249D1*
X-398760D2*
X-349365D1*
X349353D2*
X398749D1*
X501251D2*
X647462D1*
X748206D2*
X824658D1*
X925366D2*
X1333640D1*
X-1333113Y-130232D2*
X-1229281D1*
X-1010478D2*
X-910378D1*
X-379168D2*
X-342403D1*
X342392D2*
X407756D1*
X492244D2*
X647462D1*
X748206D2*
X824658D1*
X925366D2*
X1331809D1*
X-1331247Y-150101D2*
X-1229281D1*
X-1010478D2*
X-890498D1*
X-359288D2*
X-334114D1*
X334102D2*
X441451D1*
X458567D2*
X647462D1*
X748206D2*
X824658D1*
X925366D2*
X1329979D1*
X-1329417Y-169970D2*
X-1229281D1*
X-1010478D2*
X-870618D1*
X-339444D2*
X-324389D1*
X324414D2*
X407612D1*
X492388D2*
X647462D1*
X748206D2*
X824658D1*
X925366D2*
X1328149D1*
X-1327443Y-189839D2*
X-1210800D1*
X-1135355D2*
X-501298D1*
X313110D2*
X398713D1*
X501287D2*
X647462D1*
X748206D2*
X824658D1*
X925366D2*
X1326176D1*
X-1323747Y-209707D2*
X-1209365D1*
X-1115475D2*
X-973965D1*
X-826033D2*
X-718075D1*
X-570107D2*
X-501370D1*
X300084D2*
X398605D1*
X501395D2*
X668526D1*
X727142D2*
X1322444D1*
X-1320015Y-229576D2*
X-1195227D1*
X-1096062D2*
X-973965D1*
X-826033D2*
X-718075D1*
X-570107D2*
X-492722D1*
X285085D2*
X407289D1*
X492711D2*
X668526D1*
X727142D2*
X1318748D1*
X-1316319Y-249445D2*
X-1175347D1*
X-1089208D2*
X-973965D1*
X-826033D2*
X-718075D1*
X-570107D2*
X-461395D1*
X267717D2*
X438616D1*
X461384D2*
X668526D1*
X727142D2*
X1315016D1*
X-1312587Y-269314D2*
X-1207822D1*
X-1042164D2*
X-973965D1*
X-826033D2*
X-718075D1*
X-570107D2*
X-491897D1*
X247550D2*
X408115D1*
X491885D2*
X668526D1*
X727142D2*
X1311320D1*
X-1308891Y-289182D2*
X-1207822D1*
X-1042164D2*
X-973965D1*
X-826033D2*
X-718075D1*
X-570107D2*
X-501155D1*
X223830D2*
X398857D1*
X501143D2*
X668526D1*
X727142D2*
X1307588D1*
X-1305159Y-309051D2*
X-1207822D1*
X-1042164D2*
X-501514D1*
X-398509D2*
X-381553D1*
X-220703D2*
X-195170D1*
X195195D2*
X398498D1*
X501502D2*
X668526D1*
X727142D2*
X1303892D1*
X-1299669Y-328920D2*
X-1207822D1*
X-1042164D2*
X-973965D1*
X-826033D2*
X-493188D1*
X-197665D2*
X-158999D1*
X158988D2*
X406823D1*
X493177D2*
X668526D1*
X727142D2*
X1298365D1*
X-1293999Y-348789D2*
X-1207822D1*
X-1042164D2*
X-973965D1*
X-826033D2*
X-464338D1*
X-435649D2*
X-402330D1*
X-197665D2*
X-107721D1*
X107745D2*
X435638D1*
X464362D2*
X668526D1*
X727142D2*
X1292732D1*
X-1288329Y-368657D2*
X-1207822D1*
X-1022858D2*
X-973965D1*
X-826033D2*
X-491394D1*
X-197665D2*
X408617D1*
X491383D2*
X668526D1*
X727142D2*
X1287062D1*
X-1282695Y-388526D2*
X-1207822D1*
X-999175D2*
X-973965D1*
X-826033D2*
X-501011D1*
X-197665D2*
X399000D1*
X579120D2*
X668526D1*
X727142D2*
X1281392D1*
X-1277026Y-408395D2*
X-1207822D1*
X-979295D2*
X-501621D1*
X-197665D2*
X398390D1*
X598677D2*
X668526D1*
X727142D2*
X1275758D1*
X-1271392Y-428264D2*
X-1207822D1*
X-826033D2*
X-718075D1*
X-197665D2*
X406356D1*
X493644D2*
X537657D1*
X604310D2*
X647462D1*
X748206D2*
X824658D1*
X925366D2*
X1270089D1*
X-1263820Y-448133D2*
X-1207822D1*
X-826033D2*
X-718075D1*
X-477060D2*
X-466706D1*
X-433317D2*
X-402330D1*
X-197665D2*
X433305D1*
X466694D2*
X545695D1*
X604310D2*
X647462D1*
X748206D2*
X824658D1*
X925366D2*
X1262553D1*
X-1256141Y-468001D2*
X-1019287D1*
X-826033D2*
X-718075D1*
X-197665D2*
X409155D1*
X490845D2*
X545695D1*
X604310D2*
X647462D1*
X748206D2*
X824658D1*
X925366D2*
X1254838D1*
X-1248426Y-487870D2*
X-973965D1*
X-826033D2*
X-718075D1*
X-570107D2*
X-536931D1*
X-197665D2*
X399144D1*
X500856D2*
X545695D1*
X604310D2*
X647462D1*
X748206D2*
X824658D1*
X925366D2*
X1247159D1*
X-1240747Y-507739D2*
X-535783D1*
X-398258D2*
X398282D1*
X501717D2*
X522657D1*
X627312D2*
X647462D1*
X748206D2*
X824658D1*
X925366D2*
X1239444D1*
X-1233032Y-527608D2*
X-535783D1*
X-405937D2*
X405926D1*
X494074D2*
X522657D1*
X627312D2*
X670715D1*
X729295D2*
X1231764D1*
X-1225101Y-547476D2*
X-535783D1*
X-431307D2*
X431296D1*
X468704D2*
X522657D1*
X627312D2*
X670715D1*
X729295D2*
X1223798D1*
X-1215197Y-567345D2*
X-531010D1*
X-409705D2*
X409694D1*
X490306D2*
X522657D1*
X627312D2*
X667055D1*
X729295D2*
X1213930D1*
X-1205293Y-587214D2*
X-844531D1*
X-728392D2*
X-512602D1*
X-399334D2*
X399323D1*
X500677D2*
X522657D1*
X627312D2*
X647175D1*
X844519D2*
X1204026D1*
X-1195425Y-607083D2*
X-891718D1*
X-681169D2*
X-501837D1*
X-398186D2*
X398175D1*
X501825D2*
X522657D1*
X891743D2*
X1194122D1*
X-1185521Y-626951D2*
X-920354D1*
X-652533D2*
X-494516D1*
X-405507D2*
X405495D1*
X494505D2*
X522657D1*
X920378D2*
X1184254D1*
X-1175617Y-646820D2*
X-941238D1*
X-631685D2*
X-470474D1*
X-429549D2*
X429538D1*
X470462D2*
X522657D1*
X941227D2*
X1174350D1*
X-1164457Y-666689D2*
X-957279D1*
X-615644D2*
X-489744D1*
X-410279D2*
X410268D1*
X489732D2*
X522657D1*
X957267D2*
X1163190D1*
X-1152149Y-686558D2*
X-969730D1*
X-603193D2*
X-500509D1*
X-399514D2*
X399502D1*
X500497D2*
X545695D1*
X969719D2*
X1150881D1*
X-1139841Y-706427D2*
X-979347D1*
X-593576D2*
X-501908D1*
X-398079D2*
X398067D1*
X501933D2*
X545695D1*
X979336D2*
X1138573D1*
X-1127568Y-726295D2*
X-986488D1*
X-586399D2*
X-494911D1*
X-405076D2*
X405100D1*
X494899D2*
X545695D1*
X986513D2*
X1126265D1*
X-1115260Y-746164D2*
X-991476D1*
X-581447D2*
X-472053D1*
X-427970D2*
X427959D1*
X472041D2*
X538231D1*
X991465D2*
X1113957D1*
X-1102342Y-766033D2*
X-994419D1*
X-578468D2*
X410878D1*
X489122D2*
X518351D1*
X994443D2*
X1101074D1*
X-1087342Y-785902D2*
X-995424D1*
X-577464D2*
X399682D1*
X995448D2*
X1086075D1*
X-1072342Y-805770D2*
X-994526D1*
X-578361D2*
X397995D1*
X559850D2*
X578385D1*
X994551D2*
X1071039D1*
X-1057343Y-825639D2*
X-991692D1*
X-581231D2*
X404706D1*
X536382D2*
X581220D1*
X991680D2*
X1056040D1*
X-1042343Y-845508D2*
X-986847D1*
X-586076D2*
X426523D1*
X473477D2*
X586064D1*
X986836D2*
X1041040D1*
X-1026554Y-865377D2*
X-979814D1*
X-593109D2*
X411488D1*
X488512D2*
X593098D1*
X979802D2*
X1025287D1*
X-1008433Y-885245D2*
X-970340D1*
X-602582D2*
X399897D1*
X500103D2*
X602571D1*
X970329D2*
X1007165D1*
X-990347Y-905114D2*
X-958032D1*
X-614855D2*
X397924D1*
X502076D2*
X614879D1*
X958057D2*
X989044D1*
X-972225Y-924983D2*
X-942243D1*
X-630680D2*
X404311D1*
X495689D2*
X630668D1*
X942232D2*
X970922D1*
X-954104Y-944852D2*
X-921682D1*
X-651206D2*
X425160D1*
X474840D2*
X651230D1*
X921706D2*
X952837D1*
X-933650Y-964720D2*
X-893656D1*
X-679267D2*
X412098D1*
X487902D2*
X679291D1*
X893645D2*
X932383D1*
X-911868Y-984589D2*
X-848334D1*
X-724589D2*
X400077D1*
X499923D2*
X724577D1*
X848323D2*
X910565D1*
X-890051Y-1004458D2*
X397888D1*
X502112D2*
X888783D1*
X-868269Y-1024327D2*
X403952D1*
X496048D2*
X867002D1*
X-844514Y-1044196D2*
X423940D1*
X476060D2*
X843246D1*
X-818211Y-1064064D2*
X412780D1*
X487220D2*
X816907D1*
X-791907Y-1083933D2*
X400292D1*
X499708D2*
X790604D1*
X-765568Y-1103802D2*
X397816D1*
X502184D2*
X764301D1*
X-735390Y-1123671D2*
X403593D1*
X496407D2*
X734087D1*
X-703274Y-1143539D2*
X422755D1*
X477244D2*
X702006D1*
X-671193Y-1163408D2*
X669926D1*
X-636062Y-1183277D2*
X634795D1*
X-596159Y-1203146D2*
X594892D1*
X-556256Y-1223014D2*
X554989D1*
X-509427Y-1242883D2*
X508124D1*
X-458113Y-1262752D2*
X456845D1*
X-400232Y-1282621D2*
X398964D1*
X-330401Y-1302490D2*
X329134D1*
X-236923Y-1322358D2*
X235655D1*
X-76341Y-1342227D2*
X75038D1*
X-399828Y596051D2*
X-401063Y588251D1*
X-403503Y580740D1*
X-407089Y573704D1*
X-411731Y567315D1*
X-417315Y561731D1*
X-423704Y557089D1*
X-430740Y553503D1*
X-438251Y551063D1*
X-444442Y550018D1*
X-438251Y548937D1*
X-430740Y546497D1*
X-423704Y542911D1*
X-417315Y538269D1*
X-411731Y532685D1*
X-407089Y526296D1*
X-403503Y519260D1*
X-401063Y511749D1*
X-399828Y503949D1*
Y496051D1*
X-401063Y488251D1*
X-403503Y480740D1*
X-407089Y473704D1*
X-411731Y467315D1*
X-417315Y461731D1*
X-423704Y457089D1*
X-430740Y453503D1*
X-438251Y451063D1*
X-444442Y450018D1*
X-438251Y448937D1*
X-430740Y446497D1*
X-423704Y442911D1*
X-417315Y438269D1*
X-411731Y432685D1*
X-407089Y426296D1*
X-403503Y419260D1*
X-401063Y411749D1*
X-399828Y403949D1*
Y396051D1*
X-401063Y388251D1*
X-403503Y380740D1*
X-407089Y373704D1*
X-411731Y367315D1*
X-417315Y361731D1*
X-423704Y357089D1*
X-430740Y353503D1*
X-438251Y351063D1*
X-444442Y350018D1*
X-438251Y348937D1*
X-430740Y346497D1*
X-423704Y342911D1*
X-417315Y338269D1*
X-411731Y332685D1*
X-407089Y326296D1*
X-403503Y319260D1*
X-401063Y311749D1*
X-400325Y308040D1*
X-400327Y321390D1*
X-299672D1*
Y207438D1*
X-286936Y224722D1*
X-275248Y238895D1*
X-262861Y252461D1*
X-249806Y265386D1*
X-236116Y277636D1*
X-221826Y289181D1*
X-206973Y299991D1*
X-191593Y310040D1*
X-175727Y319300D1*
X-159415Y327749D1*
X-142697Y335365D1*
X-125617Y342130D1*
X-108218Y348025D1*
X-90544Y353036D1*
X-72640Y357150D1*
X-54551Y360356D1*
X-36324Y362647D1*
X-18004Y364017D1*
X361Y364462D1*
X18726Y363981D1*
X37043Y362575D1*
X55265Y360247D1*
X73348Y357005D1*
X91244Y352856D1*
X108908Y347810D1*
X126295Y341880D1*
X143362Y335082D1*
X160064Y327432D1*
X176360Y318951D1*
X192208Y309659D1*
X207567Y299580D1*
X222399Y288741D1*
X236666Y277167D1*
X250331Y264890D1*
X263361Y251940D1*
X275721Y238349D1*
X287381Y224153D1*
X298311Y209387D1*
X308483Y194089D1*
X317871Y178299D1*
X326452Y162055D1*
X334203Y145400D1*
X341105Y128375D1*
X347140Y111024D1*
X352294Y93390D1*
X356552Y75520D1*
X359904Y57458D1*
X362342Y39249D1*
X363860Y20942D1*
X364462Y0D1*
X363999Y-18365D1*
X362611Y-36683D1*
X360302Y-54908D1*
X357078Y-72994D1*
X352946Y-90894D1*
X347917Y-108563D1*
X342005Y-125956D1*
X335224Y-143030D1*
X327591Y-159740D1*
X319126Y-176044D1*
X309849Y-191901D1*
X299786Y-207270D1*
X288961Y-222113D1*
X277402Y-236391D1*
X265138Y-250069D1*
X252200Y-263111D1*
X238622Y-275485D1*
X224438Y-287159D1*
X209683Y-298103D1*
X194395Y-308290D1*
X178614Y-317694D1*
X162379Y-326291D1*
X145731Y-334058D1*
X128713Y-340977D1*
X111368Y-347030D1*
X93740Y-352201D1*
X75873Y-356477D1*
X57815Y-359847D1*
X39609Y-362303D1*
X21302Y-363839D1*
X2942Y-364450D1*
X-15426Y-364135D1*
X-33755Y-362895D1*
X-51998Y-360734D1*
X-70109Y-357655D1*
X-88042Y-353668D1*
X-105751Y-348782D1*
X-123192Y-343011D1*
X-140319Y-336367D1*
X-157090Y-328869D1*
X-173462Y-320536D1*
X-189394Y-311388D1*
X-204844Y-301449D1*
X-219773Y-290744D1*
X-227225Y-284954D1*
X-224782Y-289554D1*
X-223458Y-293628D1*
X-222788Y-297858D1*
X-222704Y-328815D1*
X-199672Y-328806D1*
Y-496391D1*
X-399803D1*
X-399828Y-503949D1*
X-401063Y-511749D1*
X-403503Y-519260D1*
X-407089Y-526296D1*
X-411731Y-532685D1*
X-417315Y-538269D1*
X-423704Y-542911D1*
X-430740Y-546497D1*
X-438251Y-548937D1*
X-444442Y-549982D1*
X-438251Y-551063D1*
X-430740Y-553503D1*
X-423704Y-557089D1*
X-417315Y-561731D1*
X-411731Y-567315D1*
X-407089Y-573704D1*
X-403503Y-580740D1*
X-401063Y-588251D1*
X-399828Y-596051D1*
Y-603949D1*
X-401063Y-611749D1*
X-403503Y-619260D1*
X-407089Y-626296D1*
X-411731Y-632685D1*
X-417315Y-638269D1*
X-423704Y-642911D1*
X-430740Y-646497D1*
X-438251Y-648937D1*
X-444442Y-649982D1*
X-437429Y-651268D1*
X-430472Y-653616D1*
X-423930Y-656951D1*
X-417944Y-661202D1*
X-412640Y-666280D1*
X-408131Y-672075D1*
X-404513Y-678464D1*
X-401863Y-685312D1*
X-400239Y-692472D1*
X-399672Y-700000D1*
X-400208Y-707323D1*
X-401804Y-714490D1*
X-404425Y-721349D1*
X-408016Y-727753D1*
X-412501Y-733567D1*
X-417785Y-738666D1*
X-423754Y-742942D1*
X-430281Y-746304D1*
X-437229Y-748680D1*
X-444448Y-750020D1*
X-451785Y-750296D1*
X-459085Y-749501D1*
X-466191Y-747652D1*
X-472952Y-744789D1*
X-479225Y-740973D1*
X-484876Y-736284D1*
X-489784Y-730824D1*
X-493846Y-724707D1*
X-496974Y-718064D1*
X-499103Y-711037D1*
X-500186Y-703774D1*
X-500201Y-696432D1*
X-499147Y-689165D1*
X-497048Y-682129D1*
X-493947Y-675474D1*
X-489910Y-669340D1*
X-485024Y-663859D1*
X-479393Y-659148D1*
X-473136Y-655306D1*
X-466386Y-652415D1*
X-459288Y-650537D1*
X-455733Y-650001D1*
X-461749Y-648937D1*
X-469260Y-646497D1*
X-476296Y-642911D1*
X-482685Y-638269D1*
X-488269Y-632685D1*
X-492911Y-626296D1*
X-496497Y-619260D1*
X-498937Y-611749D1*
X-500172Y-603949D1*
X-500232Y-597578D1*
X-525702Y-571951D1*
X-528819Y-567660D1*
X-531227Y-562935D1*
X-532866Y-557890D1*
X-533696Y-552652D1*
X-533800Y-489033D1*
X-538998Y-483803D1*
X-572116Y-483800D1*
X-572113Y-490485D1*
X-716076D1*
Y-409515D1*
X-572113D1*
Y-416225D1*
X-522348Y-416304D1*
X-517110Y-417134D1*
X-512065Y-418773D1*
X-507340Y-421181D1*
X-503049Y-424298D1*
X-476100Y-451100D1*
X-474292Y-453057D1*
X-469260Y-453503D1*
X-461749Y-451063D1*
X-455558Y-450018D1*
X-461749Y-448937D1*
X-469260Y-446497D1*
X-476296Y-442911D1*
X-482685Y-438269D1*
X-488269Y-432685D1*
X-492911Y-426296D1*
X-496497Y-419260D1*
X-498937Y-411749D1*
X-500172Y-403949D1*
Y-396051D1*
X-498937Y-388251D1*
X-496497Y-380740D1*
X-492911Y-373704D1*
X-488269Y-367315D1*
X-482685Y-361731D1*
X-476296Y-357089D1*
X-469260Y-353503D1*
X-461749Y-351063D1*
X-455558Y-350018D1*
X-461749Y-348937D1*
X-469260Y-346497D1*
X-476296Y-342911D1*
X-482685Y-338269D1*
X-488269Y-332685D1*
X-492911Y-326296D1*
X-496497Y-319260D1*
X-498937Y-311749D1*
X-500172Y-303949D1*
Y-296051D1*
X-498937Y-288251D1*
X-496497Y-280740D1*
X-492911Y-273704D1*
X-488269Y-267315D1*
X-482685Y-261731D1*
X-476296Y-257089D1*
X-469260Y-253503D1*
X-461749Y-251063D1*
X-455558Y-250018D1*
X-461749Y-248937D1*
X-469260Y-246497D1*
X-476296Y-242911D1*
X-482685Y-238269D1*
X-488269Y-232685D1*
X-492911Y-226296D1*
X-496497Y-219260D1*
X-498937Y-211749D1*
X-500172Y-203949D1*
Y-196051D1*
X-499169Y-189417D1*
X-511295Y-177307D1*
X-852142Y-177212D1*
X-856372Y-176542D1*
X-860446Y-175218D1*
X-864262Y-173274D1*
X-867727Y-170756D1*
X-940754Y-97848D1*
X-1036287Y-2315D1*
X-1077142Y-2212D1*
X-1081372Y-1542D1*
X-1085446Y-218D1*
X-1089262Y1726D1*
X-1092727Y4244D1*
X-1119301Y30699D1*
X-1122083Y33956D1*
X-1124321Y37608D1*
X-1125960Y41565D1*
X-1126960Y45730D1*
X-1127296Y50000D1*
Y58505D1*
X-1133595Y58530D1*
Y141469D1*
X-1066404D1*
Y58530D1*
X-1069957D1*
X-1063673Y52275D1*
X-1022858Y52212D1*
X-1018628Y51542D1*
X-1014554Y50218D1*
X-1010738Y48274D1*
X-1007273Y45756D1*
X-934246Y-27152D1*
X-838713Y-122685D1*
X-815156Y-122704D1*
X-819307Y-119295D1*
X-920756Y-17727D1*
X-923274Y-14262D1*
X-925218Y-10446D1*
X-926542Y-6372D1*
X-927212Y-2142D1*
X-927296Y58527D1*
X-933595Y58530D1*
Y141469D1*
X-866404D1*
Y58530D1*
X-872684D1*
X-872704Y11330D1*
X-788718Y-72679D1*
X-492293Y-72704D1*
X-488269Y-67315D1*
X-482685Y-61731D1*
X-476296Y-57089D1*
X-469260Y-53503D1*
X-461749Y-51063D1*
X-455558Y-50018D1*
X-461749Y-48937D1*
X-469260Y-46497D1*
X-476296Y-42911D1*
X-482685Y-38269D1*
X-488269Y-32685D1*
X-492251Y-27284D1*
X-652142Y-27212D1*
X-656372Y-26542D1*
X-660446Y-25218D1*
X-664262Y-23274D1*
X-667727Y-20756D1*
X-719301Y30699D1*
X-722083Y33956D1*
X-724321Y37608D1*
X-725960Y41565D1*
X-726960Y45730D1*
X-727296Y50008D1*
X-730709Y58530D1*
X-733595D1*
Y141469D1*
X-666405D1*
Y58530D1*
X-669957D1*
X-638705Y27307D1*
X-492289Y27296D1*
X-488269Y32685D1*
X-482685Y38269D1*
X-476296Y42911D1*
X-469260Y46497D1*
X-461749Y48937D1*
X-455558Y49982D1*
X-461749Y51063D1*
X-469260Y53503D1*
X-476296Y57089D1*
X-482685Y61731D1*
X-488269Y67315D1*
X-492911Y73704D1*
X-496497Y80740D1*
X-498937Y88251D1*
X-500172Y96051D1*
Y103949D1*
X-498937Y111749D1*
X-496497Y119260D1*
X-492911Y126296D1*
X-488269Y132685D1*
X-482685Y138269D1*
X-476296Y142911D1*
X-469260Y146497D1*
X-461749Y148937D1*
X-455558Y149982D1*
X-461749Y151063D1*
X-469260Y153503D1*
X-476296Y157089D1*
X-482685Y161731D1*
X-488269Y167315D1*
X-492911Y173704D1*
X-496497Y180740D1*
X-498937Y188251D1*
X-500172Y196051D1*
Y203949D1*
X-498937Y211749D1*
X-496497Y219260D1*
X-492911Y226296D1*
X-488269Y232685D1*
X-482685Y238269D1*
X-476296Y242911D1*
X-469260Y246497D1*
X-461749Y248937D1*
X-455558Y249982D1*
X-461749Y251063D1*
X-469260Y253503D1*
X-476296Y257089D1*
X-482685Y261731D1*
X-488269Y267315D1*
X-492911Y273704D1*
X-496497Y280740D1*
X-498937Y288251D1*
X-500172Y296051D1*
Y303949D1*
X-498937Y311749D1*
X-496497Y319260D1*
X-492911Y326296D1*
X-488269Y332685D1*
X-482685Y338269D1*
X-476296Y342911D1*
X-469260Y346497D1*
X-461749Y348937D1*
X-455558Y349982D1*
X-461749Y351063D1*
X-469260Y353503D1*
X-476296Y357089D1*
X-482685Y361731D1*
X-488269Y367315D1*
X-492911Y373704D1*
X-496497Y380740D1*
X-498937Y388251D1*
X-500172Y396051D1*
Y403949D1*
X-498937Y411749D1*
X-496497Y419260D1*
X-492911Y426296D1*
X-488269Y432685D1*
X-482685Y438269D1*
X-476296Y442911D1*
X-469260Y446497D1*
X-461749Y448937D1*
X-455558Y449982D1*
X-461749Y451063D1*
X-469260Y453503D1*
X-476296Y457089D1*
X-482685Y461731D1*
X-488269Y467315D1*
X-492911Y473704D1*
X-496497Y480740D1*
X-498937Y488251D1*
X-500172Y496051D1*
Y503949D1*
X-498937Y511749D1*
X-496497Y519260D1*
X-492911Y526296D1*
X-488269Y532685D1*
X-482685Y538269D1*
X-476296Y542911D1*
X-469260Y546497D1*
X-461749Y548937D1*
X-455558Y549982D1*
X-461749Y551063D1*
X-469260Y553503D1*
X-476296Y557089D1*
X-482685Y561731D1*
X-488269Y567315D1*
X-492911Y573704D1*
X-496497Y580740D1*
X-498937Y588251D1*
X-500172Y596051D1*
Y603949D1*
X-498937Y611749D1*
X-496497Y619260D1*
X-492911Y626296D1*
X-488269Y632685D1*
X-482685Y638269D1*
X-476296Y642911D1*
X-473185Y644654D1*
X-635703Y644650D1*
X-648808Y631879D1*
X-663053Y620285D1*
X-678270Y610000D1*
X-694339Y601104D1*
X-711132Y593668D1*
X-728519Y587749D1*
X-746363Y583395D1*
X-764522Y580641D1*
X-782853Y579506D1*
X-801213Y580002D1*
X-819457Y582123D1*
X-837441Y585853D1*
X-855023Y591162D1*
X-872066Y598009D1*
X-888435Y606340D1*
X-904000Y616090D1*
X-918640Y627180D1*
X-932239Y639525D1*
X-937195Y644666D1*
X-1175544Y644650D1*
X-1228223Y538810D1*
X-1272997Y423231D1*
X-1306916Y304014D1*
X-1329690Y182175D1*
X-1341125Y58756D1*
X-1341123Y-65193D1*
X-1329685Y-188612D1*
X-1306909Y-310450D1*
X-1272987Y-429667D1*
X-1228209Y-545245D1*
X-1172959Y-656199D1*
X-1107708Y-761581D1*
X-1033011Y-860493D1*
X-949507Y-952090D1*
X-857907Y-1035592D1*
X-758993Y-1110287D1*
X-653609Y-1175537D1*
X-542654Y-1230783D1*
X-427075Y-1275557D1*
X-307857Y-1309476D1*
X-186019Y-1332251D1*
X-62600Y-1343685D1*
X61349Y-1343684D1*
X184769Y-1332246D1*
X306606Y-1309469D1*
X425823Y-1275547D1*
X541401Y-1230771D1*
X652355Y-1175522D1*
X757737Y-1110270D1*
X856650Y-1035573D1*
X948248Y-952069D1*
X1031750Y-860469D1*
X1106445Y-761555D1*
X1171694Y-656171D1*
X1226941Y-545216D1*
X1271714Y-429637D1*
X1305633Y-310420D1*
X1328408Y-188581D1*
X1339844Y-65162D1*
X1339842Y58787D1*
X1328404Y182207D1*
X1305628Y304045D1*
X1271706Y423261D1*
X1226930Y538839D1*
X1174245Y644639D1*
X937245Y644650D1*
X924105Y631879D1*
X909860Y620285D1*
X894643Y610000D1*
X878575Y601104D1*
X861781Y593668D1*
X844394Y587749D1*
X826551Y583395D1*
X808392Y580641D1*
X790060Y579506D1*
X771700Y580002D1*
X753456Y582123D1*
X735472Y585853D1*
X717890Y591162D1*
X700847Y598009D1*
X684479Y606340D1*
X668913Y616090D1*
X654273Y627180D1*
X640674Y639525D1*
X635718Y644666D1*
X473190Y644650D1*
X479582Y640716D1*
X485587Y635587D1*
X490716Y629582D1*
X494842Y622848D1*
X497864Y615552D1*
X499708Y607873D1*
X500328Y600000D1*
X499708Y592127D1*
X497864Y584448D1*
X494842Y577152D1*
X490716Y570418D1*
X485587Y564413D1*
X479582Y559284D1*
X472848Y555158D1*
X465552Y552136D1*
X457873Y550292D1*
X455558Y550018D1*
X461749Y548937D1*
X469260Y546497D1*
X476296Y542911D1*
X482685Y538269D1*
X488269Y532685D1*
X492911Y526296D1*
X496497Y519260D1*
X498937Y511749D1*
X500172Y503949D1*
Y496051D1*
X498937Y488251D1*
X496497Y480740D1*
X492911Y473704D1*
X488269Y467315D1*
X482685Y461731D1*
X476296Y457089D1*
X469260Y453503D1*
X461749Y451063D1*
X455558Y450018D1*
X461749Y448937D1*
X469260Y446497D1*
X476296Y442911D1*
X482685Y438269D1*
X488269Y432685D1*
X492911Y426296D1*
X496497Y419260D1*
X498937Y411749D1*
X500172Y403949D1*
Y396051D1*
X498937Y388251D1*
X496497Y380740D1*
X492911Y373704D1*
X488269Y367315D1*
X482685Y361731D1*
X476296Y357089D1*
X469260Y353503D1*
X461749Y351063D1*
X455558Y350018D1*
X461749Y348937D1*
X469260Y346497D1*
X476296Y342911D1*
X482685Y338269D1*
X488269Y332685D1*
X492911Y326296D1*
X496497Y319260D1*
X498937Y311749D1*
X500172Y303949D1*
Y296051D1*
X498937Y288251D1*
X496497Y280740D1*
X492911Y273704D1*
X488269Y267315D1*
X482685Y261731D1*
X476296Y257089D1*
X469260Y253503D1*
X461749Y251063D1*
X455558Y250018D1*
X462571Y248732D1*
X469528Y246384D1*
X476070Y243049D1*
X482056Y238798D1*
X487360Y233720D1*
X491869Y227925D1*
X495487Y221536D1*
X498137Y214688D1*
X499761Y207528D1*
X500328Y200000D1*
X499792Y192677D1*
X498196Y185510D1*
X495575Y178651D1*
X491984Y172247D1*
X487499Y166433D1*
X482215Y161334D1*
X476246Y157058D1*
X469719Y153696D1*
X462771Y151320D1*
X455716Y150001D1*
X462571Y148732D1*
X469528Y146384D1*
X476070Y143049D1*
X482056Y138798D1*
X487360Y133720D1*
X491869Y127925D1*
X495487Y121536D1*
X498137Y114688D1*
X499761Y107528D1*
X500328Y100000D1*
X499792Y92677D1*
X498196Y85510D1*
X495575Y78651D1*
X491984Y72247D1*
X487499Y66433D1*
X482215Y61334D1*
X476246Y57058D1*
X469719Y53696D1*
X462771Y51320D1*
X455716Y50001D1*
X461749Y48937D1*
X469260Y46497D1*
X476296Y42911D1*
X482685Y38269D1*
X488269Y32685D1*
X492911Y26296D1*
X496497Y19260D1*
X498937Y11749D1*
X500172Y3949D1*
Y-3949D1*
X498937Y-11749D1*
X496497Y-19260D1*
X492911Y-26296D1*
X488269Y-32685D1*
X482685Y-38269D1*
X476296Y-42911D1*
X469260Y-46497D1*
X461749Y-48937D1*
X455558Y-49982D1*
X461749Y-51063D1*
X469260Y-53503D1*
X476296Y-57089D1*
X482685Y-61731D1*
X488269Y-67315D1*
X492911Y-73704D1*
X496497Y-80740D1*
X498937Y-88251D1*
X500172Y-96051D1*
Y-103949D1*
X498937Y-111749D1*
X496497Y-119260D1*
X492911Y-126296D1*
X488269Y-132685D1*
X482685Y-138269D1*
X476296Y-142911D1*
X469260Y-146497D1*
X461749Y-148937D1*
X455558Y-149982D1*
X461749Y-151063D1*
X469260Y-153503D1*
X476296Y-157089D1*
X482685Y-161731D1*
X488269Y-167315D1*
X492911Y-173704D1*
X496497Y-180740D1*
X498937Y-188251D1*
X500172Y-196051D1*
Y-203949D1*
X498937Y-211749D1*
X496497Y-219260D1*
X492911Y-226296D1*
X488269Y-232685D1*
X482685Y-238269D1*
X476296Y-242911D1*
X469260Y-246497D1*
X461749Y-248937D1*
X455558Y-249982D1*
X461749Y-251063D1*
X469260Y-253503D1*
X476296Y-257089D1*
X482685Y-261731D1*
X488269Y-267315D1*
X492911Y-273704D1*
X496497Y-280740D1*
X498937Y-288251D1*
X500172Y-296051D1*
Y-303949D1*
X498937Y-311749D1*
X496497Y-319260D1*
X492911Y-326296D1*
X488269Y-332685D1*
X482685Y-338269D1*
X476296Y-342911D1*
X469260Y-346497D1*
X461749Y-348937D1*
X455558Y-349982D1*
X461749Y-351063D1*
X469260Y-353503D1*
X476296Y-357089D1*
X482685Y-361731D1*
X488269Y-367315D1*
X492251Y-372716D1*
X552142Y-372788D1*
X556372Y-373458D1*
X560446Y-374782D1*
X564262Y-376726D1*
X567727Y-379244D1*
X594301Y-405699D1*
X597083Y-408956D1*
X599321Y-412608D1*
X600960Y-416565D1*
X601960Y-420730D1*
X602296Y-425008D1*
Y-503838D1*
X625328Y-503806D1*
Y-597736D1*
X638694Y-597704D1*
X672693Y-563705D1*
X672703Y-517257D1*
X649476D1*
Y-412665D1*
X670540D1*
X670538Y-202324D1*
X649476Y-202296D1*
Y-97704D1*
X746194D1*
Y-202296D1*
X725130D1*
X725131Y-412636D1*
X746194Y-412665D1*
Y-517257D1*
X727283D1*
X727212Y-577142D1*
X726542Y-581372D1*
X725218Y-585446D1*
X723269Y-589269D1*
X739318Y-584914D1*
X757370Y-581529D1*
X775651Y-579757D1*
X794017Y-579613D1*
X812323Y-581098D1*
X830426Y-584199D1*
X848183Y-588893D1*
X865454Y-595143D1*
X882102Y-602899D1*
X897998Y-612101D1*
X913015Y-622675D1*
X927036Y-634539D1*
X939949Y-647599D1*
X951655Y-661753D1*
X962059Y-676888D1*
X971081Y-692887D1*
X978649Y-709622D1*
X984703Y-726962D1*
X989197Y-744770D1*
X992094Y-762907D1*
X993372Y-781229D1*
X993234Y-795640D1*
X991606Y-813934D1*
X988363Y-832012D1*
X983529Y-849732D1*
X977144Y-866953D1*
X969258Y-883540D1*
X959932Y-899363D1*
X949240Y-914297D1*
X937266Y-928224D1*
X924105Y-941035D1*
X909860Y-952628D1*
X894643Y-962914D1*
X878575Y-971809D1*
X861781Y-979246D1*
X844394Y-985164D1*
X826551Y-989518D1*
X808392Y-992273D1*
X790060Y-993407D1*
X771700Y-992912D1*
X753456Y-990791D1*
X735472Y-987061D1*
X717890Y-981751D1*
X700847Y-974904D1*
X684479Y-966573D1*
X668913Y-956824D1*
X654273Y-945733D1*
X640674Y-933388D1*
X628223Y-919886D1*
X617017Y-905334D1*
X607146Y-889845D1*
X598687Y-873543D1*
X591706Y-856554D1*
X586259Y-839014D1*
X582388Y-821060D1*
X580124Y-802833D1*
X579497Y-784083D1*
X542727Y-820756D1*
X539262Y-823274D1*
X535446Y-825218D1*
X531372Y-826542D1*
X527142Y-827212D1*
X492310Y-827296D1*
X488269Y-832685D1*
X482685Y-838269D1*
X476296Y-842911D1*
X469260Y-846497D1*
X461749Y-848937D1*
X455558Y-849982D1*
X462571Y-851268D1*
X469528Y-853616D1*
X476070Y-856951D1*
X482056Y-861202D1*
X487360Y-866280D1*
X491869Y-872075D1*
X495487Y-878464D1*
X498137Y-885312D1*
X499761Y-892472D1*
X500328Y-900000D1*
X499792Y-907323D1*
X498196Y-914490D1*
X495575Y-921349D1*
X491984Y-927753D1*
X487499Y-933567D1*
X482215Y-938666D1*
X476246Y-942942D1*
X469719Y-946304D1*
X462771Y-948680D1*
X455716Y-949999D1*
X461749Y-951063D1*
X469260Y-953503D1*
X476296Y-957089D1*
X482685Y-961731D1*
X488269Y-967315D1*
X492911Y-973704D1*
X496497Y-980740D1*
X498937Y-988251D1*
X500172Y-996051D1*
Y-1003949D1*
X498937Y-1011749D1*
X496497Y-1019260D1*
X492911Y-1026296D1*
X488269Y-1032685D1*
X482685Y-1038269D1*
X476296Y-1042911D1*
X469260Y-1046497D1*
X461749Y-1048937D1*
X455558Y-1049982D1*
X461749Y-1051063D1*
X469260Y-1053503D1*
X476296Y-1057089D1*
X482685Y-1061731D1*
X488269Y-1067315D1*
X492911Y-1073704D1*
X496497Y-1080740D1*
X498937Y-1088251D1*
X500172Y-1096051D1*
Y-1103949D1*
X498937Y-1111749D1*
X496497Y-1119260D1*
X492911Y-1126296D1*
X488269Y-1132685D1*
X482685Y-1138269D1*
X476296Y-1142911D1*
X469260Y-1146497D1*
X461749Y-1148937D1*
X453949Y-1150172D1*
X446051D1*
X438251Y-1148937D1*
X430740Y-1146497D1*
X423704Y-1142911D1*
X417315Y-1138269D1*
X411731Y-1132685D1*
X407089Y-1126296D1*
X403503Y-1119260D1*
X401063Y-1111749D1*
X399828Y-1103949D1*
Y-1096051D1*
X401063Y-1088251D1*
X403503Y-1080740D1*
X407089Y-1073704D1*
X411731Y-1067315D1*
X417315Y-1061731D1*
X423704Y-1057089D1*
X430740Y-1053503D1*
X438251Y-1051063D1*
X444442Y-1050018D1*
X438251Y-1048937D1*
X430740Y-1046497D1*
X423704Y-1042911D1*
X417315Y-1038269D1*
X411731Y-1032685D1*
X407089Y-1026296D1*
X403503Y-1019260D1*
X401063Y-1011749D1*
X399828Y-1003949D1*
Y-996051D1*
X401063Y-988251D1*
X403503Y-980740D1*
X407089Y-973704D1*
X411731Y-967315D1*
X417315Y-961731D1*
X423704Y-957089D1*
X430740Y-953503D1*
X438251Y-951063D1*
X444442Y-950018D1*
X437329Y-948706D1*
X430376Y-946344D1*
X423842Y-942996D1*
X417864Y-938732D1*
X412570Y-933644D1*
X408073Y-927839D1*
X404469Y-921442D1*
X401833Y-914589D1*
X400223Y-907425D1*
X399673Y-900103D1*
X400193Y-892779D1*
X401774Y-885609D1*
X404381Y-878745D1*
X407959Y-872333D1*
X412432Y-866511D1*
X417705Y-861401D1*
X423665Y-857112D1*
X430186Y-853737D1*
X437129Y-851346D1*
X444267Y-850001D1*
X438251Y-848937D1*
X430740Y-846497D1*
X423704Y-842911D1*
X417315Y-838269D1*
X411731Y-832685D1*
X407089Y-826296D1*
X403503Y-819260D1*
X401063Y-811749D1*
X399828Y-803949D1*
Y-796051D1*
X401063Y-788251D1*
X403503Y-780740D1*
X407089Y-773704D1*
X411731Y-767315D1*
X417315Y-761731D1*
X423704Y-757089D1*
X430740Y-753503D1*
X438251Y-751063D1*
X444442Y-750018D1*
X438251Y-748937D1*
X430740Y-746497D1*
X423704Y-742911D1*
X417315Y-738269D1*
X411731Y-732685D1*
X407089Y-726296D1*
X403503Y-719260D1*
X401063Y-711749D1*
X399828Y-703949D1*
Y-696051D1*
X401063Y-688251D1*
X403503Y-680740D1*
X407089Y-673704D1*
X411731Y-667315D1*
X417315Y-661731D1*
X423704Y-657089D1*
X430740Y-653503D1*
X438251Y-651063D1*
X444442Y-650018D1*
X438251Y-648937D1*
X430740Y-646497D1*
X423704Y-642911D1*
X417315Y-638269D1*
X411731Y-632685D1*
X407089Y-626296D1*
X403503Y-619260D1*
X401063Y-611749D1*
X399828Y-603949D1*
Y-596051D1*
X401063Y-588251D1*
X403503Y-580740D1*
X407089Y-573704D1*
X411731Y-567315D1*
X417315Y-561731D1*
X423704Y-557089D1*
X430740Y-553503D1*
X438251Y-551063D1*
X444442Y-550018D1*
X438251Y-548937D1*
X430740Y-546497D1*
X423704Y-542911D1*
X417315Y-538269D1*
X411731Y-532685D1*
X407089Y-526296D1*
X403503Y-519260D1*
X401063Y-511749D1*
X399828Y-503949D1*
Y-496051D1*
X401063Y-488251D1*
X403503Y-480740D1*
X407089Y-473704D1*
X411731Y-467315D1*
X417315Y-461731D1*
X423704Y-457089D1*
X430740Y-453503D1*
X438251Y-451063D1*
X444442Y-450018D1*
X438251Y-448937D1*
X430740Y-446497D1*
X423704Y-442911D1*
X417315Y-438269D1*
X411731Y-432685D1*
X407089Y-426296D1*
X403503Y-419260D1*
X401063Y-411749D1*
X399828Y-403949D1*
Y-396051D1*
X401063Y-388251D1*
X403503Y-380740D1*
X407089Y-373704D1*
X411731Y-367315D1*
X417315Y-361731D1*
X423704Y-357089D1*
X430740Y-353503D1*
X438251Y-351063D1*
X444442Y-350018D1*
X438251Y-348937D1*
X430740Y-346497D1*
X423704Y-342911D1*
X417315Y-338269D1*
X411731Y-332685D1*
X407089Y-326296D1*
X403503Y-319260D1*
X401063Y-311749D1*
X399828Y-303949D1*
Y-296051D1*
X401063Y-288251D1*
X403503Y-280740D1*
X407089Y-273704D1*
X411731Y-267315D1*
X417315Y-261731D1*
X423704Y-257089D1*
X430740Y-253503D1*
X438251Y-251063D1*
X444442Y-250018D1*
X438251Y-248937D1*
X430740Y-246497D1*
X423704Y-242911D1*
X417315Y-238269D1*
X411731Y-232685D1*
X407089Y-226296D1*
X403503Y-219260D1*
X401063Y-211749D1*
X399828Y-203949D1*
Y-196051D1*
X401063Y-188251D1*
X403503Y-180740D1*
X407089Y-173704D1*
X411731Y-167315D1*
X417315Y-161731D1*
X423704Y-157089D1*
X430740Y-153503D1*
X438251Y-151063D1*
X444442Y-150018D1*
X438251Y-148937D1*
X430740Y-146497D1*
X423704Y-142911D1*
X417315Y-138269D1*
X411731Y-132685D1*
X407089Y-126296D1*
X403503Y-119260D1*
X401063Y-111749D1*
X399828Y-103949D1*
Y-96051D1*
X401063Y-88251D1*
X403503Y-80740D1*
X407089Y-73704D1*
X411731Y-67315D1*
X417315Y-61731D1*
X423704Y-57089D1*
X430740Y-53503D1*
X438251Y-51063D1*
X444442Y-50018D1*
X438251Y-48937D1*
X430740Y-46497D1*
X423704Y-42911D1*
X417315Y-38269D1*
X411731Y-32685D1*
X407089Y-26296D1*
X403503Y-19260D1*
X401063Y-11749D1*
X399828Y-3949D1*
Y3949D1*
X401063Y11749D1*
X403503Y19260D1*
X407089Y26296D1*
X411731Y32685D1*
X417315Y38269D1*
X423704Y42911D1*
X430740Y46497D1*
X438251Y48937D1*
X444442Y49982D1*
X437329Y51294D1*
X430376Y53656D1*
X423842Y57004D1*
X417864Y61268D1*
X412570Y66356D1*
X408073Y72161D1*
X404469Y78558D1*
X401833Y85411D1*
X400223Y92575D1*
X399673Y99897D1*
X400193Y107221D1*
X401774Y114391D1*
X404381Y121255D1*
X407959Y127667D1*
X412432Y133489D1*
X417705Y138599D1*
X423665Y142888D1*
X430186Y146263D1*
X437129Y148654D1*
X444267Y149999D1*
X437329Y151294D1*
X430376Y153656D1*
X423842Y157004D1*
X417864Y161268D1*
X412570Y166356D1*
X408073Y172161D1*
X404469Y178558D1*
X401833Y185411D1*
X400223Y192575D1*
X399673Y199897D1*
X400193Y207221D1*
X401774Y214391D1*
X404381Y221255D1*
X407959Y227667D1*
X412432Y233489D1*
X417705Y238599D1*
X423665Y242888D1*
X430186Y246263D1*
X437129Y248654D1*
X444267Y249999D1*
X438251Y251063D1*
X430740Y253503D1*
X423704Y257089D1*
X417315Y261731D1*
X411731Y267315D1*
X407089Y273704D1*
X403503Y280740D1*
X401063Y288251D1*
X399828Y296051D1*
Y303949D1*
X401063Y311749D1*
X403503Y319260D1*
X407089Y326296D1*
X411731Y332685D1*
X417315Y338269D1*
X423704Y342911D1*
X430740Y346497D1*
X438251Y348937D1*
X444442Y349982D1*
X438251Y351063D1*
X430740Y353503D1*
X423704Y357089D1*
X417315Y361731D1*
X411731Y367315D1*
X407089Y373704D1*
X403503Y380740D1*
X401063Y388251D1*
X399828Y396051D1*
Y403949D1*
X401063Y411749D1*
X403503Y419260D1*
X407089Y426296D1*
X411731Y432685D1*
X417315Y438269D1*
X423704Y442911D1*
X430740Y446497D1*
X438251Y448937D1*
X444442Y449982D1*
X438251Y451063D1*
X430740Y453503D1*
X423704Y457089D1*
X417315Y461731D1*
X411731Y467315D1*
X407089Y473704D1*
X403503Y480740D1*
X401063Y488251D1*
X399828Y496051D1*
Y503949D1*
X401063Y511749D1*
X403503Y519260D1*
X407089Y526296D1*
X411731Y532685D1*
X417315Y538269D1*
X423704Y542911D1*
X430740Y546497D1*
X438251Y548937D1*
X444442Y549982D1*
X438251Y551063D1*
X430740Y553503D1*
X423704Y557089D1*
X417315Y561731D1*
X411731Y567315D1*
X407089Y573704D1*
X403503Y580740D1*
X401063Y588251D1*
X399828Y596051D1*
Y603949D1*
X401063Y611749D1*
X403503Y619260D1*
X407089Y626296D1*
X411731Y632685D1*
X417315Y638269D1*
X423704Y642911D1*
X426815Y644654D1*
X-426785Y644650D1*
X-420418Y640716D1*
X-414413Y635587D1*
X-409284Y629582D1*
X-405158Y622848D1*
X-402136Y615552D1*
X-400292Y607873D1*
X-399672Y600000D1*
X-399828Y596051D1*
X-400325Y291960D2*
X-402136Y284448D1*
X-405158Y277152D1*
X-409284Y270418D1*
X-414413Y264413D1*
X-420418Y259284D1*
X-427152Y255158D1*
X-434448Y252136D1*
X-442127Y250292D1*
X-444442Y250018D1*
X-438251Y248937D1*
X-430740Y246497D1*
X-423704Y242911D1*
X-417315Y238269D1*
X-411731Y232685D1*
X-407089Y226296D1*
X-403503Y219260D1*
X-401063Y211749D1*
X-400327Y208924D1*
Y291902D1*
X-400325Y191960D2*
X-402136Y184448D1*
X-405158Y177152D1*
X-409284Y170418D1*
X-414413Y164413D1*
X-420418Y159284D1*
X-427152Y155158D1*
X-434448Y152136D1*
X-442127Y150292D1*
X-444442Y150018D1*
X-438251Y148937D1*
X-430740Y146497D1*
X-423704Y142911D1*
X-417315Y138269D1*
X-411731Y132685D1*
X-407089Y126296D1*
X-403503Y119260D1*
X-401063Y111749D1*
X-399828Y103949D1*
Y96051D1*
X-401063Y88251D1*
X-401344Y87256D1*
X-377321Y111282D1*
X-377296Y153790D1*
X-400327Y153806D1*
Y191879D1*
X-437256Y51344D2*
X-444442Y50018D1*
X-439417Y49169D1*
X-399828Y-3949D2*
X-401063Y-11749D1*
X-403503Y-19260D1*
X-407089Y-26296D1*
X-411731Y-32685D1*
X-417315Y-38269D1*
X-423704Y-42911D1*
X-430740Y-46497D1*
X-438251Y-48937D1*
X-444442Y-49982D1*
X-438251Y-51063D1*
X-430740Y-53503D1*
X-423704Y-57089D1*
X-417315Y-61731D1*
X-411731Y-67315D1*
X-407089Y-73704D1*
X-403503Y-80740D1*
X-401063Y-88251D1*
X-399828Y-96051D1*
Y-103949D1*
X-400831Y-110583D1*
X-287869Y-223529D1*
X-296401Y-212082D1*
X-306711Y-196877D1*
X-316242Y-181172D1*
X-324970Y-165007D1*
X-332871Y-148422D1*
X-339927Y-131461D1*
X-346120Y-114165D1*
X-351433Y-96579D1*
X-355853Y-78748D1*
X-359369Y-60717D1*
X-361972Y-42532D1*
X-363655Y-24238D1*
X-364414Y-5883D1*
X-364248Y12487D1*
X-363156Y30825D1*
X-360936Y50469D1*
X-400807Y10591D1*
X-399828Y3949D1*
Y-3949D1*
X-439417Y-249169D2*
X-444442Y-249982D1*
X-437256Y-251344D1*
X-399828Y-303949D2*
X-401063Y-311749D1*
X-403503Y-319260D1*
X-407089Y-326296D1*
X-411731Y-332685D1*
X-417315Y-338269D1*
X-423704Y-342911D1*
X-430740Y-346497D1*
X-438251Y-348937D1*
X-444442Y-349982D1*
X-438251Y-351063D1*
X-430740Y-353503D1*
X-423704Y-357089D1*
X-417315Y-361731D1*
X-411731Y-367315D1*
X-407089Y-373704D1*
X-403503Y-380740D1*
X-401063Y-388251D1*
X-400325Y-391960D1*
X-400327Y-328806D1*
X-377326D1*
X-377296Y-311287D1*
X-401298Y-287305D1*
X-399828Y-296051D1*
Y-303949D1*
X-400325Y-408040D2*
X-402136Y-415552D1*
X-405158Y-422848D1*
X-409284Y-429582D1*
X-414413Y-435587D1*
X-420418Y-440716D1*
X-427152Y-444842D1*
X-434448Y-447864D1*
X-442127Y-449708D1*
X-444442Y-449982D1*
X-438251Y-451063D1*
X-430740Y-453503D1*
X-423704Y-457089D1*
X-417315Y-461731D1*
X-411731Y-467315D1*
X-407089Y-473704D1*
X-403503Y-480740D1*
X-401063Y-488251D1*
X-400325Y-491960D1*
X-400327Y-408094D1*
X455558Y-750018D2*
X461749Y-751063D1*
X469260Y-753503D1*
X476296Y-757089D1*
X482685Y-761731D1*
X488269Y-767315D1*
X492251Y-772716D1*
X513694Y-772704D1*
X547693Y-738705D1*
X547704Y-671378D1*
X524673Y-671391D1*
Y-503806D1*
X547674D1*
X547704Y-436336D1*
X538673Y-427275D1*
X492262Y-427296D1*
X488269Y-432685D1*
X482685Y-438269D1*
X476296Y-442911D1*
X469260Y-446497D1*
X461749Y-448937D1*
X455558Y-449982D1*
X461749Y-451063D1*
X469260Y-453503D1*
X476296Y-457089D1*
X482685Y-461731D1*
X488269Y-467315D1*
X492911Y-473704D1*
X496497Y-480740D1*
X498937Y-488251D1*
X500172Y-496051D1*
Y-503949D1*
X498937Y-511749D1*
X496497Y-519260D1*
X492911Y-526296D1*
X488269Y-532685D1*
X482685Y-538269D1*
X476296Y-542911D1*
X469260Y-546497D1*
X461749Y-548937D1*
X455558Y-549982D1*
X461749Y-551063D1*
X469260Y-553503D1*
X476296Y-557089D1*
X482685Y-561731D1*
X488269Y-567315D1*
X492911Y-573704D1*
X496497Y-580740D1*
X498937Y-588251D1*
X500172Y-596051D1*
Y-603949D1*
X498937Y-611749D1*
X496497Y-619260D1*
X492911Y-626296D1*
X488269Y-632685D1*
X482685Y-638269D1*
X476296Y-642911D1*
X469260Y-646497D1*
X461749Y-648937D1*
X455558Y-649982D1*
X461749Y-651063D1*
X469260Y-653503D1*
X476296Y-657089D1*
X482685Y-661731D1*
X488269Y-667315D1*
X492911Y-673704D1*
X496497Y-680740D1*
X498937Y-688251D1*
X500172Y-696051D1*
Y-703949D1*
X498937Y-711749D1*
X496497Y-719260D1*
X492911Y-726296D1*
X488269Y-732685D1*
X482685Y-738269D1*
X476296Y-742911D1*
X469260Y-746497D1*
X461749Y-748937D1*
X455558Y-749982D1*
X-579679Y-795640D2*
X-581307Y-813934D1*
X-584551Y-832012D1*
X-589384Y-849732D1*
X-595769Y-866953D1*
X-603656Y-883540D1*
X-612982Y-899363D1*
X-623674Y-914297D1*
X-635647Y-928224D1*
X-648808Y-941035D1*
X-663053Y-952628D1*
X-678270Y-962914D1*
X-694339Y-971809D1*
X-711132Y-979246D1*
X-728519Y-985164D1*
X-746363Y-989518D1*
X-764522Y-992273D1*
X-782853Y-993407D1*
X-801213Y-992912D1*
X-819457Y-990791D1*
X-837441Y-987061D1*
X-855023Y-981751D1*
X-872066Y-974904D1*
X-888435Y-966573D1*
X-904000Y-956824D1*
X-918640Y-945733D1*
X-932239Y-933388D1*
X-944691Y-919886D1*
X-955896Y-905334D1*
X-965767Y-889845D1*
X-974226Y-873543D1*
X-981207Y-856554D1*
X-986654Y-839014D1*
X-990525Y-821060D1*
X-992789Y-802833D1*
X-993429Y-784478D1*
X-992439Y-766138D1*
X-989826Y-747958D1*
X-985613Y-730081D1*
X-979831Y-712648D1*
X-972527Y-695796D1*
X-963757Y-679658D1*
X-953592Y-664361D1*
X-942110Y-650026D1*
X-929403Y-636765D1*
X-915570Y-624682D1*
X-900721Y-613873D1*
X-884972Y-604423D1*
X-868447Y-596407D1*
X-851277Y-589887D1*
X-833596Y-584914D1*
X-815544Y-581529D1*
X-797263Y-579757D1*
X-778897Y-579613D1*
X-760590Y-581098D1*
X-742487Y-584199D1*
X-724731Y-588893D1*
X-707460Y-595143D1*
X-690811Y-602899D1*
X-674916Y-612101D1*
X-659898Y-622675D1*
X-645878Y-634539D1*
X-632964Y-647599D1*
X-621259Y-661753D1*
X-610854Y-676888D1*
X-601833Y-692887D1*
X-594265Y-709622D1*
X-588210Y-726962D1*
X-583716Y-744770D1*
X-580819Y-762907D1*
X-579541Y-781229D1*
X-579679Y-795640D1*
X-970144Y-309515D2*
X-828019D1*
Y-390485D1*
X-971981D1*
Y-309515D1*
X-970144D1*
X-962795Y-209515D2*
X-828019D1*
Y-290485D1*
X-971981D1*
Y-209515D1*
X-962795D1*
Y-409515D2*
X-828019D1*
Y-490485D1*
X-971981D1*
Y-483775D1*
X-990152Y-483696D1*
X-995390Y-482866D1*
X-1000435Y-481227D1*
X-1005160Y-478819D1*
X-1009451Y-475702D1*
X-1044160Y-441142D1*
Y-450721D1*
X-1205839D1*
Y-259121D1*
X-1163675D1*
X-1200702Y-221951D1*
X-1203819Y-217660D1*
X-1206227Y-212935D1*
X-1207866Y-207890D1*
X-1208696Y-202652D1*
X-1208800Y-173984D1*
X-1227296Y-173950D1*
Y-26050D1*
X-1208816D1*
X-1208696Y465152D1*
X-1207866Y470390D1*
X-1206227Y475435D1*
X-1203819Y480161D1*
X-1200702Y484451D1*
X-1161400Y523900D1*
X-1157367Y527345D1*
X-1152845Y530116D1*
X-1147945Y532146D1*
X-1142788Y533384D1*
X-1137500Y533800D1*
X-1131220D1*
X-1131233Y550032D1*
X-1018767D1*
Y533777D1*
X-672348Y533696D1*
X-667110Y532866D1*
X-662065Y531227D1*
X-657340Y528819D1*
X-653049Y525702D1*
X-626100Y498900D1*
X-622655Y494867D1*
X-619884Y490345D1*
X-617854Y485445D1*
X-616616Y480287D1*
X-616200Y475000D1*
Y456233D1*
X-611629Y452150D1*
X-606099Y445675D1*
X-601650Y438415D1*
X-598391Y430548D1*
X-596404Y422268D1*
X-595735Y413779D1*
X-595903Y381963D1*
X-597235Y373553D1*
X-599866Y365454D1*
X-603732Y357867D1*
X-608737Y350978D1*
X-614758Y344957D1*
X-621647Y339952D1*
X-629234Y336087D1*
X-637332Y333455D1*
X-645742Y332123D1*
X-654258D1*
X-662668Y333455D1*
X-670766Y336087D1*
X-678353Y339952D1*
X-685242Y344957D1*
X-691263Y350978D1*
X-696268Y357867D1*
X-699988Y365137D1*
X-703732Y357867D1*
X-708737Y350978D1*
X-714758Y344957D1*
X-716209Y343814D1*
X-716200Y238988D1*
X-698518Y221319D1*
X-696193Y222572D1*
Y232020D1*
X-629003D1*
X-628798Y187500D1*
X-629003Y158529D1*
Y149082D1*
X-696193D1*
Y153711D1*
X-715152Y153804D1*
X-720390Y154634D1*
X-725435Y156273D1*
X-730160Y158681D1*
X-734451Y161798D1*
X-773900Y201100D1*
X-777345Y205133D1*
X-780116Y209655D1*
X-782146Y214555D1*
X-783384Y219713D1*
X-783800Y225000D1*
Y343741D1*
X-788371Y347850D1*
X-793901Y354325D1*
X-798350Y361585D1*
X-799988Y365137D1*
X-803732Y357867D1*
X-808737Y350978D1*
X-814758Y344957D1*
X-816209Y343814D1*
X-816304Y322348D1*
X-817134Y317110D1*
X-818773Y312065D1*
X-821181Y307339D1*
X-824298Y303049D1*
X-828806Y298393D1*
X-829003Y186088D1*
Y149082D1*
X-896193D1*
X-896399Y199738D1*
X-896294Y315054D1*
X-895465Y320292D1*
X-893826Y325336D1*
X-891418Y330062D1*
X-888300Y334353D1*
X-883792Y339009D1*
X-883800Y343767D1*
X-888371Y347850D1*
X-893901Y354325D1*
X-895741Y357078D1*
X-895735Y331956D1*
X-916225D1*
X-916304Y222348D1*
X-917134Y217110D1*
X-918773Y212065D1*
X-921181Y207340D1*
X-924298Y203049D1*
X-963600Y163600D1*
X-967633Y160155D1*
X-972155Y157384D1*
X-977055Y155354D1*
X-982213Y154116D1*
X-987510Y153700D1*
X-1029018D1*
X-1029003Y149082D1*
X-1096194D1*
X-1096398Y190551D1*
X-1096194Y195014D1*
Y232020D1*
X-1029003D1*
Y221291D1*
X-1001488Y221300D1*
X-983819Y238982D1*
X-983800Y331971D1*
X-1004264Y331956D1*
Y466203D1*
X-1018735Y466200D1*
X-1018767Y445440D1*
X-1131233D1*
Y458466D1*
X-1141181Y448518D1*
X-1141200Y-26063D1*
X-1122704Y-26050D1*
Y-173950D1*
X-1141184D1*
X-1141200Y-186014D1*
X-1099298Y-228049D1*
X-1096181Y-232339D1*
X-1093773Y-237065D1*
X-1092134Y-242110D1*
X-1091304Y-247348D1*
X-1091200Y-259150D1*
X-1044160Y-259121D1*
X-1044196Y-360564D1*
X-1042323Y-366200D1*
X-1034848Y-366304D1*
X-1029610Y-367134D1*
X-1024565Y-368773D1*
X-1019839Y-371181D1*
X-1015549Y-374298D1*
X-973484Y-416216D1*
X-971981Y-409515D1*
X-962795D1*
X-714238Y-209515D2*
X-572113D1*
Y-290485D1*
X-716076D1*
Y-209515D1*
X-714238D1*
X-1115222Y-26051D2*
X-1012468Y-26129D1*
Y-173950D1*
X-1117060D1*
Y-26051D1*
X-1115222D1*
X-656955Y141469D2*
X-591601D1*
Y58530D1*
X-658792D1*
Y141469D1*
X-656955D1*
X-856955D2*
X-791601D1*
Y58530D1*
X-858792D1*
Y141469D1*
X-856955D1*
X-1056955D2*
X-991602D1*
Y58531D1*
X-1058792D1*
Y141469D1*
X-1056955D1*
X-1129396Y439796D2*
X-1018767D1*
Y335204D1*
X-1131233D1*
Y439796D1*
X-1129396D1*
X828478Y-97704D2*
X923359D1*
Y-202296D1*
X826641D1*
Y-97704D1*
X828478D1*
Y-412665D2*
X923359D1*
Y-517257D1*
X826641D1*
Y-412665D1*
X828478D1*
X-485562Y-664438D2*
D14*
X-414438Y-735562D1*
Y-664438D2*
X-485562Y-735562D1*
X414438Y-864438D2*
X485562Y-935562D1*
Y-864438D2*
X414438Y-935562D1*
Y135562D2*
X485562Y64438D1*
Y135562D2*
X414438Y64438D1*
Y235562D2*
X485562Y164438D1*
Y235562D2*
X414438Y164438D1*
X-900000Y-309551D2*
Y-390449D1*
X-971945Y-350000D2*
X-828055D1*
X-644094Y-209551D2*
Y-290449D1*
X-716040Y-250000D2*
X-572149D1*
X-1064764Y-26086D2*
Y-173914D1*
X-1117024Y-100000D2*
X-1012503D1*
X-625197Y141433D2*
Y58566D1*
X-658756Y100000D2*
X-591637D1*
X-825197Y141433D2*
Y58566D1*
X-858756Y100000D2*
X-791637D1*
X-1025197Y141433D2*
Y58567D1*
X-1058756Y100000D2*
X-991637D1*
X-1075000Y439760D2*
Y335240D1*
X-1131197Y387500D2*
X-1018803D1*
X-350000Y321355D2*
Y275000D1*
X-400292D2*
X-299708D1*
X-250000Y-450000D2*
Y-496355D1*
Y-450000D2*
X-199708D1*
X-350000D2*
Y-496355D1*
X-400292Y-450000D2*
X-350000D1*
X875000Y-97740D2*
Y-202260D1*
X826677Y-150000D2*
X923323D1*
X875000Y-412701D2*
Y-517221D1*
X826677Y-464961D2*
X923323D1*
D16*
X-450000Y800000D3*
Y700000D3*
Y600000D3*
Y500000D3*
Y400000D3*
Y300000D3*
Y200000D3*
Y100000D3*
Y0D3*
Y-100000D3*
Y-200000D3*
Y-300000D3*
Y-400000D3*
Y-500000D3*
Y-600000D3*
Y-700000D3*
X450000Y-1100000D3*
Y-1000000D3*
Y-900000D3*
Y-800000D3*
Y-700000D3*
Y-600000D3*
Y-500000D3*
Y-400000D3*
Y-300000D3*
Y-200000D3*
Y-100000D3*
Y0D3*
Y100000D3*
Y200000D3*
Y300000D3*
Y400000D3*
Y500000D3*
Y600000D3*
Y700000D3*
D17*
Y800000D3*
D18*
X-900000Y-350000D3*
Y-250000D3*
Y-450000D3*
X-644094D3*
Y-250000D3*
D19*
X-1175000Y-100000D3*
X-1064764D3*
D20*
X-950000Y400000D3*
D21*
X-850000D3*
X-750000D3*
X-650000D3*
D22*
X-1125000Y-400000D3*
Y-309843D3*
D24*
X-700000Y100000D3*
X-625197D3*
X-662598Y190551D3*
X-900000Y100000D3*
X-825197D3*
X-862598Y190551D3*
X-1100000Y100000D3*
X-1025197D3*
X-1062598Y190551D3*
D25*
X-1075000Y387500D3*
Y497736D3*
D26*
X-350000Y275000D3*
Y200197D3*
X-250000Y-450000D3*
Y-375197D3*
X-350000Y-450000D3*
Y-375197D3*
X575000Y-625000D3*
Y-550197D3*
D29*
X875000Y-150000D3*
Y-464961D3*
X697835Y-150000D3*
Y-464961D3*
M02*
