G04 DipTrace 3.2.0.1*
G04 ddssl.GTS*
%MOIN*%
G04 #@! TF.FileFunction,Soldermask,Top*
G04 #@! TF.Part,Single*
%ADD25R,0.062992X0.070866*%
%ADD32C,0.570866*%
%ADD33C,0.216535*%
%ADD40R,0.066929X0.059055*%
%ADD42R,0.070866X0.07874*%
%ADD43R,0.033465X0.049213*%
%ADD45R,0.127953X0.067717*%
%ADD47O,0.074803X0.102362*%
%ADD49R,0.074803X0.102362*%
%ADD51R,0.070866X0.114173*%
%ADD53R,0.110236X0.047244*%
%ADD55R,0.066929X0.066929*%
%ADD57C,0.066929*%
%FSLAX26Y26*%
G04*
G70*
G90*
G75*
G01*
G04 TopMask*
%LPD*%
D57*
X1272295Y2574856D3*
Y2474856D3*
Y2374856D3*
Y2274856D3*
Y2174856D3*
Y2074856D3*
Y1974856D3*
Y1874856D3*
Y1774856D3*
Y1674856D3*
Y1574856D3*
Y1474856D3*
Y1374856D3*
Y1274856D3*
Y1174856D3*
Y1074856D3*
X2272295Y674856D3*
Y774856D3*
Y874856D3*
Y974856D3*
Y1074856D3*
Y1174856D3*
Y1274856D3*
Y1374856D3*
Y1474856D3*
Y1574856D3*
Y1674856D3*
Y1774856D3*
Y1874856D3*
Y1974856D3*
Y2074856D3*
Y2174856D3*
Y2274856D3*
Y2374856D3*
Y2474856D3*
D55*
Y2574856D3*
D32*
X1772295Y1774856D3*
D33*
X985838Y2561312D3*
X2558751Y988399D3*
Y2561312D3*
X985838Y988399D3*
D53*
X822295Y1424856D3*
Y1524856D3*
Y1324856D3*
X1078200D3*
Y1524856D3*
D51*
X522295Y1574856D3*
X632531D3*
D49*
X772295Y2174856D3*
D47*
X872295D3*
X972295D3*
X1072295D3*
D45*
X622295Y1324856D3*
Y1415013D3*
D43*
X1022295Y1874856D3*
X1097098D3*
X1059696Y1965407D3*
X822295Y1874856D3*
X897098D3*
X859696Y1965407D3*
X622295Y1874856D3*
X697098D3*
X659696Y1965407D3*
D42*
X627413Y1704974D3*
X517177D3*
D40*
X1384795Y1949856D3*
Y1875052D3*
Y1599856D3*
Y1674659D3*
Y1299856D3*
Y1374659D3*
X2422295Y1299856D3*
Y1374659D3*
D25*
X2697295Y1624856D3*
Y1309895D3*
X2520129Y1624856D3*
Y1309895D3*
M02*
