M48
INCH
T01C0.0191
T02C0.0354
T03C0.0433
T04C0.2165
T05C0.5709
%
T02
X-004500Y+008000
X-004500Y+007000
X-004500Y+006000
X-004500Y+005000
X-004500Y+004000
X-004500Y+003000
X-004500Y+002000
X-004500Y+001000
X-004500Y+000000
X-004500Y-001000
X-004500Y-002000
X-004500Y-003000
X-004500Y-004000
X-004500Y-005000
X-004500Y-006000
X-004500Y-007000
X+004500Y-011000
X+004500Y-010000
X+004500Y-009000
X+004500Y-008000
X+004500Y-007000
X+004500Y-006000
X+004500Y-005000
X+004500Y-004000
X+004500Y-003000
X+004500Y-002000
X+004500Y-001000
X+004500Y+000000
X+004500Y+001000
X+004500Y+002000
X+004500Y+003000
X+004500Y+004000
X+004500Y+005000
X+004500Y+006000
X+004500Y+007000
X+004500Y+008000
T05
X+000000Y+000000
T04
X-007865Y+007865
X+007865Y-007865
X+007865Y+007865
X-007865Y-007865
T03
X-010000Y+004000
X-009000Y+004000
X-008000Y+004000
X-007000Y+004000
T01
X-008500Y-003500
X-008000Y-002500
X-007000Y-003125
X-010500Y-002000
X+009250Y-005250
X-010250Y+001000
X-010375Y+000500
X-008750Y+000500
X-006750Y+000500
X-008250Y+001000
X-006250Y+001000
X-011500Y+006000
X+000000Y+006000
X+011500Y+006000
X-010500Y-003500
X+000000Y-013000
X-013000Y+000500
X-012000Y+000500
X+013000Y+000000
X-006000Y-000500
T00
M30
