M48
INCH
T01C0.0191
T02C0.0354
T03C0.0433
T04C0.2165
T05C0.5709
%
T01
X+009223Y+014249
X+009723Y+015249
X+010723Y+014624
X+011723Y+017249
X+010973Y+018249
X+011473Y+018749
X+009473Y+018749
X+008973Y+018249
X+007473Y+018749
X+007348Y+018249
X+005723Y+018249
X+004723Y+018249
X+007223Y+015749
X+007223Y+014249
X+006223Y+023749
X+017723Y+023749
X+029223Y+023749
X+030723Y+017749
X+026973Y+012499
X+017723Y+004749
T02
X+012723Y+025749
X+012723Y+024749
X+012723Y+023749
X+012723Y+022749
X+012723Y+021749
X+012723Y+020749
X+012723Y+019749
X+012723Y+018749
X+012723Y+017749
X+012723Y+016749
X+012723Y+015749
X+012723Y+014749
X+012723Y+013749
X+012723Y+012749
X+012723Y+011749
X+012723Y+010749
X+022723Y+010749
X+022723Y+009749
X+022723Y+008749
X+022723Y+007749
X+022723Y+006749
X+022723Y+011749
X+022723Y+012749
X+022723Y+013749
X+022723Y+014749
X+022723Y+015749
X+022723Y+016749
X+022723Y+017749
X+022723Y+018749
X+022723Y+019749
X+022723Y+020749
X+022723Y+021749
X+022723Y+022749
X+022723Y+023749
X+022723Y+024749
X+022723Y+025749
T03
X+007723Y+021749
X+008723Y+021749
X+009723Y+021749
X+010723Y+021749
T04
X+009858Y+025613
X+025588Y+025613
X+025588Y+009884
X+009858Y+009884
T05
X+017723Y+017749
T00
M30
