G04 DipTrace 3.2.0.1*
G04 ddssl.GBL*
%MOIN*%
G04 #@! TF.FileFunction,Copper,L2,Bot*
G04 #@! TF.Part,Single*
G04 #@! TA.AperFunction,CopperBalancing*
%ADD14C,0.012992*%
%ADD15C,0.02*%
G04 #@! TA.AperFunction,ComponentPad*
%ADD16C,0.059055*%
%ADD17R,0.059055X0.059055*%
%ADD20R,0.066929X0.094488*%
%ADD21O,0.066929X0.094488*%
G04 #@! TA.AperFunction,ViaPad*
%ADD30C,0.04*%
%FSLAX26Y26*%
G04*
G70*
G90*
G75*
G01*
G04 Bottom*
%LPD*%
D30*
X922295Y1424856D3*
X972295Y1524856D3*
X1072295Y1462356D3*
X722295Y1574856D3*
X2697295Y1249856D3*
X747295Y1874856D3*
X734795Y1824856D3*
X897295D3*
X1097295D3*
X947295Y1874856D3*
X1147295D3*
X622295Y2374856D3*
X1772295D3*
X2922295D3*
X722295Y1424856D3*
X1772295Y474856D3*
X472295Y1824856D3*
X572295D3*
X3072295Y1774856D3*
X1172295Y1724856D3*
X588891Y2399636D2*
D15*
X854596D1*
X1117070D2*
X1226500D1*
X1318093D2*
X2226485D1*
X2318114D2*
X2427508D1*
X2689982D2*
X2954431D1*
X578987Y2379768D2*
X884416D1*
X1087250D2*
X1220220D1*
X1324373D2*
X2220205D1*
X2324394D2*
X2457328D1*
X2660162D2*
X2964335D1*
X569083Y2359899D2*
X936161D1*
X1035541D2*
X1222230D1*
X1322364D2*
X2222250D1*
X2322348D2*
X2509073D1*
X2608453D2*
X2974203D1*
X559215Y2340030D2*
X1233964D1*
X1310629D2*
X2233949D1*
X2310614D2*
X2984107D1*
X549310Y2320161D2*
X1248389D1*
X1296204D2*
X2248374D1*
X2296224D2*
X2994011D1*
X540878Y2300293D2*
X1226859D1*
X1317734D2*
X2226879D1*
X2317719D2*
X3002408D1*
X533198Y2280424D2*
X1220292D1*
X1324301D2*
X2220277D1*
X2324322D2*
X3010123D1*
X525483Y2260555D2*
X1222050D1*
X1322543D2*
X2222035D1*
X2322563D2*
X3017803D1*
X517804Y2240686D2*
X716047D1*
X828561D2*
X854955D1*
X889636D2*
X954964D1*
X989645D2*
X1054938D1*
X1089619D2*
X1233354D1*
X1311239D2*
X2233338D1*
X2311260D2*
X3025518D1*
X510089Y2220817D2*
X716047D1*
X1118003D2*
X1249789D1*
X1294804D2*
X2249809D1*
X2294789D2*
X3033197D1*
X502410Y2200949D2*
X716047D1*
X1127154D2*
X1227254D1*
X1317340D2*
X2227274D1*
X2317324D2*
X3040912D1*
X496453Y2181080D2*
X716047D1*
X1128553D2*
X1220364D1*
X1324229D2*
X2220348D1*
X2324250D2*
X3046833D1*
X490819Y2161211D2*
X716047D1*
X1128553D2*
X1221835D1*
X1322722D2*
X2221856D1*
X2322743D2*
X3052503D1*
X485150Y2141342D2*
X716047D1*
X1124857D2*
X1232744D1*
X1311849D2*
X2232764D1*
X2311834D2*
X3058172D1*
X479516Y2121474D2*
X716047D1*
X911382D2*
X933183D1*
X1011391D2*
X1033192D1*
X1111400D2*
X1251332D1*
X1293261D2*
X1657648D1*
X1886929D2*
X2251316D1*
X2293246D2*
X3063806D1*
X473846Y2101605D2*
X1227648D1*
X1316909D2*
X1608846D1*
X1935732D2*
X2227669D1*
X2316930D2*
X3069476D1*
X468212Y2081736D2*
X1220436D1*
X1324158D2*
X1573679D1*
X1970898D2*
X2220456D1*
X2324142D2*
X3075110D1*
X464193Y2061867D2*
X1221656D1*
X1322902D2*
X1545654D1*
X1998924D2*
X2221676D1*
X2322922D2*
X3079093D1*
X460497Y2041999D2*
X1232170D1*
X1312424D2*
X1522365D1*
X2022213D2*
X2232190D1*
X2312408D2*
X3082825D1*
X456765Y2022130D2*
X1253018D1*
X1291575D2*
X1502557D1*
X2042057D2*
X2253039D1*
X2291559D2*
X3086521D1*
X453069Y2002261D2*
X1228079D1*
X1316514D2*
X1485476D1*
X2059102D2*
X2228099D1*
X2316499D2*
X3090253D1*
X449337Y1982392D2*
X1220543D1*
X1324050D2*
X1470692D1*
X2073886D2*
X2220528D1*
X2324071D2*
X3093949D1*
X445641Y1962524D2*
X1221512D1*
X1323081D2*
X1457881D1*
X2086733D2*
X2221497D1*
X2323102D2*
X3097681D1*
X443273Y1942655D2*
X1231631D1*
X1312962D2*
X1446757D1*
X2097821D2*
X2231616D1*
X2312982D2*
X3100049D1*
X441443Y1922786D2*
X1254956D1*
X1289637D2*
X1437212D1*
X2107402D2*
X2254941D1*
X2289658D2*
X3101879D1*
X439577Y1902917D2*
X1228510D1*
X1316084D2*
X1429066D1*
X2115512D2*
X2228530D1*
X2316068D2*
X3103709D1*
X437747Y1883048D2*
X1220651D1*
X1323942D2*
X1422248D1*
X2122330D2*
X2220635D1*
X2323963D2*
X3105540D1*
X435916Y1863180D2*
X1221333D1*
X1323261D2*
X1416686D1*
X2127892D2*
X2221353D1*
X2323245D2*
X3107406D1*
X434086Y1843311D2*
X1231093D1*
X1313500D2*
X1412308D1*
X2132270D2*
X2231078D1*
X2313521D2*
X3109236D1*
X433171Y1823442D2*
X1257181D1*
X1287412D2*
X1409079D1*
X2135499D2*
X2257166D1*
X2287433D2*
X3110133D1*
X433171Y1803573D2*
X1228976D1*
X1315617D2*
X1406962D1*
X2137616D2*
X2228961D1*
X2315638D2*
X3110133D1*
X433171Y1783705D2*
X1220759D1*
X1323835D2*
X1405957D1*
X2138657D2*
X2220743D1*
X2323855D2*
X3110133D1*
X433171Y1763836D2*
X1221189D1*
X1323404D2*
X1405993D1*
X2138585D2*
X2221174D1*
X2323389D2*
X3110133D1*
X433171Y1743967D2*
X1230555D1*
X1314038D2*
X1407141D1*
X2137437D2*
X2230575D1*
X2314023D2*
X3110133D1*
X433171Y1724098D2*
X1259908D1*
X1284685D2*
X1409402D1*
X2135212D2*
X2259893D1*
X2284670D2*
X3110133D1*
X433692Y1704230D2*
X1229442D1*
X1315151D2*
X1412739D1*
X2131839D2*
X2229427D1*
X2315171D2*
X3109630D1*
X435522Y1684361D2*
X1220866D1*
X1323727D2*
X1417260D1*
X2127353D2*
X2220887D1*
X2323712D2*
X3107800D1*
X437352Y1664492D2*
X1221046D1*
X1323548D2*
X1422930D1*
X2121648D2*
X2221030D1*
X2323532D2*
X3105934D1*
X439182Y1644623D2*
X1230053D1*
X1314541D2*
X1429892D1*
X2114686D2*
X2230073D1*
X2314525D2*
X3104104D1*
X441048Y1624754D2*
X1263748D1*
X1280846D2*
X1438181D1*
X2106397D2*
X2263732D1*
X2280866D2*
X3102274D1*
X442878Y1604886D2*
X1229909D1*
X1314684D2*
X1447905D1*
X2096708D2*
X2229894D1*
X2314669D2*
X3100444D1*
X444852Y1585017D2*
X1221010D1*
X1323584D2*
X1459173D1*
X2085405D2*
X2220994D1*
X2323568D2*
X3098470D1*
X448548Y1565148D2*
X1220902D1*
X1323691D2*
X1472199D1*
X2072379D2*
X2220923D1*
X2323676D2*
X3094738D1*
X452280Y1545279D2*
X1229586D1*
X1315007D2*
X1487234D1*
X2057379D2*
X2229571D1*
X2315028D2*
X3091042D1*
X455976Y1525411D2*
X1260913D1*
X1283680D2*
X1504567D1*
X2040011D2*
X2260898D1*
X2283665D2*
X3087310D1*
X459708Y1505542D2*
X1230411D1*
X1314182D2*
X1524733D1*
X2019844D2*
X2230396D1*
X2314202D2*
X3083614D1*
X463404Y1485673D2*
X1221153D1*
X1323440D2*
X1548453D1*
X1996125D2*
X2221138D1*
X2323461D2*
X3079882D1*
X467136Y1465804D2*
X1220794D1*
X1323799D2*
X1577124D1*
X1967489D2*
X2220779D1*
X2323819D2*
X3076186D1*
X472626Y1445936D2*
X1229120D1*
X1315474D2*
X1613296D1*
X1931282D2*
X2229104D1*
X2315494D2*
X3070660D1*
X478296Y1426067D2*
X1257935D1*
X1286659D2*
X1664574D1*
X1880040D2*
X2257955D1*
X2286643D2*
X3065026D1*
X483965Y1406198D2*
X1230914D1*
X1313680D2*
X2230934D1*
X2313664D2*
X3059357D1*
X489599Y1386329D2*
X1221297D1*
X1323296D2*
X2221281D1*
X2323281D2*
X3053687D1*
X495269Y1366461D2*
X1220687D1*
X1323907D2*
X2220671D1*
X2323927D2*
X3048053D1*
X500903Y1346592D2*
X1228653D1*
X1315940D2*
X2228638D1*
X2315925D2*
X3042383D1*
X508474Y1326723D2*
X1255602D1*
X1288991D2*
X2255587D1*
X2289012D2*
X3034848D1*
X516153Y1306854D2*
X1231452D1*
X1313141D2*
X2231437D1*
X2313126D2*
X3027133D1*
X523869Y1286985D2*
X1221440D1*
X1323153D2*
X2221461D1*
X2323138D2*
X3019453D1*
X531548Y1267117D2*
X1220579D1*
X1324014D2*
X2220564D1*
X2324035D2*
X3011738D1*
X539263Y1247248D2*
X1228222D1*
X1316371D2*
X2228207D1*
X2316391D2*
X3004059D1*
X547193Y1227379D2*
X1253593D1*
X1291001D2*
X2253613D1*
X2290985D2*
X2996093D1*
X557097Y1207510D2*
X1231990D1*
X1312603D2*
X2232011D1*
X2312588D2*
X2986225D1*
X567001Y1187642D2*
X927764D1*
X1043902D2*
X1221620D1*
X1322974D2*
X2221604D1*
X2322958D2*
X2500676D1*
X2616814D2*
X2976321D1*
X576870Y1167773D2*
X880576D1*
X1091126D2*
X1220471D1*
X1324122D2*
X2220456D1*
X2324106D2*
X2453488D1*
X2664037D2*
X2966417D1*
X586774Y1147904D2*
X851941D1*
X1119761D2*
X1227792D1*
X1316801D2*
X2227776D1*
X2316786D2*
X2424852D1*
X2692673D2*
X2956548D1*
X596678Y1128035D2*
X831056D1*
X1140610D2*
X1251834D1*
X1292759D2*
X2251819D1*
X2292744D2*
X2403968D1*
X2713522D2*
X2946644D1*
X607838Y1108167D2*
X815016D1*
X1156650D2*
X1232564D1*
X1312029D2*
X2232585D1*
X2312013D2*
X2387928D1*
X2729562D2*
X2935484D1*
X620146Y1088298D2*
X802564D1*
X1169102D2*
X1221799D1*
X1322794D2*
X2221784D1*
X2322779D2*
X2375476D1*
X2742014D2*
X2923176D1*
X632454Y1068429D2*
X792947D1*
X1178719D2*
X1220364D1*
X1324194D2*
X2220384D1*
X2324214D2*
X2365859D1*
X2751631D2*
X2910868D1*
X644727Y1048560D2*
X785806D1*
X1185896D2*
X1227397D1*
X1317196D2*
X2227382D1*
X2317217D2*
X2358718D1*
X2758807D2*
X2898560D1*
X657035Y1028692D2*
X780818D1*
X1190848D2*
X1250255D1*
X1294338D2*
X2250240D1*
X2294323D2*
X2353730D1*
X2763760D2*
X2886251D1*
X669953Y1008823D2*
X777876D1*
X1193826D2*
X2233159D1*
X2311439D2*
X2350787D1*
X2766738D2*
X2873369D1*
X684953Y988954D2*
X776871D1*
X1194831D2*
X2221999D1*
X2322599D2*
X2349783D1*
X2767743D2*
X2858369D1*
X699952Y969085D2*
X777768D1*
X1193934D2*
X2220313D1*
X2324286D2*
X2350680D1*
X2766846D2*
X2843334D1*
X714952Y949216D2*
X780603D1*
X1191063D2*
X2226987D1*
X2317611D2*
X2353515D1*
X2763975D2*
X2828334D1*
X729951Y929348D2*
X785447D1*
X1186219D2*
X2248805D1*
X2295794D2*
X2358359D1*
X2759130D2*
X2813335D1*
X745741Y909479D2*
X792481D1*
X1179186D2*
X2233769D1*
X2310829D2*
X2365392D1*
X2752097D2*
X2797581D1*
X763862Y889610D2*
X801954D1*
X1169712D2*
X2222179D1*
X2322420D2*
X2374866D1*
X2742624D2*
X2779460D1*
X781948Y869741D2*
X814262D1*
X1157440D2*
X2220241D1*
X2324358D2*
X2387174D1*
X2730351D2*
X2761338D1*
X800069Y849873D2*
X830051D1*
X1141615D2*
X2226592D1*
X2317970D2*
X2402963D1*
X2714526D2*
X2743217D1*
X818191Y830004D2*
X850613D1*
X1121089D2*
X2247477D1*
X2297122D2*
X2423525D1*
X2694001D2*
X2725131D1*
X838645Y810135D2*
X878639D1*
X1093028D2*
X2234415D1*
X2310183D2*
X2451586D1*
X2665939D2*
X2704677D1*
X860426Y790266D2*
X923960D1*
X1047706D2*
X2222394D1*
X2322205D2*
X2496872D1*
X2620617D2*
X2682860D1*
X882244Y770398D2*
X2220169D1*
X2324429D2*
X2661078D1*
X904026Y750529D2*
X2226233D1*
X2318365D2*
X2639296D1*
X927781Y730660D2*
X2246221D1*
X2298377D2*
X2615541D1*
X954084Y710791D2*
X2235061D1*
X2309537D2*
X2589202D1*
X980387Y690922D2*
X2222609D1*
X2321989D2*
X2562899D1*
X1006726Y671054D2*
X2220097D1*
X2324465D2*
X2536596D1*
X1036905Y651185D2*
X2225875D1*
X2318724D2*
X2506381D1*
X1069021Y631316D2*
X2245037D1*
X2299526D2*
X2474301D1*
X1101102Y611447D2*
X2442220D1*
X1136232Y591579D2*
X2407090D1*
X1176135Y571710D2*
X2367187D1*
X1216039Y551841D2*
X2327283D1*
X1262868Y531972D2*
X2280419D1*
X1314182Y512104D2*
X2229140D1*
X1372063Y492235D2*
X2171259D1*
X1441894Y472366D2*
X2101428D1*
X1535372Y452497D2*
X2007950D1*
X1695954Y432629D2*
X1847332D1*
X1322467Y2370907D2*
X1321232Y2363107D1*
X1318791Y2355596D1*
X1315206Y2348559D1*
X1310564Y2342170D1*
X1304980Y2336586D1*
X1298591Y2331944D1*
X1291554Y2328359D1*
X1284043Y2325919D1*
X1277853Y2324874D1*
X1284043Y2323793D1*
X1291554Y2321352D1*
X1298591Y2317767D1*
X1304980Y2313125D1*
X1310564Y2307541D1*
X1315206Y2301152D1*
X1318791Y2294115D1*
X1321232Y2286604D1*
X1322467Y2278804D1*
Y2270907D1*
X1321232Y2263107D1*
X1318791Y2255596D1*
X1315206Y2248559D1*
X1310564Y2242170D1*
X1304980Y2236586D1*
X1298591Y2231944D1*
X1291554Y2228359D1*
X1284043Y2225919D1*
X1277853Y2224874D1*
X1284043Y2223793D1*
X1291554Y2221352D1*
X1298591Y2217767D1*
X1304980Y2213125D1*
X1310564Y2207541D1*
X1315206Y2201152D1*
X1318791Y2194115D1*
X1321232Y2186604D1*
X1322467Y2178804D1*
Y2170907D1*
X1321232Y2163107D1*
X1318791Y2155596D1*
X1315206Y2148559D1*
X1310564Y2142170D1*
X1304980Y2136586D1*
X1298591Y2131944D1*
X1291554Y2128359D1*
X1284043Y2125919D1*
X1277853Y2124874D1*
X1284043Y2123793D1*
X1291554Y2121352D1*
X1298591Y2117767D1*
X1304980Y2113125D1*
X1310564Y2107541D1*
X1315206Y2101152D1*
X1318791Y2094115D1*
X1321232Y2086604D1*
X1322467Y2078804D1*
Y2070907D1*
X1321232Y2063107D1*
X1318791Y2055596D1*
X1315206Y2048559D1*
X1310564Y2042170D1*
X1304980Y2036586D1*
X1298591Y2031944D1*
X1291554Y2028359D1*
X1284043Y2025919D1*
X1277853Y2024874D1*
X1284043Y2023793D1*
X1291554Y2021352D1*
X1298591Y2017767D1*
X1304980Y2013125D1*
X1310564Y2007541D1*
X1315206Y2001152D1*
X1318791Y1994115D1*
X1321232Y1986604D1*
X1322467Y1978804D1*
Y1970907D1*
X1321232Y1963107D1*
X1318791Y1955596D1*
X1315206Y1948559D1*
X1310564Y1942170D1*
X1304980Y1936586D1*
X1298591Y1931944D1*
X1291554Y1928359D1*
X1284043Y1925919D1*
X1277853Y1924874D1*
X1284043Y1923793D1*
X1291554Y1921352D1*
X1298591Y1917767D1*
X1304980Y1913125D1*
X1310564Y1907541D1*
X1315206Y1901152D1*
X1318791Y1894115D1*
X1321232Y1886604D1*
X1322467Y1878804D1*
Y1870907D1*
X1321232Y1863107D1*
X1318791Y1855596D1*
X1315206Y1848559D1*
X1310564Y1842170D1*
X1304980Y1836586D1*
X1298591Y1831944D1*
X1291554Y1828359D1*
X1284043Y1825919D1*
X1277853Y1824874D1*
X1284043Y1823793D1*
X1291554Y1821352D1*
X1298591Y1817767D1*
X1304980Y1813125D1*
X1310564Y1807541D1*
X1315206Y1801152D1*
X1318791Y1794115D1*
X1321232Y1786604D1*
X1322467Y1778804D1*
Y1770907D1*
X1321232Y1763107D1*
X1318791Y1755596D1*
X1315206Y1748559D1*
X1310564Y1742170D1*
X1304980Y1736586D1*
X1298591Y1731944D1*
X1291554Y1728359D1*
X1284043Y1725919D1*
X1277853Y1724874D1*
X1284043Y1723793D1*
X1291554Y1721352D1*
X1298591Y1717767D1*
X1304980Y1713125D1*
X1310564Y1707541D1*
X1315206Y1701152D1*
X1318791Y1694115D1*
X1321232Y1686604D1*
X1322467Y1678804D1*
Y1670907D1*
X1321232Y1663107D1*
X1318791Y1655596D1*
X1315206Y1648559D1*
X1310564Y1642170D1*
X1304980Y1636586D1*
X1298591Y1631944D1*
X1291554Y1628359D1*
X1284043Y1625919D1*
X1277853Y1624874D1*
X1284043Y1623793D1*
X1291554Y1621352D1*
X1298591Y1617767D1*
X1304980Y1613125D1*
X1310564Y1607541D1*
X1315206Y1601152D1*
X1318791Y1594115D1*
X1321232Y1586604D1*
X1322467Y1578804D1*
Y1570907D1*
X1321232Y1563107D1*
X1318791Y1555596D1*
X1315206Y1548559D1*
X1310564Y1542170D1*
X1304980Y1536586D1*
X1298591Y1531944D1*
X1291554Y1528359D1*
X1284043Y1525919D1*
X1277853Y1524874D1*
X1284043Y1523793D1*
X1291554Y1521352D1*
X1298591Y1517767D1*
X1304980Y1513125D1*
X1310564Y1507541D1*
X1315206Y1501152D1*
X1318791Y1494115D1*
X1321232Y1486604D1*
X1322467Y1478804D1*
Y1470907D1*
X1321232Y1463107D1*
X1318791Y1455596D1*
X1315206Y1448559D1*
X1310564Y1442170D1*
X1304980Y1436586D1*
X1298591Y1431944D1*
X1291554Y1428359D1*
X1284043Y1425919D1*
X1277853Y1424874D1*
X1284043Y1423793D1*
X1291554Y1421352D1*
X1298591Y1417767D1*
X1304980Y1413125D1*
X1310564Y1407541D1*
X1315206Y1401152D1*
X1318791Y1394115D1*
X1321232Y1386604D1*
X1322467Y1378804D1*
Y1370907D1*
X1321232Y1363107D1*
X1318791Y1355596D1*
X1315206Y1348559D1*
X1310564Y1342170D1*
X1304980Y1336586D1*
X1298591Y1331944D1*
X1291554Y1328359D1*
X1284043Y1325919D1*
X1277853Y1324874D1*
X1284043Y1323793D1*
X1291554Y1321352D1*
X1298591Y1317767D1*
X1304980Y1313125D1*
X1310564Y1307541D1*
X1315206Y1301152D1*
X1318791Y1294115D1*
X1321232Y1286604D1*
X1322467Y1278804D1*
Y1270907D1*
X1321232Y1263107D1*
X1318791Y1255596D1*
X1315206Y1248559D1*
X1310564Y1242170D1*
X1304980Y1236586D1*
X1298591Y1231944D1*
X1291554Y1228359D1*
X1284043Y1225919D1*
X1277853Y1224874D1*
X1284043Y1223793D1*
X1291554Y1221352D1*
X1298591Y1217767D1*
X1304980Y1213125D1*
X1310564Y1207541D1*
X1315206Y1201152D1*
X1318791Y1194115D1*
X1321232Y1186604D1*
X1322467Y1178804D1*
Y1170907D1*
X1321232Y1163107D1*
X1318791Y1155596D1*
X1315206Y1148559D1*
X1310564Y1142170D1*
X1304980Y1136586D1*
X1298591Y1131944D1*
X1291554Y1128359D1*
X1284043Y1125919D1*
X1277853Y1124874D1*
X1284866Y1123588D1*
X1291823Y1121240D1*
X1298364Y1117905D1*
X1304351Y1113653D1*
X1309655Y1108576D1*
X1314164Y1102781D1*
X1317782Y1096392D1*
X1320431Y1089544D1*
X1322056Y1082383D1*
X1322622Y1074856D1*
X1322087Y1067533D1*
X1320491Y1060365D1*
X1317870Y1053507D1*
X1314278Y1047102D1*
X1309793Y1041289D1*
X1304510Y1036190D1*
X1298541Y1031914D1*
X1292013Y1028552D1*
X1285066Y1026175D1*
X1277847Y1024835D1*
X1270509Y1024560D1*
X1263210Y1025355D1*
X1256104Y1027203D1*
X1249343Y1030066D1*
X1243070Y1033883D1*
X1237419Y1038571D1*
X1232511Y1044032D1*
X1228449Y1050149D1*
X1225321Y1056792D1*
X1223192Y1063819D1*
X1222109Y1071081D1*
X1222094Y1078424D1*
X1223147Y1085690D1*
X1225247Y1092726D1*
X1228348Y1099382D1*
X1232384Y1105515D1*
X1237270Y1110996D1*
X1242902Y1115708D1*
X1249159Y1119550D1*
X1255908Y1122441D1*
X1263007Y1124319D1*
X1266561Y1124854D1*
X1260546Y1125919D1*
X1253035Y1128359D1*
X1245999Y1131944D1*
X1239610Y1136586D1*
X1234025Y1142170D1*
X1229383Y1148559D1*
X1225798Y1155596D1*
X1223358Y1163107D1*
X1222122Y1170907D1*
Y1178804D1*
X1223358Y1186604D1*
X1225798Y1194115D1*
X1229383Y1201152D1*
X1234025Y1207541D1*
X1239610Y1213125D1*
X1245999Y1217767D1*
X1253035Y1221352D1*
X1260546Y1223793D1*
X1266736Y1224837D1*
X1260546Y1225919D1*
X1253035Y1228359D1*
X1245999Y1231944D1*
X1239610Y1236586D1*
X1234025Y1242170D1*
X1229383Y1248559D1*
X1225798Y1255596D1*
X1223358Y1263107D1*
X1222122Y1270907D1*
Y1278804D1*
X1223358Y1286604D1*
X1225798Y1294115D1*
X1229383Y1301152D1*
X1234025Y1307541D1*
X1239610Y1313125D1*
X1245999Y1317767D1*
X1253035Y1321352D1*
X1260546Y1323793D1*
X1266736Y1324837D1*
X1260546Y1325919D1*
X1253035Y1328359D1*
X1245999Y1331944D1*
X1239610Y1336586D1*
X1234025Y1342170D1*
X1229383Y1348559D1*
X1225798Y1355596D1*
X1223358Y1363107D1*
X1222122Y1370907D1*
Y1378804D1*
X1223358Y1386604D1*
X1225798Y1394115D1*
X1229383Y1401152D1*
X1234025Y1407541D1*
X1239610Y1413125D1*
X1245999Y1417767D1*
X1253035Y1421352D1*
X1260546Y1423793D1*
X1266736Y1424837D1*
X1260546Y1425919D1*
X1253035Y1428359D1*
X1245999Y1431944D1*
X1239610Y1436586D1*
X1234025Y1442170D1*
X1229383Y1448559D1*
X1225798Y1455596D1*
X1223358Y1463107D1*
X1222122Y1470907D1*
Y1478804D1*
X1223358Y1486604D1*
X1225798Y1494115D1*
X1229383Y1501152D1*
X1234025Y1507541D1*
X1239610Y1513125D1*
X1245999Y1517767D1*
X1253035Y1521352D1*
X1260546Y1523793D1*
X1266736Y1524837D1*
X1260546Y1525919D1*
X1253035Y1528359D1*
X1245999Y1531944D1*
X1239610Y1536586D1*
X1234025Y1542170D1*
X1229383Y1548559D1*
X1225798Y1555596D1*
X1223358Y1563107D1*
X1222122Y1570907D1*
Y1578804D1*
X1223358Y1586604D1*
X1225798Y1594115D1*
X1229383Y1601152D1*
X1234025Y1607541D1*
X1239610Y1613125D1*
X1245999Y1617767D1*
X1253035Y1621352D1*
X1260546Y1623793D1*
X1266736Y1624837D1*
X1260546Y1625919D1*
X1253035Y1628359D1*
X1245999Y1631944D1*
X1239610Y1636586D1*
X1234025Y1642170D1*
X1229383Y1648559D1*
X1225798Y1655596D1*
X1223358Y1663107D1*
X1222122Y1670907D1*
Y1678804D1*
X1223358Y1686604D1*
X1225798Y1694115D1*
X1229383Y1701152D1*
X1234025Y1707541D1*
X1239610Y1713125D1*
X1245999Y1717767D1*
X1253035Y1721352D1*
X1260546Y1723793D1*
X1266736Y1724837D1*
X1260546Y1725919D1*
X1253035Y1728359D1*
X1245999Y1731944D1*
X1239610Y1736586D1*
X1234025Y1742170D1*
X1229383Y1748559D1*
X1225798Y1755596D1*
X1223358Y1763107D1*
X1222122Y1770907D1*
Y1778804D1*
X1223358Y1786604D1*
X1225798Y1794115D1*
X1229383Y1801152D1*
X1234025Y1807541D1*
X1239610Y1813125D1*
X1245999Y1817767D1*
X1253035Y1821352D1*
X1260546Y1823793D1*
X1266736Y1824837D1*
X1260546Y1825919D1*
X1253035Y1828359D1*
X1245999Y1831944D1*
X1239610Y1836586D1*
X1234025Y1842170D1*
X1229383Y1848559D1*
X1225798Y1855596D1*
X1223358Y1863107D1*
X1222122Y1870907D1*
Y1878804D1*
X1223358Y1886604D1*
X1225798Y1894115D1*
X1229383Y1901152D1*
X1234025Y1907541D1*
X1239610Y1913125D1*
X1245999Y1917767D1*
X1253035Y1921352D1*
X1260546Y1923793D1*
X1266736Y1924837D1*
X1260546Y1925919D1*
X1253035Y1928359D1*
X1245999Y1931944D1*
X1239610Y1936586D1*
X1234025Y1942170D1*
X1229383Y1948559D1*
X1225798Y1955596D1*
X1223358Y1963107D1*
X1222122Y1970907D1*
Y1978804D1*
X1223358Y1986604D1*
X1225798Y1994115D1*
X1229383Y2001152D1*
X1234025Y2007541D1*
X1239610Y2013125D1*
X1245999Y2017767D1*
X1253035Y2021352D1*
X1260546Y2023793D1*
X1266736Y2024837D1*
X1260546Y2025919D1*
X1253035Y2028359D1*
X1245999Y2031944D1*
X1239610Y2036586D1*
X1234025Y2042170D1*
X1229383Y2048559D1*
X1225798Y2055596D1*
X1223358Y2063107D1*
X1222122Y2070907D1*
Y2078804D1*
X1223358Y2086604D1*
X1225798Y2094115D1*
X1229383Y2101152D1*
X1234025Y2107541D1*
X1239610Y2113125D1*
X1245999Y2117767D1*
X1253035Y2121352D1*
X1260546Y2123793D1*
X1266736Y2124837D1*
X1260546Y2125919D1*
X1253035Y2128359D1*
X1245999Y2131944D1*
X1239610Y2136586D1*
X1234025Y2142170D1*
X1229383Y2148559D1*
X1225798Y2155596D1*
X1223358Y2163107D1*
X1222122Y2170907D1*
Y2178804D1*
X1223358Y2186604D1*
X1225798Y2194115D1*
X1229383Y2201152D1*
X1234025Y2207541D1*
X1239610Y2213125D1*
X1245999Y2217767D1*
X1253035Y2221352D1*
X1260546Y2223793D1*
X1266736Y2224837D1*
X1260546Y2225919D1*
X1253035Y2228359D1*
X1245999Y2231944D1*
X1239610Y2236586D1*
X1234025Y2242170D1*
X1229383Y2248559D1*
X1225798Y2255596D1*
X1223358Y2263107D1*
X1222122Y2270907D1*
Y2278804D1*
X1223358Y2286604D1*
X1225798Y2294115D1*
X1229383Y2301152D1*
X1234025Y2307541D1*
X1239610Y2313125D1*
X1245999Y2317767D1*
X1253035Y2321352D1*
X1260546Y2323793D1*
X1266736Y2324837D1*
X1260546Y2325919D1*
X1253035Y2328359D1*
X1245999Y2331944D1*
X1239610Y2336586D1*
X1234025Y2342170D1*
X1229383Y2348559D1*
X1225798Y2355596D1*
X1223358Y2363107D1*
X1222122Y2370907D1*
Y2378804D1*
X1223358Y2386604D1*
X1225798Y2394115D1*
X1229383Y2401152D1*
X1234025Y2407541D1*
X1239610Y2413125D1*
X1245999Y2417767D1*
X1249110Y2419509D1*
X1136592Y2419505D1*
X1123486Y2406734D1*
X1109241Y2395141D1*
X1094025Y2384855D1*
X1077956Y2375959D1*
X1061162Y2368523D1*
X1043775Y2362605D1*
X1025932Y2358251D1*
X1007773Y2355496D1*
X989441Y2354362D1*
X971081Y2354857D1*
X952838Y2356978D1*
X934854Y2360708D1*
X917271Y2366018D1*
X900229Y2372865D1*
X883860Y2381196D1*
X868295Y2390945D1*
X853655Y2402036D1*
X840055Y2414381D1*
X835099Y2419521D1*
X596750Y2419505D1*
X544072Y2313666D1*
X499298Y2198087D1*
X465379Y2078869D1*
X442604Y1957031D1*
X431170Y1833612D1*
X431171Y1709662D1*
X442610Y1586243D1*
X465386Y1464405D1*
X499308Y1345189D1*
X544085Y1229611D1*
X599336Y1118657D1*
X664587Y1013274D1*
X739284Y914362D1*
X822788Y822765D1*
X914388Y739263D1*
X1013302Y664568D1*
X1118685Y599319D1*
X1229641Y544072D1*
X1345220Y499299D1*
X1464437Y465380D1*
X1586275Y442605D1*
X1709695Y431171D1*
X1833644Y431172D1*
X1957063Y442609D1*
X2078901Y465387D1*
X2198117Y499308D1*
X2313696Y544085D1*
X2424650Y599334D1*
X2530032Y664586D1*
X2628944Y739283D1*
X2720542Y822787D1*
X2804044Y914387D1*
X2878739Y1013301D1*
X2943989Y1118685D1*
X2999236Y1229640D1*
X3044009Y1345219D1*
X3077928Y1464435D1*
X3100703Y1586274D1*
X3112139Y1709694D1*
X3112137Y1833642D1*
X3100699Y1957062D1*
X3077922Y2078900D1*
X3044001Y2198117D1*
X2999225Y2313695D1*
X2946540Y2419494D1*
X2709539Y2419505D1*
X2696400Y2406734D1*
X2682155Y2395141D1*
X2666938Y2384855D1*
X2650869Y2375959D1*
X2634076Y2368523D1*
X2616689Y2362605D1*
X2598845Y2358251D1*
X2580686Y2355496D1*
X2562355Y2354362D1*
X2543995Y2354857D1*
X2525751Y2356978D1*
X2507767Y2360708D1*
X2490185Y2366018D1*
X2473142Y2372865D1*
X2456773Y2381196D1*
X2441208Y2390945D1*
X2426568Y2402036D1*
X2412969Y2414381D1*
X2408013Y2419521D1*
X2295508Y2419505D1*
X2301876Y2415571D1*
X2307882Y2410443D1*
X2313011Y2404437D1*
X2317137Y2397704D1*
X2320159Y2390408D1*
X2322003Y2382729D1*
X2322622Y2374856D1*
X2322003Y2366983D1*
X2320159Y2359303D1*
X2317137Y2352007D1*
X2313011Y2345274D1*
X2307882Y2339269D1*
X2301876Y2334140D1*
X2295143Y2330013D1*
X2287847Y2326991D1*
X2280168Y2325148D1*
X2277853Y2324874D1*
X2284043Y2323793D1*
X2291554Y2321352D1*
X2298591Y2317767D1*
X2304980Y2313125D1*
X2310564Y2307541D1*
X2315206Y2301152D1*
X2318791Y2294115D1*
X2321232Y2286604D1*
X2322467Y2278804D1*
Y2270907D1*
X2321232Y2263107D1*
X2318791Y2255596D1*
X2315206Y2248559D1*
X2310564Y2242170D1*
X2304980Y2236586D1*
X2298591Y2231944D1*
X2291554Y2228359D1*
X2284043Y2225919D1*
X2277853Y2224874D1*
X2284043Y2223793D1*
X2291554Y2221352D1*
X2298591Y2217767D1*
X2304980Y2213125D1*
X2310564Y2207541D1*
X2315206Y2201152D1*
X2318791Y2194115D1*
X2321232Y2186604D1*
X2322467Y2178804D1*
Y2170907D1*
X2321232Y2163107D1*
X2318791Y2155596D1*
X2315206Y2148559D1*
X2310564Y2142170D1*
X2304980Y2136586D1*
X2298591Y2131944D1*
X2291554Y2128359D1*
X2284043Y2125919D1*
X2277853Y2124874D1*
X2284043Y2123793D1*
X2291554Y2121352D1*
X2298591Y2117767D1*
X2304980Y2113125D1*
X2310564Y2107541D1*
X2315206Y2101152D1*
X2318791Y2094115D1*
X2321232Y2086604D1*
X2322467Y2078804D1*
Y2070907D1*
X2321232Y2063107D1*
X2318791Y2055596D1*
X2315206Y2048559D1*
X2310564Y2042170D1*
X2304980Y2036586D1*
X2298591Y2031944D1*
X2291554Y2028359D1*
X2284043Y2025919D1*
X2277853Y2024874D1*
X2284866Y2023588D1*
X2291823Y2021240D1*
X2298364Y2017905D1*
X2304351Y2013653D1*
X2309655Y2008576D1*
X2314164Y2002781D1*
X2317782Y1996392D1*
X2320431Y1989544D1*
X2322056Y1982383D1*
X2322622Y1974856D1*
X2322087Y1967533D1*
X2320491Y1960365D1*
X2317870Y1953507D1*
X2314278Y1947102D1*
X2309793Y1941289D1*
X2304510Y1936190D1*
X2298541Y1931914D1*
X2292013Y1928552D1*
X2285066Y1926175D1*
X2278011Y1924856D1*
X2284866Y1923588D1*
X2291823Y1921240D1*
X2298364Y1917905D1*
X2304351Y1913653D1*
X2309655Y1908576D1*
X2314164Y1902781D1*
X2317782Y1896392D1*
X2320431Y1889544D1*
X2322056Y1882383D1*
X2322622Y1874856D1*
X2322087Y1867533D1*
X2320491Y1860365D1*
X2317870Y1853507D1*
X2314278Y1847102D1*
X2309793Y1841289D1*
X2304510Y1836190D1*
X2298541Y1831914D1*
X2292013Y1828552D1*
X2285066Y1826175D1*
X2278011Y1824856D1*
X2284043Y1823793D1*
X2291554Y1821352D1*
X2298591Y1817767D1*
X2304980Y1813125D1*
X2310564Y1807541D1*
X2315206Y1801152D1*
X2318791Y1794115D1*
X2321232Y1786604D1*
X2322467Y1778804D1*
Y1770907D1*
X2321232Y1763107D1*
X2318791Y1755596D1*
X2315206Y1748559D1*
X2310564Y1742170D1*
X2304980Y1736586D1*
X2298591Y1731944D1*
X2291554Y1728359D1*
X2284043Y1725919D1*
X2277853Y1724874D1*
X2284043Y1723793D1*
X2291554Y1721352D1*
X2298591Y1717767D1*
X2304980Y1713125D1*
X2310564Y1707541D1*
X2315206Y1701152D1*
X2318791Y1694115D1*
X2321232Y1686604D1*
X2322467Y1678804D1*
Y1670907D1*
X2321232Y1663107D1*
X2318791Y1655596D1*
X2315206Y1648559D1*
X2310564Y1642170D1*
X2304980Y1636586D1*
X2298591Y1631944D1*
X2291554Y1628359D1*
X2284043Y1625919D1*
X2277853Y1624874D1*
X2284043Y1623793D1*
X2291554Y1621352D1*
X2298591Y1617767D1*
X2304980Y1613125D1*
X2310564Y1607541D1*
X2315206Y1601152D1*
X2318791Y1594115D1*
X2321232Y1586604D1*
X2322467Y1578804D1*
Y1570907D1*
X2321232Y1563107D1*
X2318791Y1555596D1*
X2315206Y1548559D1*
X2310564Y1542170D1*
X2304980Y1536586D1*
X2298591Y1531944D1*
X2291554Y1528359D1*
X2284043Y1525919D1*
X2277853Y1524874D1*
X2284043Y1523793D1*
X2291554Y1521352D1*
X2298591Y1517767D1*
X2304980Y1513125D1*
X2310564Y1507541D1*
X2315206Y1501152D1*
X2318791Y1494115D1*
X2321232Y1486604D1*
X2322467Y1478804D1*
Y1470907D1*
X2321232Y1463107D1*
X2318791Y1455596D1*
X2315206Y1448559D1*
X2310564Y1442170D1*
X2304980Y1436586D1*
X2298591Y1431944D1*
X2291554Y1428359D1*
X2284043Y1425919D1*
X2277853Y1424874D1*
X2284043Y1423793D1*
X2291554Y1421352D1*
X2298591Y1417767D1*
X2304980Y1413125D1*
X2310564Y1407541D1*
X2315206Y1401152D1*
X2318791Y1394115D1*
X2321232Y1386604D1*
X2322467Y1378804D1*
Y1370907D1*
X2321232Y1363107D1*
X2318791Y1355596D1*
X2315206Y1348559D1*
X2310564Y1342170D1*
X2304980Y1336586D1*
X2298591Y1331944D1*
X2291554Y1328359D1*
X2284043Y1325919D1*
X2277853Y1324874D1*
X2284043Y1323793D1*
X2291554Y1321352D1*
X2298591Y1317767D1*
X2304980Y1313125D1*
X2310564Y1307541D1*
X2315206Y1301152D1*
X2318791Y1294115D1*
X2321232Y1286604D1*
X2322467Y1278804D1*
Y1270907D1*
X2321232Y1263107D1*
X2318791Y1255596D1*
X2315206Y1248559D1*
X2310564Y1242170D1*
X2304980Y1236586D1*
X2298591Y1231944D1*
X2291554Y1228359D1*
X2284043Y1225919D1*
X2277853Y1224874D1*
X2284043Y1223793D1*
X2291554Y1221352D1*
X2298591Y1217767D1*
X2304980Y1213125D1*
X2310564Y1207541D1*
X2315206Y1201152D1*
X2318791Y1194115D1*
X2321232Y1186604D1*
X2322467Y1178804D1*
Y1170907D1*
X2321232Y1163107D1*
X2318791Y1155596D1*
X2315206Y1148559D1*
X2310564Y1142170D1*
X2304980Y1136586D1*
X2298591Y1131944D1*
X2291554Y1128359D1*
X2284043Y1125919D1*
X2277853Y1124874D1*
X2284043Y1123793D1*
X2291554Y1121352D1*
X2298591Y1117767D1*
X2304980Y1113125D1*
X2310564Y1107541D1*
X2315206Y1101152D1*
X2318791Y1094115D1*
X2321232Y1086604D1*
X2322467Y1078804D1*
Y1070907D1*
X2321232Y1063107D1*
X2318791Y1055596D1*
X2315206Y1048559D1*
X2310564Y1042170D1*
X2304980Y1036586D1*
X2298591Y1031944D1*
X2291554Y1028359D1*
X2284043Y1025919D1*
X2277853Y1024874D1*
X2284043Y1023793D1*
X2291554Y1021352D1*
X2298591Y1017767D1*
X2304980Y1013125D1*
X2310564Y1007541D1*
X2315206Y1001152D1*
X2318791Y994115D1*
X2321232Y986604D1*
X2322467Y978804D1*
Y970907D1*
X2321232Y963107D1*
X2318791Y955596D1*
X2315206Y948559D1*
X2310564Y942170D1*
X2304980Y936586D1*
X2298591Y931944D1*
X2291554Y928359D1*
X2284043Y925919D1*
X2277853Y924874D1*
X2284866Y923588D1*
X2291823Y921240D1*
X2298364Y917905D1*
X2304351Y913653D1*
X2309655Y908576D1*
X2314164Y902781D1*
X2317782Y896392D1*
X2320431Y889544D1*
X2322056Y882383D1*
X2322622Y874856D1*
X2322087Y867533D1*
X2320491Y860365D1*
X2317870Y853507D1*
X2314278Y847102D1*
X2309793Y841289D1*
X2304510Y836190D1*
X2298541Y831914D1*
X2292013Y828552D1*
X2285066Y826175D1*
X2278011Y824856D1*
X2284043Y823793D1*
X2291554Y821352D1*
X2298591Y817767D1*
X2304980Y813125D1*
X2310564Y807541D1*
X2315206Y801152D1*
X2318791Y794115D1*
X2321232Y786604D1*
X2322467Y778804D1*
Y770907D1*
X2321232Y763107D1*
X2318791Y755596D1*
X2315206Y748559D1*
X2310564Y742170D1*
X2304980Y736586D1*
X2298591Y731944D1*
X2291554Y728359D1*
X2284043Y725919D1*
X2277853Y724874D1*
X2284043Y723793D1*
X2291554Y721352D1*
X2298591Y717767D1*
X2304980Y713125D1*
X2310564Y707541D1*
X2315206Y701152D1*
X2318791Y694115D1*
X2321232Y686604D1*
X2322467Y678804D1*
Y670907D1*
X2321232Y663107D1*
X2318791Y655596D1*
X2315206Y648559D1*
X2310564Y642170D1*
X2304980Y636586D1*
X2298591Y631944D1*
X2291554Y628359D1*
X2284043Y625919D1*
X2276243Y624683D1*
X2268346D1*
X2260546Y625919D1*
X2253035Y628359D1*
X2245999Y631944D1*
X2239610Y636586D1*
X2234025Y642170D1*
X2229383Y648559D1*
X2225798Y655596D1*
X2223358Y663107D1*
X2222122Y670907D1*
Y678804D1*
X2223358Y686604D1*
X2225798Y694115D1*
X2229383Y701152D1*
X2234025Y707541D1*
X2239610Y713125D1*
X2245999Y717767D1*
X2253035Y721352D1*
X2260546Y723793D1*
X2266736Y724837D1*
X2260546Y725919D1*
X2253035Y728359D1*
X2245999Y731944D1*
X2239610Y736586D1*
X2234025Y742170D1*
X2229383Y748559D1*
X2225798Y755596D1*
X2223358Y763107D1*
X2222122Y770907D1*
Y778804D1*
X2223358Y786604D1*
X2225798Y794115D1*
X2229383Y801152D1*
X2234025Y807541D1*
X2239610Y813125D1*
X2245999Y817767D1*
X2253035Y821352D1*
X2260546Y823793D1*
X2266736Y824837D1*
X2259623Y826149D1*
X2252671Y828511D1*
X2246137Y831860D1*
X2240159Y836124D1*
X2234865Y841212D1*
X2230368Y847016D1*
X2226764Y853413D1*
X2224128Y860266D1*
X2222518Y867430D1*
X2221967Y874752D1*
X2222488Y882076D1*
X2224069Y889247D1*
X2226676Y896111D1*
X2230254Y902522D1*
X2234727Y908345D1*
X2240000Y913455D1*
X2245960Y917743D1*
X2252481Y921119D1*
X2259423Y923509D1*
X2266561Y924854D1*
X2260546Y925919D1*
X2253035Y928359D1*
X2245999Y931944D1*
X2239610Y936586D1*
X2234025Y942170D1*
X2229383Y948559D1*
X2225798Y955596D1*
X2223358Y963107D1*
X2222122Y970907D1*
Y978804D1*
X2223358Y986604D1*
X2225798Y994115D1*
X2229383Y1001152D1*
X2234025Y1007541D1*
X2239610Y1013125D1*
X2245999Y1017767D1*
X2253035Y1021352D1*
X2260546Y1023793D1*
X2266736Y1024837D1*
X2260546Y1025919D1*
X2253035Y1028359D1*
X2245999Y1031944D1*
X2239610Y1036586D1*
X2234025Y1042170D1*
X2229383Y1048559D1*
X2225798Y1055596D1*
X2223358Y1063107D1*
X2222122Y1070907D1*
Y1078804D1*
X2223358Y1086604D1*
X2225798Y1094115D1*
X2229383Y1101152D1*
X2234025Y1107541D1*
X2239610Y1113125D1*
X2245999Y1117767D1*
X2253035Y1121352D1*
X2260546Y1123793D1*
X2266736Y1124837D1*
X2260546Y1125919D1*
X2253035Y1128359D1*
X2245999Y1131944D1*
X2239610Y1136586D1*
X2234025Y1142170D1*
X2229383Y1148559D1*
X2225798Y1155596D1*
X2223358Y1163107D1*
X2222122Y1170907D1*
Y1178804D1*
X2223358Y1186604D1*
X2225798Y1194115D1*
X2229383Y1201152D1*
X2234025Y1207541D1*
X2239610Y1213125D1*
X2245999Y1217767D1*
X2253035Y1221352D1*
X2260546Y1223793D1*
X2266736Y1224837D1*
X2260546Y1225919D1*
X2253035Y1228359D1*
X2245999Y1231944D1*
X2239610Y1236586D1*
X2234025Y1242170D1*
X2229383Y1248559D1*
X2225798Y1255596D1*
X2223358Y1263107D1*
X2222122Y1270907D1*
Y1278804D1*
X2223358Y1286604D1*
X2225798Y1294115D1*
X2229383Y1301152D1*
X2234025Y1307541D1*
X2239610Y1313125D1*
X2245999Y1317767D1*
X2253035Y1321352D1*
X2260546Y1323793D1*
X2266736Y1324837D1*
X2260546Y1325919D1*
X2253035Y1328359D1*
X2245999Y1331944D1*
X2239610Y1336586D1*
X2234025Y1342170D1*
X2229383Y1348559D1*
X2225798Y1355596D1*
X2223358Y1363107D1*
X2222122Y1370907D1*
Y1378804D1*
X2223358Y1386604D1*
X2225798Y1394115D1*
X2229383Y1401152D1*
X2234025Y1407541D1*
X2239610Y1413125D1*
X2245999Y1417767D1*
X2253035Y1421352D1*
X2260546Y1423793D1*
X2266736Y1424837D1*
X2260546Y1425919D1*
X2253035Y1428359D1*
X2245999Y1431944D1*
X2239610Y1436586D1*
X2234025Y1442170D1*
X2229383Y1448559D1*
X2225798Y1455596D1*
X2223358Y1463107D1*
X2222122Y1470907D1*
Y1478804D1*
X2223358Y1486604D1*
X2225798Y1494115D1*
X2229383Y1501152D1*
X2234025Y1507541D1*
X2239610Y1513125D1*
X2245999Y1517767D1*
X2253035Y1521352D1*
X2260546Y1523793D1*
X2266736Y1524837D1*
X2260546Y1525919D1*
X2253035Y1528359D1*
X2245999Y1531944D1*
X2239610Y1536586D1*
X2234025Y1542170D1*
X2229383Y1548559D1*
X2225798Y1555596D1*
X2223358Y1563107D1*
X2222122Y1570907D1*
Y1578804D1*
X2223358Y1586604D1*
X2225798Y1594115D1*
X2229383Y1601152D1*
X2234025Y1607541D1*
X2239610Y1613125D1*
X2245999Y1617767D1*
X2253035Y1621352D1*
X2260546Y1623793D1*
X2266736Y1624837D1*
X2260546Y1625919D1*
X2253035Y1628359D1*
X2245999Y1631944D1*
X2239610Y1636586D1*
X2234025Y1642170D1*
X2229383Y1648559D1*
X2225798Y1655596D1*
X2223358Y1663107D1*
X2222122Y1670907D1*
Y1678804D1*
X2223358Y1686604D1*
X2225798Y1694115D1*
X2229383Y1701152D1*
X2234025Y1707541D1*
X2239610Y1713125D1*
X2245999Y1717767D1*
X2253035Y1721352D1*
X2260546Y1723793D1*
X2266736Y1724837D1*
X2260546Y1725919D1*
X2253035Y1728359D1*
X2245999Y1731944D1*
X2239610Y1736586D1*
X2234025Y1742170D1*
X2229383Y1748559D1*
X2225798Y1755596D1*
X2223358Y1763107D1*
X2222122Y1770907D1*
Y1778804D1*
X2223358Y1786604D1*
X2225798Y1794115D1*
X2229383Y1801152D1*
X2234025Y1807541D1*
X2239610Y1813125D1*
X2245999Y1817767D1*
X2253035Y1821352D1*
X2260546Y1823793D1*
X2266736Y1824837D1*
X2259623Y1826149D1*
X2252671Y1828511D1*
X2246137Y1831860D1*
X2240159Y1836124D1*
X2234865Y1841212D1*
X2230368Y1847016D1*
X2226764Y1853413D1*
X2224128Y1860266D1*
X2222518Y1867430D1*
X2221967Y1874752D1*
X2222488Y1882076D1*
X2224069Y1889247D1*
X2226676Y1896111D1*
X2230254Y1902522D1*
X2234727Y1908345D1*
X2240000Y1913455D1*
X2245960Y1917743D1*
X2252481Y1921119D1*
X2259423Y1923509D1*
X2266561Y1924854D1*
X2259623Y1926149D1*
X2252671Y1928511D1*
X2246137Y1931860D1*
X2240159Y1936124D1*
X2234865Y1941212D1*
X2230368Y1947016D1*
X2226764Y1953413D1*
X2224128Y1960266D1*
X2222518Y1967430D1*
X2221967Y1974752D1*
X2222488Y1982076D1*
X2224069Y1989247D1*
X2226676Y1996111D1*
X2230254Y2002522D1*
X2234727Y2008345D1*
X2240000Y2013455D1*
X2245960Y2017743D1*
X2252481Y2021119D1*
X2259423Y2023509D1*
X2266561Y2024854D1*
X2260546Y2025919D1*
X2253035Y2028359D1*
X2245999Y2031944D1*
X2239610Y2036586D1*
X2234025Y2042170D1*
X2229383Y2048559D1*
X2225798Y2055596D1*
X2223358Y2063107D1*
X2222122Y2070907D1*
Y2078804D1*
X2223358Y2086604D1*
X2225798Y2094115D1*
X2229383Y2101152D1*
X2234025Y2107541D1*
X2239610Y2113125D1*
X2245999Y2117767D1*
X2253035Y2121352D1*
X2260546Y2123793D1*
X2266736Y2124837D1*
X2260546Y2125919D1*
X2253035Y2128359D1*
X2245999Y2131944D1*
X2239610Y2136586D1*
X2234025Y2142170D1*
X2229383Y2148559D1*
X2225798Y2155596D1*
X2223358Y2163107D1*
X2222122Y2170907D1*
Y2178804D1*
X2223358Y2186604D1*
X2225798Y2194115D1*
X2229383Y2201152D1*
X2234025Y2207541D1*
X2239610Y2213125D1*
X2245999Y2217767D1*
X2253035Y2221352D1*
X2260546Y2223793D1*
X2266736Y2224837D1*
X2260546Y2225919D1*
X2253035Y2228359D1*
X2245999Y2231944D1*
X2239610Y2236586D1*
X2234025Y2242170D1*
X2229383Y2248559D1*
X2225798Y2255596D1*
X2223358Y2263107D1*
X2222122Y2270907D1*
Y2278804D1*
X2223358Y2286604D1*
X2225798Y2294115D1*
X2229383Y2301152D1*
X2234025Y2307541D1*
X2239610Y2313125D1*
X2245999Y2317767D1*
X2253035Y2321352D1*
X2260546Y2323793D1*
X2266736Y2324837D1*
X2260546Y2325919D1*
X2253035Y2328359D1*
X2245999Y2331944D1*
X2239610Y2336586D1*
X2234025Y2342170D1*
X2229383Y2348559D1*
X2225798Y2355596D1*
X2223358Y2363107D1*
X2222122Y2370907D1*
Y2378804D1*
X2223358Y2386604D1*
X2225798Y2394115D1*
X2229383Y2401152D1*
X2234025Y2407541D1*
X2239610Y2413125D1*
X2245999Y2417767D1*
X2249110Y2419509D1*
X1295487Y2419505D1*
X1301876Y2415571D1*
X1307882Y2410443D1*
X1313011Y2404437D1*
X1317137Y2397704D1*
X1320159Y2390408D1*
X1322003Y2382729D1*
X1322622Y2374856D1*
X1322467Y2370907D1*
X2136641Y1765670D2*
X2135715Y1747323D1*
X2133866Y1729045D1*
X2131098Y1710884D1*
X2127419Y1692886D1*
X2122838Y1675095D1*
X2117366Y1657559D1*
X2111017Y1640320D1*
X2103807Y1623423D1*
X2095756Y1606910D1*
X2086882Y1590825D1*
X2077209Y1575207D1*
X2066762Y1560096D1*
X2055566Y1545531D1*
X2043651Y1531548D1*
X2031046Y1518184D1*
X2017784Y1505472D1*
X2003898Y1493444D1*
X1989424Y1482131D1*
X1974398Y1471562D1*
X1958858Y1461764D1*
X1942845Y1452761D1*
X1926398Y1444576D1*
X1909560Y1437230D1*
X1892373Y1430743D1*
X1874881Y1425129D1*
X1857128Y1420404D1*
X1839160Y1416580D1*
X1821022Y1413666D1*
X1802760Y1411669D1*
X1784420Y1410595D1*
X1766050Y1410447D1*
X1747696Y1411225D1*
X1729404Y1412926D1*
X1711221Y1415547D1*
X1693194Y1419081D1*
X1675367Y1423519D1*
X1657787Y1428849D1*
X1640497Y1435059D1*
X1623542Y1442132D1*
X1606966Y1450050D1*
X1590809Y1458793D1*
X1575114Y1468339D1*
X1559919Y1478665D1*
X1545264Y1489742D1*
X1531186Y1501544D1*
X1517720Y1514041D1*
X1504901Y1527200D1*
X1492762Y1540988D1*
X1481333Y1555371D1*
X1470642Y1570311D1*
X1460719Y1585771D1*
X1451587Y1601711D1*
X1443270Y1618091D1*
X1435788Y1634870D1*
X1429162Y1652004D1*
X1423408Y1669450D1*
X1418540Y1687164D1*
X1414570Y1705101D1*
X1411510Y1723215D1*
X1409366Y1741460D1*
X1408144Y1759790D1*
X1407848Y1778159D1*
X1408477Y1796518D1*
X1410031Y1814823D1*
X1412505Y1833027D1*
X1415893Y1851082D1*
X1420187Y1868944D1*
X1425375Y1886567D1*
X1431445Y1903906D1*
X1438381Y1920917D1*
X1446165Y1937558D1*
X1454778Y1953784D1*
X1464197Y1969556D1*
X1474399Y1984834D1*
X1485358Y1999578D1*
X1497046Y2013751D1*
X1509434Y2027317D1*
X1522489Y2040241D1*
X1536179Y2052492D1*
X1550469Y2064037D1*
X1565322Y2074847D1*
X1580701Y2084895D1*
X1596567Y2094155D1*
X1612880Y2102605D1*
X1629597Y2110221D1*
X1646677Y2116985D1*
X1664077Y2122880D1*
X1681751Y2127891D1*
X1699655Y2132005D1*
X1717744Y2135212D1*
X1735971Y2137503D1*
X1754291Y2138873D1*
X1772656Y2139317D1*
X1791020Y2138836D1*
X1809337Y2137430D1*
X1827560Y2135103D1*
X1845642Y2131861D1*
X1863538Y2127711D1*
X1881203Y2122665D1*
X1898590Y2116736D1*
X1915657Y2109937D1*
X1932359Y2102288D1*
X1948655Y2093806D1*
X1964502Y2084515D1*
X1979862Y2074436D1*
X1994694Y2063596D1*
X2008960Y2052023D1*
X2022626Y2039746D1*
X2035656Y2026795D1*
X2048016Y2013204D1*
X2059676Y1999008D1*
X2070606Y1984243D1*
X2080778Y1968945D1*
X2090166Y1953154D1*
X2098746Y1936911D1*
X2106497Y1920255D1*
X2113399Y1903230D1*
X2119435Y1885879D1*
X2124588Y1868246D1*
X2128847Y1850376D1*
X2132199Y1832313D1*
X2134637Y1814105D1*
X2136154Y1795797D1*
X2136757Y1774856D1*
X2136641Y1765670D1*
X2765529Y979216D2*
X2763901Y960921D1*
X2760657Y942843D1*
X2755824Y925124D1*
X2749439Y907903D1*
X2741552Y891316D1*
X2732226Y875493D1*
X2721535Y860559D1*
X2709561Y846632D1*
X2696400Y833821D1*
X2682155Y822227D1*
X2666938Y811942D1*
X2650869Y803046D1*
X2634076Y795610D1*
X2616689Y789691D1*
X2598845Y785338D1*
X2580686Y782583D1*
X2562355Y781449D1*
X2543995Y781944D1*
X2525751Y784065D1*
X2507767Y787795D1*
X2490185Y793104D1*
X2473142Y799951D1*
X2456773Y808282D1*
X2441208Y818032D1*
X2426568Y829123D1*
X2412969Y841467D1*
X2400517Y854969D1*
X2389312Y869522D1*
X2379441Y885010D1*
X2370982Y901313D1*
X2364001Y918301D1*
X2358554Y935842D1*
X2354683Y953796D1*
X2352419Y972022D1*
X2351779Y990378D1*
X2352769Y1008718D1*
X2355382Y1026898D1*
X2359595Y1044775D1*
X2365377Y1062207D1*
X2372681Y1079059D1*
X2381451Y1095197D1*
X2391616Y1110494D1*
X2403098Y1124830D1*
X2415805Y1138091D1*
X2429638Y1150174D1*
X2444487Y1160982D1*
X2460236Y1170432D1*
X2476761Y1178449D1*
X2493931Y1184969D1*
X2511612Y1189941D1*
X2529664Y1193326D1*
X2547945Y1195098D1*
X2566311Y1195242D1*
X2584618Y1193758D1*
X2602721Y1190656D1*
X2620478Y1185962D1*
X2637748Y1179712D1*
X2654397Y1171956D1*
X2670292Y1162755D1*
X2685310Y1152180D1*
X2699330Y1140316D1*
X2712244Y1127256D1*
X2723949Y1113103D1*
X2734354Y1097967D1*
X2743375Y1081969D1*
X2750943Y1065234D1*
X2756998Y1047894D1*
X2761492Y1030085D1*
X2764389Y1011949D1*
X2765667Y993627D1*
X2765529Y979216D1*
X1192616D2*
X1190988Y960921D1*
X1187744Y942843D1*
X1182911Y925124D1*
X1176526Y907903D1*
X1168639Y891316D1*
X1159313Y875493D1*
X1148621Y860559D1*
X1136647Y846632D1*
X1123486Y833821D1*
X1109241Y822227D1*
X1094025Y811942D1*
X1077956Y803046D1*
X1061162Y795610D1*
X1043775Y789691D1*
X1025932Y785338D1*
X1007773Y782583D1*
X989441Y781449D1*
X971081Y781944D1*
X952838Y784065D1*
X934854Y787795D1*
X917271Y793104D1*
X900229Y799951D1*
X883860Y808282D1*
X868295Y818032D1*
X853655Y829123D1*
X840055Y841467D1*
X827604Y854969D1*
X816399Y869522D1*
X806528Y885010D1*
X798068Y901313D1*
X791088Y918301D1*
X785640Y935842D1*
X781769Y953796D1*
X779505Y972022D1*
X778866Y990378D1*
X779856Y1008718D1*
X782468Y1026898D1*
X786682Y1044775D1*
X792464Y1062207D1*
X799768Y1079059D1*
X808537Y1095197D1*
X818703Y1110494D1*
X830184Y1124830D1*
X842892Y1138091D1*
X856724Y1150174D1*
X871574Y1160982D1*
X887323Y1170432D1*
X903848Y1178449D1*
X921018Y1184969D1*
X938699Y1189941D1*
X956751Y1193326D1*
X975032Y1195098D1*
X993398Y1195242D1*
X1011705Y1193758D1*
X1029807Y1190656D1*
X1047564Y1185962D1*
X1064835Y1179712D1*
X1081483Y1171956D1*
X1097379Y1162755D1*
X1112396Y1152180D1*
X1126417Y1140316D1*
X1139331Y1127256D1*
X1151036Y1113103D1*
X1161440Y1097967D1*
X1170462Y1081969D1*
X1178030Y1065234D1*
X1184085Y1047894D1*
X1188578Y1030085D1*
X1191476Y1011949D1*
X1192754Y993627D1*
X1192616Y979216D1*
X727216Y2242900D2*
X826559D1*
Y2217817D1*
X831032Y2223877D1*
X837053Y2229898D1*
X843942Y2234903D1*
X851529Y2238769D1*
X859627Y2241400D1*
X868037Y2242732D1*
X876552D1*
X884962Y2241400D1*
X893061Y2238769D1*
X900648Y2234903D1*
X907537Y2229898D1*
X913558Y2223877D1*
X918563Y2216988D1*
X922282Y2209719D1*
X926027Y2216988D1*
X931032Y2223877D1*
X937053Y2229898D1*
X943942Y2234903D1*
X951529Y2238769D1*
X959627Y2241400D1*
X968037Y2242732D1*
X976552D1*
X984962Y2241400D1*
X993061Y2238769D1*
X1000648Y2234903D1*
X1007537Y2229898D1*
X1013558Y2223877D1*
X1018563Y2216988D1*
X1022282Y2209719D1*
X1026027Y2216988D1*
X1031032Y2223877D1*
X1037053Y2229898D1*
X1043942Y2234903D1*
X1051529Y2238769D1*
X1059627Y2241400D1*
X1068037Y2242732D1*
X1076552D1*
X1084962Y2241400D1*
X1093061Y2238769D1*
X1100648Y2234903D1*
X1107537Y2229898D1*
X1113558Y2223877D1*
X1118563Y2216988D1*
X1122429Y2209401D1*
X1125060Y2201303D1*
X1126392Y2192893D1*
X1126559Y2170262D1*
X1126392Y2156818D1*
X1125060Y2148408D1*
X1122429Y2140310D1*
X1118563Y2132723D1*
X1113558Y2125834D1*
X1107537Y2119813D1*
X1100648Y2114808D1*
X1093061Y2110942D1*
X1084962Y2108311D1*
X1076552Y2106979D1*
X1068037D1*
X1059627Y2108311D1*
X1051529Y2110942D1*
X1043942Y2114808D1*
X1037053Y2119813D1*
X1031032Y2125834D1*
X1026027Y2132723D1*
X1022307Y2139992D1*
X1018563Y2132723D1*
X1013558Y2125834D1*
X1007537Y2119813D1*
X1000648Y2114808D1*
X993061Y2110942D1*
X984962Y2108311D1*
X976552Y2106979D1*
X968037D1*
X959627Y2108311D1*
X951529Y2110942D1*
X943942Y2114808D1*
X937053Y2119813D1*
X931032Y2125834D1*
X926027Y2132723D1*
X922307Y2139992D1*
X918563Y2132723D1*
X913558Y2125834D1*
X907537Y2119813D1*
X900648Y2114808D1*
X893061Y2110942D1*
X884962Y2108311D1*
X876552Y2106979D1*
X868037D1*
X859627Y2108311D1*
X851529Y2110942D1*
X843942Y2114808D1*
X837053Y2119813D1*
X831032Y2125834D1*
X826554Y2131934D1*
X826559Y2106811D1*
X718030D1*
Y2242900D1*
X727216D1*
X1236733Y1110417D2*
D14*
X1307856Y1039294D1*
Y1110417D2*
X1236733Y1039294D1*
X2236733Y910417D2*
X2307856Y839294D1*
Y910417D2*
X2236733Y839294D1*
Y1910417D2*
X2307856Y1839294D1*
Y1910417D2*
X2236733Y1839294D1*
Y2010417D2*
X2307856Y1939294D1*
Y2010417D2*
X2236733Y1939294D1*
D16*
X1272295Y2574856D3*
Y2474856D3*
Y2374856D3*
Y2274856D3*
Y2174856D3*
Y2074856D3*
Y1974856D3*
Y1874856D3*
Y1774856D3*
Y1674856D3*
Y1574856D3*
Y1474856D3*
Y1374856D3*
Y1274856D3*
Y1174856D3*
Y1074856D3*
X2272295Y674856D3*
Y774856D3*
Y874856D3*
Y974856D3*
Y1074856D3*
Y1174856D3*
Y1274856D3*
Y1374856D3*
Y1474856D3*
Y1574856D3*
Y1674856D3*
Y1774856D3*
Y1874856D3*
Y1974856D3*
Y2074856D3*
Y2174856D3*
Y2274856D3*
Y2374856D3*
Y2474856D3*
D17*
Y2574856D3*
D20*
X772295Y2174856D3*
D21*
X872295D3*
X972295D3*
X1072295D3*
M02*
